<svg width="174" height="174" viewBox="0 0 174 174" fill="none" xmlns="http://www.w3.org/2000/svg">
<path d="M154.743 74.633C128.446 74.569 106.947 53.0703 106.883 26.7728C106.866 19.92 108.289 13.402 110.862 7.49931C111.006 7.16824 110.599 6.84086 110.079 7.10055C91.3031 16.4912 79.5027 37.7831 84.6952 61.0997C88.2521 77.0711 104.445 93.2641 120.416 96.8209C143.308 101.919 164.274 90.6512 173.891 72.4582C174.289 71.7063 173.526 70.873 172.738 71.1893C167.179 73.4244 161.105 74.649 154.743 74.633V74.633Z" fill="url(#paint0_radial)"/>
<path d="M75.5369 92.336C74.9156 94.5105 77.616 96.0701 79.1885 94.4435C85.8293 87.5797 97.4276 90.6874 99.7464 99.9525H99.7477C100.296 102.146 103.415 102.146 103.964 99.9525C106.283 90.6874 117.881 87.5797 124.522 94.4435C127.479 96.7752 139.103 94.0954 139.103 94.0954L108.622 63.6137C106.006 60.8399 102.299 59.1062 98.1842 59.1062C95.2698 59.1062 92.5617 59.9775 90.2982 61.4702C90.2621 61.4341 86.8154 57.9874 86.6143 57.7914C81.6363 52.6562 74.6668 49.4634 66.9497 49.4634C61.9356 49.4634 57.2373 50.8116 53.1951 53.1627C62.2076 55.6685 65.1632 67.0708 58.3793 73.6342C56.7539 75.2068 58.3136 77.9072 60.4881 77.2859C69.6708 74.6615 78.1612 83.152 75.5369 92.336V92.336Z" fill="url(#paint1_linear)"/>
<path d="M43.2241 172.688C41.528 172.688 40.1521 171.314 40.1521 169.617V160.28C40.1521 158.583 41.528 157.208 43.2241 157.208C44.9202 157.208 46.295 158.583 46.295 160.28V169.617C46.295 171.314 44.9202 172.688 43.2241 172.688Z" fill="url(#paint2_radial)"/>
<path d="M43.2241 154.014C41.528 154.014 40.1521 152.639 40.1521 150.942V143.079C40.1521 141.383 41.528 140.008 43.2241 140.008C44.9202 140.008 46.295 141.383 46.295 143.079V150.942C46.295 152.639 44.9202 154.014 43.2241 154.014Z" fill="url(#paint3_radial)"/>
<path d="M43.2241 137.551C41.528 137.551 40.1521 136.175 40.1521 134.479V113.102C40.1521 111.406 41.528 110.03 43.2241 110.03C44.9202 110.03 46.295 111.406 46.295 113.102V134.479C46.295 136.175 44.9202 137.551 43.2241 137.551V137.551Z" fill="url(#paint4_radial)"/>
<path d="M59.4414 172.688C57.7453 172.688 56.3694 171.314 56.3694 169.617V151.065C56.3694 149.369 57.7453 147.993 59.4414 147.993C61.1375 147.993 62.5133 149.369 62.5133 151.065V169.617C62.5133 171.314 61.1375 172.688 59.4414 172.688Z" fill="url(#paint5_radial)"/>
<path d="M59.4414 146.151C57.7453 146.151 56.3694 144.776 56.3694 143.079V131.53C56.3694 129.834 57.7453 128.459 59.4414 128.459C61.1375 128.459 62.5133 129.834 62.5133 131.53V143.079C62.5133 144.776 61.1375 146.151 59.4414 146.151Z" fill="url(#paint6_radial)"/>
<path d="M59.4414 126.494C57.7453 126.494 56.3694 125.118 56.3694 123.422V113.102C56.3694 111.405 57.7453 110.03 59.4414 110.03C61.1375 110.03 62.5133 111.405 62.5133 113.102V123.422C62.5133 125.118 61.1375 126.494 59.4414 126.494Z" fill="url(#paint7_radial)"/>
<path d="M75.6587 172.688C73.9625 172.688 72.5877 171.314 72.5877 169.617V146.151C72.5877 144.454 73.9625 143.079 75.6587 143.079C77.3548 143.079 78.7306 144.454 78.7306 146.151V169.617C78.7306 171.314 77.3548 172.688 75.6587 172.688Z" fill="url(#paint8_radial)"/>
<path d="M75.6587 141.728C73.9625 141.728 72.5877 140.353 72.5877 138.656V113.102C72.5877 111.406 73.9625 110.03 75.6587 110.03C77.3548 110.03 78.7306 111.406 78.7306 113.102V138.656C78.7306 140.352 77.3548 141.728 75.6587 141.728V141.728Z" fill="url(#paint9_radial)"/>
<path d="M91.8766 172.688C90.1796 172.688 88.8047 171.313 88.8047 169.617V164.211C88.8047 162.515 90.1796 161.14 91.8766 161.14C93.5727 161.14 94.9476 162.515 94.9476 164.211V169.617C94.9476 171.313 93.5727 172.688 91.8766 172.688V172.688Z" fill="url(#paint10_radial)"/>
<path d="M91.8766 159.665C90.1796 159.665 88.8047 158.29 88.8047 156.594V140.008C88.8047 138.311 90.1796 136.936 91.8766 136.936C93.5727 136.936 94.9476 138.311 94.9476 140.008V156.594C94.9476 158.29 93.5727 159.665 91.8766 159.665V159.665Z" fill="url(#paint11_radial)"/>
<path d="M91.8766 135.585C90.1796 135.585 88.8047 134.209 88.8047 132.513V113.102C88.8047 111.406 90.1796 110.03 91.8766 110.03C93.5727 110.03 94.9476 111.406 94.9476 113.102V132.513C94.9476 134.209 93.5727 135.585 91.8766 135.585V135.585Z" fill="url(#paint12_radial)"/>
<path d="M108.094 172.688C106.398 172.688 105.022 171.313 105.022 169.617V147.01C105.022 145.314 106.398 143.939 108.094 143.939C109.79 143.939 111.165 145.314 111.165 147.01V169.617C111.165 171.313 109.79 172.688 108.094 172.688V172.688Z" fill="url(#paint13_radial)"/>
<path d="M108.094 142.22C106.398 142.22 105.022 140.845 105.022 139.148V113.102C105.022 111.406 106.398 110.03 108.094 110.03C109.79 110.03 111.165 111.406 111.165 113.102V139.148C111.165 140.844 109.79 142.22 108.094 142.22V142.22Z" fill="url(#paint14_radial)"/>
<path d="M115.241 78.5224C115.085 78.5224 114.929 78.5252 114.774 78.5281C115.077 77.2852 115.241 75.9887 115.241 74.6531C115.241 65.6409 107.936 58.3355 98.924 58.3355C95.3788 58.3355 92.1003 59.4694 89.4242 61.3902C83.8521 52.945 74.2816 47.3719 63.408 47.3719C46.2041 47.3719 32.2576 61.3185 32.2576 78.5224C32.2576 78.6275 32.2614 78.7327 32.2624 78.8379C21.3323 80.6564 13 90.1532 13 101.599C13 114.343 23.3315 124.675 36.0762 124.675H115.241C127.985 124.675 138.317 114.343 138.317 101.599C138.317 88.8539 127.985 78.5224 115.241 78.5224V78.5224Z" fill="url(#paint15_radial)"/>
<path d="M138.318 101.598C138.318 114.343 127.985 124.674 115.242 124.674C102.497 124.674 92.1644 114.343 92.1644 101.598C92.1644 88.8533 102.497 78.5217 115.242 78.5217C127.985 78.5217 138.318 88.8533 138.318 101.598V101.598Z" fill="url(#paint16_linear)"/>
<path d="M115.242 74.6525C115.242 83.6646 107.935 90.9702 98.924 90.9702C89.9118 90.9702 82.6063 83.6646 82.6063 74.6525C82.6063 65.6403 89.9118 58.3348 98.924 58.3348C107.935 58.3348 115.242 65.6403 115.242 74.6525V74.6525Z" fill="url(#paint17_linear)"/>
<path d="M94.5575 78.5217C94.5575 95.7247 80.611 109.671 63.408 109.671C46.2041 109.671 32.2576 95.7247 32.2576 78.5217C32.2576 61.3178 46.2041 47.3713 63.408 47.3713C80.611 47.3713 94.5575 61.3178 94.5575 78.5217Z" fill="url(#paint18_linear)"/>
<path d="M59.1526 101.598C59.1526 114.343 48.8211 124.674 36.0763 124.674C23.3316 124.674 13 114.343 13 101.598C13 88.8532 23.3316 78.5216 36.0763 78.5216C48.8211 78.5216 59.1526 88.8532 59.1526 101.598V101.598Z" fill="url(#paint19_linear)"/>
<path d="M13.2142 104.741C14.7477 115.998 24.3985 124.674 36.0762 124.674H115.241C126.919 124.674 136.57 115.998 138.103 104.741H13.2142Z" fill="url(#paint20_linear)"/>
<path d="M121.355 121.234L120.151 120.03C118.443 118.183 115.999 117.026 113.285 117.026C113.252 117.026 113.221 117.029 113.19 117.029C113.171 117.012 113.153 116.993 113.134 116.976L106.957 110.799C104.271 107.986 100.486 106.231 96.29 106.231C88.1412 106.231 81.5355 112.837 81.5355 120.986C81.5355 121.026 81.5384 121.066 81.5384 121.106C81.3625 121.141 81.1894 121.185 81.0192 121.233H121.355V121.234Z" fill="url(#paint21_linear)"/>
<path d="M81.5384 121.106C81.5384 121.066 81.5356 121.026 81.5356 120.986C81.5356 112.837 88.1412 106.231 96.29 106.231C103.207 106.231 109.011 110.993 110.607 117.417C111.456 117.164 112.353 117.026 113.284 117.026C118.451 117.026 122.641 121.216 122.641 126.383C122.641 131.55 118.451 135.74 113.284 135.74C110.296 135.74 85.1305 135.74 83.0213 135.74C78.9388 135.74 75.6298 132.431 75.6298 128.349C75.6298 124.775 78.1672 121.793 81.5384 121.106V121.106Z" fill="url(#paint22_radial)"/>
<defs>
<radialGradient id="paint0_radial" cx="0" cy="0" r="1" gradientUnits="userSpaceOnUse" gradientTransform="translate(123.758 30.2183) scale(61.2462)">
<stop stop-color="#FFEBC9"/>
<stop offset="0.2771" stop-color="#FFE9C5"/>
<stop offset="0.5263" stop-color="#FEE2BB"/>
<stop offset="0.7641" stop-color="#FDD7A8"/>
<stop offset="0.9948" stop-color="#FBC78F"/>
<stop offset="1" stop-color="#FBC78E"/>
</radialGradient>
<linearGradient id="paint1_linear" x1="142.345" y1="129.029" x2="28.3938" y2="15.0776" gradientUnits="userSpaceOnUse">
<stop stop-color="#E58200" stop-opacity="0"/>
<stop offset="0.0396" stop-color="#E27F04" stop-opacity="0.039216"/>
<stop offset="0.4671" stop-color="#C15D2F" stop-opacity="0.466667"/>
<stop offset="0.8016" stop-color="#AD4949" stop-opacity="0.8"/>
<stop offset="1" stop-color="#A64153"/>
</linearGradient>
<radialGradient id="paint2_radial" cx="0" cy="0" r="1" gradientUnits="userSpaceOnUse" gradientTransform="translate(63.1699 167.651) scale(57.3401 39.9638)">
<stop stop-color="#00C6F6"/>
<stop offset="0.5169" stop-color="#00C4F6"/>
<stop offset="0.7031" stop-color="#02BDF7"/>
<stop offset="0.8359" stop-color="#05B2F9"/>
<stop offset="0.9424" stop-color="#0AA1FC"/>
<stop offset="1" stop-color="#0D94FE"/>
</radialGradient>
<radialGradient id="paint3_radial" cx="0" cy="0" r="1" gradientUnits="userSpaceOnUse" gradientTransform="translate(63.1699 167.651) scale(57.3402 39.9639)">
<stop stop-color="#00C6F6"/>
<stop offset="0.5169" stop-color="#00C4F6"/>
<stop offset="0.7031" stop-color="#02BDF7"/>
<stop offset="0.8359" stop-color="#05B2F9"/>
<stop offset="0.9424" stop-color="#0AA1FC"/>
<stop offset="1" stop-color="#0D94FE"/>
</radialGradient>
<radialGradient id="paint4_radial" cx="0" cy="0" r="1" gradientUnits="userSpaceOnUse" gradientTransform="translate(63.1699 167.651) scale(57.3406 39.9642)">
<stop stop-color="#00C6F6"/>
<stop offset="0.5169" stop-color="#00C4F6"/>
<stop offset="0.7031" stop-color="#02BDF7"/>
<stop offset="0.8359" stop-color="#05B2F9"/>
<stop offset="0.9424" stop-color="#0AA1FC"/>
<stop offset="1" stop-color="#0D94FE"/>
</radialGradient>
<radialGradient id="paint5_radial" cx="0" cy="0" r="1" gradientUnits="userSpaceOnUse" gradientTransform="translate(63.1699 167.651) scale(57.3407 39.9643)">
<stop stop-color="#00C6F6"/>
<stop offset="0.5169" stop-color="#00C4F6"/>
<stop offset="0.7031" stop-color="#02BDF7"/>
<stop offset="0.8359" stop-color="#05B2F9"/>
<stop offset="0.9424" stop-color="#0AA1FC"/>
<stop offset="1" stop-color="#0D94FE"/>
</radialGradient>
<radialGradient id="paint6_radial" cx="0" cy="0" r="1" gradientUnits="userSpaceOnUse" gradientTransform="translate(63.1699 167.651) scale(57.3405 39.9641)">
<stop stop-color="#00C6F6"/>
<stop offset="0.5169" stop-color="#00C4F6"/>
<stop offset="0.7031" stop-color="#02BDF7"/>
<stop offset="0.8359" stop-color="#05B2F9"/>
<stop offset="0.9424" stop-color="#0AA1FC"/>
<stop offset="1" stop-color="#0D94FE"/>
</radialGradient>
<radialGradient id="paint7_radial" cx="0" cy="0" r="1" gradientUnits="userSpaceOnUse" gradientTransform="translate(63.1699 167.651) scale(57.3405 39.9641)">
<stop stop-color="#00C6F6"/>
<stop offset="0.5169" stop-color="#00C4F6"/>
<stop offset="0.7031" stop-color="#02BDF7"/>
<stop offset="0.8359" stop-color="#05B2F9"/>
<stop offset="0.9424" stop-color="#0AA1FC"/>
<stop offset="1" stop-color="#0D94FE"/>
</radialGradient>
<radialGradient id="paint8_radial" cx="0" cy="0" r="1" gradientUnits="userSpaceOnUse" gradientTransform="translate(63.17 167.651) scale(57.3399 39.9637)">
<stop stop-color="#00C6F6"/>
<stop offset="0.5169" stop-color="#00C4F6"/>
<stop offset="0.7031" stop-color="#02BDF7"/>
<stop offset="0.8359" stop-color="#05B2F9"/>
<stop offset="0.9424" stop-color="#0AA1FC"/>
<stop offset="1" stop-color="#0D94FE"/>
</radialGradient>
<radialGradient id="paint9_radial" cx="0" cy="0" r="1" gradientUnits="userSpaceOnUse" gradientTransform="translate(63.17 167.652) scale(57.3407 39.9643)">
<stop stop-color="#00C6F6"/>
<stop offset="0.5169" stop-color="#00C4F6"/>
<stop offset="0.7031" stop-color="#02BDF7"/>
<stop offset="0.8359" stop-color="#05B2F9"/>
<stop offset="0.9424" stop-color="#0AA1FC"/>
<stop offset="1" stop-color="#0D94FE"/>
</radialGradient>
<radialGradient id="paint10_radial" cx="0" cy="0" r="1" gradientUnits="userSpaceOnUse" gradientTransform="translate(63.1697 167.651) scale(57.3398 39.9636)">
<stop stop-color="#00C6F6"/>
<stop offset="0.5169" stop-color="#00C4F6"/>
<stop offset="0.7031" stop-color="#02BDF7"/>
<stop offset="0.8359" stop-color="#05B2F9"/>
<stop offset="0.9424" stop-color="#0AA1FC"/>
<stop offset="1" stop-color="#0D94FE"/>
</radialGradient>
<radialGradient id="paint11_radial" cx="0" cy="0" r="1" gradientUnits="userSpaceOnUse" gradientTransform="translate(63.1697 167.651) scale(57.3398 39.9636)">
<stop stop-color="#00C6F6"/>
<stop offset="0.5169" stop-color="#00C4F6"/>
<stop offset="0.7031" stop-color="#02BDF7"/>
<stop offset="0.8359" stop-color="#05B2F9"/>
<stop offset="0.9424" stop-color="#0AA1FC"/>
<stop offset="1" stop-color="#0D94FE"/>
</radialGradient>
<radialGradient id="paint12_radial" cx="0" cy="0" r="1" gradientUnits="userSpaceOnUse" gradientTransform="translate(63.1697 167.651) scale(57.3405 39.9641)">
<stop stop-color="#00C6F6"/>
<stop offset="0.5169" stop-color="#00C4F6"/>
<stop offset="0.7031" stop-color="#02BDF7"/>
<stop offset="0.8359" stop-color="#05B2F9"/>
<stop offset="0.9424" stop-color="#0AA1FC"/>
<stop offset="1" stop-color="#0D94FE"/>
</radialGradient>
<radialGradient id="paint13_radial" cx="0" cy="0" r="1" gradientUnits="userSpaceOnUse" gradientTransform="translate(63.1695 167.651) scale(57.3399 39.9636)">
<stop stop-color="#00C6F6"/>
<stop offset="0.5169" stop-color="#00C4F6"/>
<stop offset="0.7031" stop-color="#02BDF7"/>
<stop offset="0.8359" stop-color="#05B2F9"/>
<stop offset="0.9424" stop-color="#0AA1FC"/>
<stop offset="1" stop-color="#0D94FE"/>
</radialGradient>
<radialGradient id="paint14_radial" cx="0" cy="0" r="1" gradientUnits="userSpaceOnUse" gradientTransform="translate(63.1695 167.651) scale(57.3402 39.9638)">
<stop stop-color="#00C6F6"/>
<stop offset="0.5169" stop-color="#00C4F6"/>
<stop offset="0.7031" stop-color="#02BDF7"/>
<stop offset="0.8359" stop-color="#05B2F9"/>
<stop offset="0.9424" stop-color="#0AA1FC"/>
<stop offset="1" stop-color="#0D94FE"/>
</radialGradient>
<radialGradient id="paint15_radial" cx="0" cy="0" r="1" gradientUnits="userSpaceOnUse" gradientTransform="translate(54.4414 38.8979) scale(95.0859)">
<stop stop-color="#CFCED3"/>
<stop offset="0.8111" stop-color="#A5ABBD"/>
<stop offset="1" stop-color="#9AA2B7"/>
</radialGradient>
<linearGradient id="paint16_linear" x1="114.982" y1="102.379" x2="128.688" y2="61.0286" gradientUnits="userSpaceOnUse">
<stop offset="0.0018" stop-color="#9AA2B7" stop-opacity="0"/>
<stop offset="0.3682" stop-color="#848A9C" stop-opacity="0.368627"/>
<stop offset="1" stop-color="#606572"/>
</linearGradient>
<linearGradient id="paint17_linear" x1="99.3027" y1="74.0905" x2="116.924" y2="47.9636" gradientUnits="userSpaceOnUse">
<stop offset="0.0018" stop-color="#9AA2B7" stop-opacity="0"/>
<stop offset="0.3682" stop-color="#848A9C" stop-opacity="0.368627"/>
<stop offset="1" stop-color="#606572"/>
</linearGradient>
<linearGradient id="paint18_linear" x1="63.4076" y1="65.5548" x2="63.4076" y2="29.1883" gradientUnits="userSpaceOnUse">
<stop offset="0.0018" stop-color="#9AA2B7" stop-opacity="0"/>
<stop offset="0.3682" stop-color="#848A9C" stop-opacity="0.368627"/>
<stop offset="1" stop-color="#606572"/>
</linearGradient>
<linearGradient id="paint19_linear" x1="36.4838" y1="101.983" x2="8.66652" y2="75.693" gradientUnits="userSpaceOnUse">
<stop offset="0.0018" stop-color="#9AA2B7" stop-opacity="0"/>
<stop offset="0.3682" stop-color="#848A9C" stop-opacity="0.368627"/>
<stop offset="1" stop-color="#606572"/>
</linearGradient>
<linearGradient id="paint20_linear" x1="75.6587" y1="107.949" x2="75.6587" y2="140.078" gradientUnits="userSpaceOnUse">
<stop offset="0.0018" stop-color="#9AA2B7" stop-opacity="0"/>
<stop offset="0.3682" stop-color="#848A9C" stop-opacity="0.368627"/>
<stop offset="1" stop-color="#606572"/>
</linearGradient>
<linearGradient id="paint21_linear" x1="115.863" y1="135.905" x2="82.2351" y2="102.277" gradientUnits="userSpaceOnUse">
<stop offset="0.0018" stop-color="#9AA2B7" stop-opacity="0"/>
<stop offset="0.3682" stop-color="#848A9C" stop-opacity="0.368627"/>
<stop offset="1" stop-color="#606572"/>
</linearGradient>
<radialGradient id="paint22_radial" cx="0" cy="0" r="1" gradientUnits="userSpaceOnUse" gradientTransform="translate(89.5236 104.798) scale(40.1091)">
<stop stop-color="#CFCED3"/>
<stop offset="0.8111" stop-color="#A5ABBD"/>
<stop offset="1" stop-color="#9AA2B7"/>
</radialGradient>
</defs>
</svg>
