<svg width="174" height="174" viewBox="0 0 174 174" fill="none" xmlns="http://www.w3.org/2000/svg">
<path d="M150.824 73.8937C123.955 73.8283 101.99 51.8629 101.925 24.9946C101.907 17.9931 103.361 11.3335 105.99 5.30274C106.137 4.96448 105.721 4.63 105.19 4.89532C86.0064 14.4898 73.9498 36.2439 79.2551 60.0666C82.8891 76.3847 99.4336 92.9292 115.752 96.5633C139.141 101.772 160.562 90.2596 170.387 71.6717C170.794 70.9034 170.014 70.0521 169.209 70.3753C163.529 72.6589 157.324 73.91 150.824 73.8937V73.8937Z" fill="url(#paint0_radial)"/>
<path d="M83.0416 110.033C82.3367 112.501 85.4019 114.271 87.1874 112.426C94.7237 104.636 107.887 108.163 110.519 118.677C111.143 121.167 114.68 121.167 115.304 118.677C117.935 108.163 131.099 104.636 138.635 112.426C140.421 114.271 143.486 112.501 142.78 110.033C141.795 106.587 142.191 103.229 143.537 100.381L120.591 77.4367C117.621 74.2879 113.414 72.3205 108.745 72.3205C105.437 72.3205 102.364 73.3095 99.7948 75.0034C99.7537 74.9636 95.8428 71.0514 95.6145 70.8283C89.9632 65.0019 82.0539 61.3778 73.295 61.3778C67.6052 61.3778 62.2726 62.9071 57.686 65.5767C67.9132 68.4202 71.2678 81.3609 63.5696 88.8095C61.7243 90.5937 63.4939 93.6589 65.9618 92.954C76.3854 89.9751 86.0205 99.6115 83.0416 110.033Z" fill="url(#paint1_linear)"/>
<path d="M128.007 94.3294C127.832 94.3294 127.658 94.3334 127.482 94.3361C127.822 92.9422 128.007 91.4886 128.007 89.9898C128.007 79.8821 119.812 71.6873 109.703 71.6873C105.727 71.6873 102.05 72.9591 99.0485 75.1123C92.7985 65.6418 82.0629 59.3893 69.8657 59.3893C50.569 59.3893 34.9268 75.0327 34.9268 94.3294C34.9268 94.4476 34.9295 94.5657 34.9308 94.6839C22.6726 96.7229 13.3255 107.376 13.3255 120.213C13.3255 134.509 24.9147 146.097 39.2094 146.097H128.007C142.302 146.097 153.891 134.509 153.891 120.213C153.891 105.919 142.302 94.3294 128.007 94.3294Z" fill="url(#paint2_radial)"/>
<path d="M153.891 120.213C153.891 134.509 142.302 146.097 128.007 146.097C113.711 146.097 102.123 134.509 102.123 120.213C102.123 105.919 113.711 94.3294 128.007 94.3294C142.302 94.3294 153.891 105.919 153.891 120.213Z" fill="url(#paint3_linear)"/>
<path d="M128.007 89.9898C128.007 100.099 119.812 108.292 109.703 108.292C99.5954 108.292 91.4006 100.099 91.4006 89.9898C91.4006 79.8821 99.5954 71.6873 109.703 71.6873C119.812 71.6873 128.007 79.8821 128.007 89.9898V89.9898Z" fill="url(#paint4_linear)"/>
<path d="M104.806 94.3294C104.806 113.626 89.1638 129.27 69.867 129.27C50.5703 129.27 34.9268 113.626 34.9268 94.3294C34.9268 75.0327 50.5703 59.3893 69.867 59.3893C89.1638 59.3893 104.806 75.0327 104.806 94.3294Z" fill="url(#paint5_linear)"/>
<path d="M65.0933 120.213C65.0933 134.509 53.5054 146.097 39.2094 146.097C24.9147 146.097 13.3255 134.509 13.3255 120.213C13.3255 105.919 24.9147 94.3294 39.2094 94.3294C53.5054 94.3294 65.0933 105.919 65.0933 120.213Z" fill="url(#paint6_linear)"/>
<path d="M13.5658 123.739C15.2849 136.367 26.1108 146.097 39.2094 146.097H128.007C141.107 146.097 151.931 136.367 153.65 123.739H13.5658Z" fill="url(#paint7_linear)"/>
<path d="M36.9725 48.5488C36.9725 48.5169 36.9739 48.4851 36.9739 48.4519C36.9739 41.959 31.7103 36.6941 25.2161 36.6941C19.7029 36.6941 15.0779 40.4895 13.8061 45.6084C13.1304 45.4066 12.4149 45.2977 11.6728 45.2977C7.55483 45.2977 4.21613 48.6364 4.21613 52.7544C4.21613 56.8723 7.55483 60.211 11.6728 60.211H35.7911C39.0435 60.211 41.6812 57.5732 41.6812 54.3208C41.6812 51.472 39.6594 49.0957 36.9725 48.5488V48.5488Z" fill="url(#paint8_radial)"/>
<path d="M86.9256 146.097L85.5755 144.747C83.6586 142.676 80.9173 141.378 77.8719 141.378C77.8361 141.378 77.8016 141.382 77.7657 141.382C77.7445 141.362 77.7246 141.341 77.7034 141.321L70.7764 134.394C67.7629 131.238 63.5175 129.27 58.8102 129.27C49.6702 129.27 42.26 136.678 42.26 145.818C42.26 145.865 42.264 145.91 42.264 145.954C42.0662 145.995 41.8724 146.044 41.6812 146.097H86.9256Z" fill="url(#paint9_linear)"/>
<defs>
<radialGradient id="paint0_radial" cx="0" cy="0" r="1" gradientUnits="userSpaceOnUse" gradientTransform="translate(119.166 28.5149) scale(62.5757)">
<stop stop-color="#FFEBC9"/>
<stop offset="0.2771" stop-color="#FFE9C5"/>
<stop offset="0.5263" stop-color="#FEE2BB"/>
<stop offset="0.7641" stop-color="#FDD7A8"/>
<stop offset="0.9948" stop-color="#FBC78F"/>
<stop offset="1" stop-color="#FBC78E"/>
</radialGradient>
<linearGradient id="paint1_linear" x1="150.667" y1="143.48" x2="32.6621" y2="25.4762" gradientUnits="userSpaceOnUse">
<stop stop-color="#E58200" stop-opacity="0"/>
<stop offset="0.0396" stop-color="#E27F04" stop-opacity="0.039216"/>
<stop offset="0.4671" stop-color="#C15D2F" stop-opacity="0.466667"/>
<stop offset="0.8016" stop-color="#AD4949" stop-opacity="0.8"/>
<stop offset="1" stop-color="#A64153"/>
</linearGradient>
<radialGradient id="paint2_radial" cx="0" cy="0" r="1" gradientUnits="userSpaceOnUse" gradientTransform="translate(59.8093 49.8845) scale(106.655)">
<stop stop-color="#ECF7FF"/>
<stop offset="0.3473" stop-color="#E9F5FF"/>
<stop offset="0.62" stop-color="#DFF0FF"/>
<stop offset="0.8666" stop-color="#CEE7FF"/>
<stop offset="1" stop-color="#C2E0FF"/>
</radialGradient>
<linearGradient id="paint3_linear" x1="127.716" y1="121.09" x2="143.09" y2="74.7087" gradientUnits="userSpaceOnUse">
<stop offset="0.0029" stop-color="#C2E0FF" stop-opacity="0"/>
<stop offset="0.0763" stop-color="#BFDCFD" stop-opacity="0.07451"/>
<stop offset="1" stop-color="#9EB2E7"/>
</linearGradient>
<linearGradient id="paint4_linear" x1="110.129" y1="89.3597" x2="129.895" y2="60.054" gradientUnits="userSpaceOnUse">
<stop offset="0.0029" stop-color="#C2E0FF" stop-opacity="0"/>
<stop offset="0.0763" stop-color="#BFDCFD" stop-opacity="0.07451"/>
<stop offset="1" stop-color="#9EB2E7"/>
</linearGradient>
<linearGradient id="paint5_linear" x1="69.8666" y1="89.2079" x2="69.8666" y2="41.6161" gradientUnits="userSpaceOnUse">
<stop offset="0.0029" stop-color="#C2E0FF" stop-opacity="0"/>
<stop offset="0.0763" stop-color="#BFDCFD" stop-opacity="0.07451"/>
<stop offset="1" stop-color="#9EB2E7"/>
</linearGradient>
<linearGradient id="paint6_linear" x1="39.6667" y1="120.646" x2="8.46481" y2="91.1574" gradientUnits="userSpaceOnUse">
<stop offset="0.0029" stop-color="#C2E0FF" stop-opacity="0"/>
<stop offset="0.0763" stop-color="#BFDCFD" stop-opacity="0.07451"/>
<stop offset="1" stop-color="#9EB2E7"/>
</linearGradient>
<linearGradient id="paint7_linear" x1="83.6082" y1="127.338" x2="83.6082" y2="163.376" gradientUnits="userSpaceOnUse">
<stop offset="0.0029" stop-color="#C2E0FF" stop-opacity="0"/>
<stop offset="0.0763" stop-color="#BFDCFD" stop-opacity="0.07451"/>
<stop offset="1" stop-color="#9EB2E7"/>
</linearGradient>
<radialGradient id="paint8_radial" cx="0" cy="0" r="1" gradientUnits="userSpaceOnUse" gradientTransform="translate(15.517 35.9235) scale(30.8921)">
<stop stop-color="#ECF7FF"/>
<stop offset="1" stop-color="#C2E0FF"/>
</radialGradient>
<linearGradient id="paint9_linear" x1="80.7655" y1="162.554" x2="43.0455" y2="124.835" gradientUnits="userSpaceOnUse">
<stop offset="0.0029" stop-color="#C2E0FF" stop-opacity="0"/>
<stop offset="0.0763" stop-color="#BFDCFD" stop-opacity="0.07451"/>
<stop offset="1" stop-color="#9EB2E7"/>
</linearGradient>
</defs>
</svg>
