<svg width="174" height="174" viewBox="0 0 174 174" fill="none" xmlns="http://www.w3.org/2000/svg">
<g clip-path="url(#clip0)">
<path d="M15.6761 167.99C13.6976 167.054 12.8527 164.693 13.7876 162.715L18.9387 151.824C19.8737 149.845 22.2358 149.001 24.2144 149.936C26.1929 150.872 27.0378 153.234 26.1028 155.212L20.953 166.102C20.0168 168.08 17.6546 168.926 15.6761 167.99V167.99Z" fill="url(#paint0_radial)"/>
<path d="M25.9758 146.21C23.9985 145.275 23.1523 142.912 24.0885 140.934L28.4255 131.762C29.3605 129.785 31.7226 128.939 33.7012 129.875C35.6797 130.81 36.5259 133.174 35.5896 135.151L31.2527 144.322C30.3177 146.3 27.9543 147.145 25.9758 146.21V146.21Z" fill="url(#paint1_radial)"/>
<path d="M35.0566 127.009C33.0781 126.074 32.2331 123.712 33.1681 121.733L44.9591 96.8006C45.8953 94.8221 48.2574 93.9772 50.236 94.9122C52.2145 95.8484 53.0594 98.2105 52.1244 100.189L40.3335 125.122C39.3973 127.1 37.0351 127.945 35.0566 127.009Z" fill="url(#paint2_radial)"/>
<path d="M34.5905 167.99C32.6119 167.055 31.767 164.693 32.702 162.715L42.935 141.077C43.87 139.099 46.2322 138.253 48.2119 139.189C50.1892 140.124 51.0354 142.486 50.0992 144.465L39.8673 166.102C38.9311 168.08 36.569 168.926 34.5905 167.99V167.99Z" fill="url(#paint3_radial)"/>
<path d="M49.227 137.04C47.2497 136.105 46.4035 133.743 47.3397 131.764L53.7095 118.294C54.6445 116.316 57.0066 115.471 58.9864 116.406C60.9637 117.342 61.8099 119.704 60.8736 121.683L54.5039 135.152C53.5677 137.13 51.2055 137.976 49.227 137.04Z" fill="url(#paint4_radial)"/>
<path d="M60.0694 114.114C58.0921 113.178 57.2459 110.816 58.1822 108.837L63.8735 96.8006C64.8097 94.8221 67.1719 93.9772 69.1504 94.9122C71.1289 95.8484 71.9739 98.2105 71.0389 100.189L65.3463 112.225C64.4101 114.204 62.0479 115.049 60.0694 114.114V114.114Z" fill="url(#paint5_radial)"/>
<path d="M53.5048 167.99C51.5263 167.055 50.6814 164.693 51.6163 162.715L64.5594 135.346C65.4956 133.367 67.8578 132.522 69.8363 133.457C71.8148 134.394 72.6598 136.756 71.7248 138.734L58.7817 166.103C57.8455 168.08 55.4834 168.926 53.5048 167.99V167.99Z" fill="url(#paint6_radial)"/>
<path d="M70.5812 131.881C68.6027 130.946 67.7577 128.583 68.6927 126.606L82.7879 96.8006C83.7241 94.8221 86.0862 93.9772 88.0648 94.9122C90.0421 95.8471 90.8882 98.2105 89.952 100.189L75.8581 129.993C74.9219 131.971 72.5597 132.817 70.5812 131.881V131.881Z" fill="url(#paint7_radial)"/>
<path d="M72.4192 167.99C70.4407 167.054 69.5957 164.693 70.5307 162.714L73.5133 156.409C74.4483 154.43 76.8104 153.585 78.789 154.522C80.7675 155.457 81.6124 157.819 80.6774 159.797L77.6961 166.102C76.7599 168.08 74.3977 168.926 72.4192 167.99Z" fill="url(#paint8_radial)"/>
<path d="M79.6031 152.802C77.6245 151.866 76.7783 149.504 77.7146 147.525L86.8622 128.18C87.7984 126.202 90.1605 125.357 92.1391 126.293C94.1176 127.228 94.9625 129.59 94.0275 131.569L84.8787 150.914C83.9425 152.892 81.5803 153.737 79.6031 152.802V152.802Z" fill="url(#paint9_radial)"/>
<path d="M92.884 124.717C90.9055 123.781 90.0606 121.419 90.9956 119.44L101.702 96.8006C102.639 94.8221 105.001 93.9772 106.979 94.9122C108.958 95.8484 109.803 98.2105 108.868 100.189L98.1609 122.829C97.2247 124.807 94.8626 125.652 92.884 124.717V124.717Z" fill="url(#paint10_radial)"/>
<path d="M91.3335 167.99C89.355 167.055 88.5101 164.693 89.4451 162.715L101.914 136.349C102.849 134.37 105.212 133.525 107.19 134.46C109.169 135.395 110.014 137.758 109.079 139.737L96.6104 166.102C95.6742 168.08 93.3121 168.926 91.3335 167.99V167.99Z" fill="url(#paint11_radial)"/>
<path d="M108.14 132.455C106.161 131.519 105.315 129.156 106.251 127.178L120.617 96.8006C121.553 94.8221 123.915 93.9772 125.894 94.9122C127.872 95.8484 128.717 98.2105 127.781 100.189L113.416 130.566C112.479 132.545 110.117 133.39 108.14 132.455V132.455Z" fill="url(#paint12_radial)"/>
<path d="M153.23 72.9429C124.865 72.8739 101.676 49.6849 101.607 21.3199C101.588 13.9283 103.123 6.89776 105.899 0.531004C106.054 0.173902 105.614 -0.179217 105.054 0.100889C84.8016 10.2298 72.0734 33.1958 77.6742 58.3456C81.5107 75.5727 98.9768 93.0389 116.204 96.8754C140.896 102.374 163.51 90.2205 173.883 70.5972C174.312 69.7861 173.489 68.8874 172.639 69.2286C166.643 71.6393 160.092 72.9602 153.23 72.9429V72.9429Z" fill="url(#paint13_radial)"/>
<path d="M73.5243 90.8786C72.816 93.3577 75.8947 95.1359 77.6876 93.2813C85.2587 85.456 98.4817 88.9991 101.125 99.5622H101.127C101.751 102.063 105.308 102.063 105.934 99.5622C108.577 88.9991 121.8 85.456 129.372 93.2813C132.743 95.9397 145.995 92.8845 145.995 92.8845L111.245 58.1327C108.261 54.9702 104.035 52.9937 99.3443 52.9937C96.0216 52.9937 92.9341 53.9871 90.3536 55.6888C90.3124 55.6477 86.3829 51.7181 86.1536 51.4947C80.4782 45.6401 72.5324 42 63.7342 42C58.0177 42 52.6612 43.5371 48.0527 46.2176C58.3277 49.0744 61.6974 62.074 53.9632 69.5569C52.1101 71.3498 53.8882 74.4285 56.3674 73.7202C66.8364 70.7282 76.5163 80.4081 73.5243 90.8786V90.8786Z" fill="url(#paint14_linear)"/>
<path d="M115.705 73.2338C115.549 73.2338 115.393 73.2352 115.237 73.2396C115.54 71.9935 115.705 70.6929 115.705 69.3542C115.705 60.3179 108.381 52.9937 99.3443 52.9937C95.7894 52.9937 92.5035 54.1296 89.8201 56.0547C84.2329 47.5887 74.6368 42 63.7342 42C46.4847 42 32.5019 55.9842 32.5019 73.2338C32.5019 73.3396 32.5049 73.4439 32.5063 73.5497C21.5479 75.3734 13.1935 84.8946 13.1935 96.3703C13.1935 109.149 23.5524 119.508 36.3301 119.508H115.705C128.484 119.508 138.843 109.149 138.843 96.3703C138.843 83.5926 128.484 73.2338 115.705 73.2338V73.2338Z" fill="url(#paint15_radial)"/>
<path d="M138.843 96.3703C138.843 109.149 128.482 119.508 115.705 119.508C102.926 119.508 92.5667 109.149 92.5667 96.3703C92.5667 83.5926 102.926 73.2337 115.705 73.2337C128.482 73.2337 138.843 83.5926 138.843 96.3703V96.3703Z" fill="url(#paint16_linear)"/>
<path d="M115.705 69.3541C115.705 78.3889 108.38 85.7146 99.3442 85.7146C90.308 85.7146 82.9838 78.3889 82.9838 69.3541C82.9838 60.3179 90.308 52.9937 99.3442 52.9937C108.38 52.9937 115.705 60.3179 115.705 69.3541V69.3541Z" fill="url(#paint17_linear)"/>
<path d="M94.9665 73.2338C94.9665 90.4818 80.9837 104.466 63.7342 104.466C46.4846 104.466 32.5019 90.4818 32.5019 73.2338C32.5019 55.9842 46.4846 42 63.7342 42C80.9837 42 94.9665 55.9842 94.9665 73.2338V73.2338Z" fill="url(#paint18_linear)"/>
<path d="M59.4681 96.3703C59.4681 109.149 49.1093 119.508 36.3301 119.508C23.5524 119.508 13.1935 109.149 13.1935 96.3703C13.1935 83.5926 23.5524 73.2337 36.3301 73.2337C49.1093 73.2337 59.4681 83.5926 59.4681 96.3703V96.3703Z" fill="url(#paint19_linear)"/>
<path d="M13.4066 99.521C14.9438 110.809 24.6208 119.507 36.3301 119.507H115.705C127.414 119.507 137.091 110.809 138.628 99.521H13.4066Z" fill="url(#paint20_linear)"/>
<path d="M105.419 119.507L104.213 118.3C102.499 116.45 100.05 115.289 97.3281 115.289C97.2957 115.289 97.2649 115.292 97.2325 115.292C97.2134 115.275 97.1958 115.255 97.1767 115.238L90.984 109.045C88.2918 106.225 84.496 104.466 80.2887 104.466C72.118 104.466 65.4962 111.089 65.4962 119.258C65.4962 119.3 65.4977 119.339 65.4991 119.38C65.3228 119.416 65.1494 119.46 64.9774 119.508H105.419V119.507Z" fill="url(#paint21_linear)"/>
<path d="M65.4977 119.38C65.4977 119.339 65.4947 119.3 65.4947 119.258C65.4947 111.089 72.118 104.466 80.2887 104.466C87.2249 104.466 93.0429 109.241 94.6432 115.682C95.4941 115.427 96.3949 115.289 97.3281 115.289C102.508 115.289 106.71 119.489 106.71 124.671C106.71 129.851 102.508 134.052 97.3281 134.052C94.3317 134.052 69.0995 134.052 66.9834 134.052C62.8907 134.052 59.5739 130.734 59.5739 126.641C59.5739 123.057 62.1177 120.068 65.4977 119.38V119.38Z" fill="url(#paint22_radial)"/>
</g>
<defs>
<radialGradient id="paint0_radial" cx="0" cy="0" r="1" gradientUnits="userSpaceOnUse" gradientTransform="translate(41.7182 173.117) rotate(25.3095) scale(73.9781 51.5582)">
<stop stop-color="#00C6F6"/>
<stop offset="0.5169" stop-color="#00C4F6"/>
<stop offset="0.7031" stop-color="#02BDF7"/>
<stop offset="0.8359" stop-color="#05B2F9"/>
<stop offset="0.9424" stop-color="#0AA1FC"/>
<stop offset="1" stop-color="#0D94FE"/>
</radialGradient>
<radialGradient id="paint1_radial" cx="0" cy="0" r="1" gradientUnits="userSpaceOnUse" gradientTransform="translate(41.7182 173.117) rotate(25.3095) scale(73.9785 51.5585)">
<stop stop-color="#00C6F6"/>
<stop offset="0.5169" stop-color="#00C4F6"/>
<stop offset="0.7031" stop-color="#02BDF7"/>
<stop offset="0.8359" stop-color="#05B2F9"/>
<stop offset="0.9424" stop-color="#0AA1FC"/>
<stop offset="1" stop-color="#0D94FE"/>
</radialGradient>
<radialGradient id="paint2_radial" cx="0" cy="0" r="1" gradientUnits="userSpaceOnUse" gradientTransform="translate(41.7192 173.117) rotate(25.3095) scale(73.9794 51.5591)">
<stop stop-color="#00C6F6"/>
<stop offset="0.5169" stop-color="#00C4F6"/>
<stop offset="0.7031" stop-color="#02BDF7"/>
<stop offset="0.8359" stop-color="#05B2F9"/>
<stop offset="0.9424" stop-color="#0AA1FC"/>
<stop offset="1" stop-color="#0D94FE"/>
</radialGradient>
<radialGradient id="paint3_radial" cx="0" cy="0" r="1" gradientUnits="userSpaceOnUse" gradientTransform="translate(41.7179 164.172) rotate(25.3095) scale(73.9802 51.5596)">
<stop stop-color="#00C6F6"/>
<stop offset="0.5169" stop-color="#00C4F6"/>
<stop offset="0.7031" stop-color="#02BDF7"/>
<stop offset="0.8359" stop-color="#05B2F9"/>
<stop offset="0.9424" stop-color="#0AA1FC"/>
<stop offset="1" stop-color="#0D94FE"/>
</radialGradient>
<radialGradient id="paint4_radial" cx="0" cy="0" r="1" gradientUnits="userSpaceOnUse" gradientTransform="translate(41.7179 164.173) rotate(25.3095) scale(73.9799 51.5595)">
<stop stop-color="#00C6F6"/>
<stop offset="0.5169" stop-color="#00C4F6"/>
<stop offset="0.7031" stop-color="#02BDF7"/>
<stop offset="0.8359" stop-color="#05B2F9"/>
<stop offset="0.9424" stop-color="#0AA1FC"/>
<stop offset="1" stop-color="#0D94FE"/>
</radialGradient>
<radialGradient id="paint5_radial" cx="0" cy="0" r="1" gradientUnits="userSpaceOnUse" gradientTransform="translate(41.7183 164.172) rotate(25.3095) scale(73.9793 51.559)">
<stop stop-color="#00C6F6"/>
<stop offset="0.5169" stop-color="#00C4F6"/>
<stop offset="0.7031" stop-color="#02BDF7"/>
<stop offset="0.8359" stop-color="#05B2F9"/>
<stop offset="0.9424" stop-color="#0AA1FC"/>
<stop offset="1" stop-color="#0D94FE"/>
</radialGradient>
<radialGradient id="paint6_radial" cx="0" cy="0" r="1" gradientUnits="userSpaceOnUse" gradientTransform="translate(41.717 155.227) rotate(25.3095) scale(73.9791 51.5588)">
<stop stop-color="#00C6F6"/>
<stop offset="0.5169" stop-color="#00C4F6"/>
<stop offset="0.7031" stop-color="#02BDF7"/>
<stop offset="0.8359" stop-color="#05B2F9"/>
<stop offset="0.9424" stop-color="#0AA1FC"/>
<stop offset="1" stop-color="#0D94FE"/>
</radialGradient>
<radialGradient id="paint7_radial" cx="0" cy="0" r="1" gradientUnits="userSpaceOnUse" gradientTransform="translate(41.717 155.227) rotate(25.3095) scale(73.9799 51.5594)">
<stop stop-color="#00C6F6"/>
<stop offset="0.5169" stop-color="#00C4F6"/>
<stop offset="0.7031" stop-color="#02BDF7"/>
<stop offset="0.8359" stop-color="#05B2F9"/>
<stop offset="0.9424" stop-color="#0AA1FC"/>
<stop offset="1" stop-color="#0D94FE"/>
</radialGradient>
<radialGradient id="paint8_radial" cx="0" cy="0" r="1" gradientUnits="userSpaceOnUse" gradientTransform="translate(41.7172 146.282) rotate(25.3095) scale(73.9768 51.5573)">
<stop stop-color="#00C6F6"/>
<stop offset="0.5169" stop-color="#00C4F6"/>
<stop offset="0.7031" stop-color="#02BDF7"/>
<stop offset="0.8359" stop-color="#05B2F9"/>
<stop offset="0.9424" stop-color="#0AA1FC"/>
<stop offset="1" stop-color="#0D94FE"/>
</radialGradient>
<radialGradient id="paint9_radial" cx="0" cy="0" r="1" gradientUnits="userSpaceOnUse" gradientTransform="translate(41.7164 146.282) rotate(25.3095) scale(73.9791 51.5588)">
<stop stop-color="#00C6F6"/>
<stop offset="0.5169" stop-color="#00C4F6"/>
<stop offset="0.7031" stop-color="#02BDF7"/>
<stop offset="0.8359" stop-color="#05B2F9"/>
<stop offset="0.9424" stop-color="#0AA1FC"/>
<stop offset="1" stop-color="#0D94FE"/>
</radialGradient>
<radialGradient id="paint10_radial" cx="0" cy="0" r="1" gradientUnits="userSpaceOnUse" gradientTransform="translate(41.7162 146.282) rotate(25.3095) scale(73.9799 51.5594)">
<stop stop-color="#00C6F6"/>
<stop offset="0.5169" stop-color="#00C4F6"/>
<stop offset="0.7031" stop-color="#02BDF7"/>
<stop offset="0.8359" stop-color="#05B2F9"/>
<stop offset="0.9424" stop-color="#0AA1FC"/>
<stop offset="1" stop-color="#0D94FE"/>
</radialGradient>
<radialGradient id="paint11_radial" cx="0" cy="0" r="1" gradientUnits="userSpaceOnUse" gradientTransform="translate(41.7153 137.337) rotate(25.3095) scale(73.979 51.5588)">
<stop stop-color="#00C6F6"/>
<stop offset="0.5169" stop-color="#00C4F6"/>
<stop offset="0.7031" stop-color="#02BDF7"/>
<stop offset="0.8359" stop-color="#05B2F9"/>
<stop offset="0.9424" stop-color="#0AA1FC"/>
<stop offset="1" stop-color="#0D94FE"/>
</radialGradient>
<radialGradient id="paint12_radial" cx="0" cy="0" r="1" gradientUnits="userSpaceOnUse" gradientTransform="translate(41.7166 137.338) rotate(25.3095) scale(73.9785 51.5585)">
<stop stop-color="#00C6F6"/>
<stop offset="0.5169" stop-color="#00C4F6"/>
<stop offset="0.7031" stop-color="#02BDF7"/>
<stop offset="0.8359" stop-color="#05B2F9"/>
<stop offset="0.9424" stop-color="#0AA1FC"/>
<stop offset="1" stop-color="#0D94FE"/>
</radialGradient>
<radialGradient id="paint13_radial" cx="0" cy="0" r="1" gradientUnits="userSpaceOnUse" gradientTransform="translate(119.808 25.0362) scale(66.0616)">
<stop stop-color="#FFEBC9"/>
<stop offset="0.2771" stop-color="#FFE9C5"/>
<stop offset="0.5263" stop-color="#FEE2BB"/>
<stop offset="0.7641" stop-color="#FDD7A8"/>
<stop offset="0.9948" stop-color="#FBC78F"/>
<stop offset="1" stop-color="#FBC78E"/>
</radialGradient>
<linearGradient id="paint14_linear" x1="149.691" y1="132.711" x2="19.777" y2="2.79717" gradientUnits="userSpaceOnUse">
<stop stop-color="#E58200" stop-opacity="0"/>
<stop offset="0.0396" stop-color="#E27F04" stop-opacity="0.039216"/>
<stop offset="0.4671" stop-color="#C15D2F" stop-opacity="0.466667"/>
<stop offset="0.8016" stop-color="#AD4949" stop-opacity="0.8"/>
<stop offset="1" stop-color="#A64153"/>
</linearGradient>
<radialGradient id="paint15_radial" cx="0" cy="0" r="1" gradientUnits="userSpaceOnUse" gradientTransform="translate(54.7441 33.504) scale(95.3379)">
<stop stop-color="#CFCED3"/>
<stop offset="0.8111" stop-color="#A5ABBD"/>
<stop offset="1" stop-color="#9AA2B7"/>
</radialGradient>
<linearGradient id="paint16_linear" x1="115.445" y1="97.1536" x2="129.187" y2="55.694" gradientUnits="userSpaceOnUse">
<stop offset="0.0018" stop-color="#9AA2B7" stop-opacity="0"/>
<stop offset="0.3682" stop-color="#848A9C" stop-opacity="0.368627"/>
<stop offset="1" stop-color="#606572"/>
</linearGradient>
<linearGradient id="paint17_linear" x1="99.7242" y1="68.7904" x2="117.393" y2="42.5942" gradientUnits="userSpaceOnUse">
<stop offset="0.0018" stop-color="#9AA2B7" stop-opacity="0"/>
<stop offset="0.3682" stop-color="#848A9C" stop-opacity="0.368627"/>
<stop offset="1" stop-color="#606572"/>
</linearGradient>
<linearGradient id="paint18_linear" x1="63.734" y1="58.9278" x2="63.734" y2="24.9367" gradientUnits="userSpaceOnUse">
<stop offset="0.0018" stop-color="#9AA2B7" stop-opacity="0"/>
<stop offset="0.3682" stop-color="#848A9C" stop-opacity="0.368627"/>
<stop offset="1" stop-color="#606572"/>
</linearGradient>
<linearGradient id="paint19_linear" x1="36.7388" y1="96.7565" x2="8.84784" y2="70.3973" gradientUnits="userSpaceOnUse">
<stop offset="0.0018" stop-color="#9AA2B7" stop-opacity="0"/>
<stop offset="0.3682" stop-color="#848A9C" stop-opacity="0.368627"/>
<stop offset="1" stop-color="#606572"/>
</linearGradient>
<linearGradient id="paint20_linear" x1="76.0175" y1="102.739" x2="76.0175" y2="134.953" gradientUnits="userSpaceOnUse">
<stop offset="0.0018" stop-color="#9AA2B7" stop-opacity="0"/>
<stop offset="0.3682" stop-color="#848A9C" stop-opacity="0.368627"/>
<stop offset="1" stop-color="#606572"/>
</linearGradient>
<linearGradient id="paint21_linear" x1="99.914" y1="134.218" x2="66.1967" y2="100.501" gradientUnits="userSpaceOnUse">
<stop offset="0.0018" stop-color="#9AA2B7" stop-opacity="0"/>
<stop offset="0.3682" stop-color="#848A9C" stop-opacity="0.368627"/>
<stop offset="1" stop-color="#606572"/>
</linearGradient>
<radialGradient id="paint22_radial" cx="0" cy="0" r="1" gradientUnits="userSpaceOnUse" gradientTransform="translate(73.5043 103.029) scale(40.2152)">
<stop stop-color="#CFCED3"/>
<stop offset="0.8111" stop-color="#A5ABBD"/>
<stop offset="1" stop-color="#9AA2B7"/>
</radialGradient>
<clipPath id="clip0">
<rect width="174" height="174" fill="white"/>
</clipPath>
</defs>
</svg>
