<svg width="174" height="174" viewBox="0 0 174 174" fill="none" xmlns="http://www.w3.org/2000/svg">
<g clip-path="url(#clip0)">
<path d="M153.23 72.943C124.865 72.8739 101.676 49.6849 101.607 21.3199C101.588 13.9283 103.123 6.89779 105.899 0.531034C106.054 0.173933 105.616 -0.179186 105.054 0.100919C84.803 10.2299 72.0748 33.1959 77.6756 58.3456C81.5121 75.5728 98.9769 93.0389 116.205 96.8754C140.896 102.374 163.511 90.2206 173.883 70.5973C174.312 69.7861 173.49 68.8874 172.639 69.2286C166.643 71.6394 160.092 72.9602 153.23 72.943V72.943Z" fill="url(#paint0_radial)"/>
<path d="M73.3638 104.41C72.6589 106.878 75.7241 108.648 77.5096 106.804V106.803C85.0459 99.0127 98.2095 102.54 100.841 113.055C101.465 115.546 105.002 115.546 105.626 113.055C108.259 102.54 121.421 99.0127 128.957 106.803V106.804C130.743 108.648 133.808 106.878 133.102 104.41C132.118 100.964 132.513 97.6055 133.859 94.7593L110.913 71.8132C107.943 68.6657 103.736 66.697 99.0671 66.697C95.7589 66.697 92.6857 67.686 90.117 69.3799C90.0759 69.3401 86.165 65.4279 85.9367 65.2062C80.2854 59.3784 72.3761 55.7543 63.6172 55.7543C57.9274 55.7543 52.5961 57.2849 48.0082 59.9532C58.2354 62.7967 61.59 75.7374 53.8918 83.186C52.0465 84.9702 53.8161 88.0354 56.284 87.3305C66.7063 84.3516 76.3427 93.988 73.3638 104.41V104.41Z" fill="url(#paint1_linear)"/>
<path d="M115.353 86.8447C115.196 86.8447 115.042 86.8473 114.887 86.8513C115.19 85.6114 115.353 84.3171 115.353 82.9843C115.353 73.989 108.061 66.697 99.0671 66.697C95.5279 66.697 92.2569 67.8293 89.5847 69.7463C84.0237 61.3179 74.4709 55.7543 63.6171 55.7543C46.4471 55.7543 32.5267 69.6746 32.5267 86.846C32.5267 86.9509 32.5294 87.0557 32.5307 87.1606C21.6225 88.9753 13.3057 98.4538 13.3057 109.877C13.3057 122.599 23.6178 132.911 36.338 132.911H115.353C128.073 132.911 138.385 122.599 138.385 109.877C138.385 97.1581 128.073 86.8447 115.353 86.8447V86.8447Z" fill="url(#paint2_radial)"/>
<path d="M138.385 109.878C138.385 122.599 128.073 132.911 115.353 132.911C102.633 132.911 92.3207 122.599 92.3207 109.878C92.3207 97.1581 102.633 86.846 115.353 86.846C128.073 86.846 138.385 97.1581 138.385 109.878Z" fill="url(#paint3_linear)"/>
<path d="M115.353 82.9843C115.353 91.9782 108.061 99.2702 99.0671 99.2702C90.0719 99.2702 82.7798 91.9782 82.7798 82.9843C82.7798 73.989 90.0719 66.697 99.0671 66.697C108.061 66.697 115.353 73.989 115.353 82.9843V82.9843Z" fill="url(#paint4_linear)"/>
<path d="M94.7089 86.846C94.7089 104.016 80.7886 117.936 63.6185 117.936C46.4471 117.936 32.5268 104.016 32.5268 86.846C32.5268 69.6746 46.4471 55.7543 63.6185 55.7543C80.7886 55.7543 94.7089 69.6746 94.7089 86.846Z" fill="url(#paint5_linear)"/>
<path d="M59.3704 109.878C59.3704 122.599 49.0596 132.911 36.338 132.911C23.6178 132.911 13.3057 122.599 13.3057 109.878C13.3057 97.1581 23.6178 86.846 36.338 86.846C49.0596 86.846 59.3704 97.1581 59.3704 109.878Z" fill="url(#paint6_linear)"/>
<path d="M13.5194 113.015C15.05 124.251 24.6825 132.911 36.3381 132.911H115.353C127.009 132.911 136.641 124.251 138.172 113.015H13.5194Z" fill="url(#paint7_linear)"/>
<path d="M78.7973 132.911L77.5959 131.709C75.89 129.865 73.4514 128.711 70.7419 128.711C70.7101 128.711 70.6795 128.713 70.6477 128.714C70.6291 128.696 70.6105 128.677 70.5919 128.66L64.4269 122.495C61.7467 119.687 57.9686 117.936 53.7803 117.936C45.6466 117.936 39.0542 124.529 39.0542 132.663C39.0542 132.702 39.0568 132.742 39.0568 132.783C38.8816 132.818 38.709 132.862 38.5378 132.911H78.7973Z" fill="url(#paint8_linear)"/>
<path d="M59.1846 115.632C58.0111 115.632 57.0274 116.444 56.7619 117.535C56.6769 117.477 56.588 117.42 56.4951 117.372L52.3373 113.209C52.2205 112.994 52.0744 112.794 51.8926 112.613C50.9208 111.637 49.3411 111.637 48.3693 112.613L47.6246 113.356C47.6073 113.329 47.5914 113.302 47.5702 113.274C47.5463 113.24 47.5197 113.202 47.4919 113.169C47.4587 113.124 47.4241 113.08 47.387 113.039C47.3591 113.005 47.3246 112.97 47.2941 112.937C47.2569 112.898 47.2224 112.859 47.1812 112.82C47.148 112.79 47.1135 112.759 47.0763 112.725C47.0392 112.691 46.998 112.657 46.9569 112.622C46.9197 112.592 46.8785 112.565 46.84 112.537C46.8002 112.507 46.7591 112.476 46.7139 112.448C46.69 112.431 46.6661 112.418 46.6422 112.405C46.6356 112.394 46.6329 112.383 46.6263 112.377C46.5958 112.329 46.5639 112.281 46.5307 112.233C46.5068 112.2 46.479 112.162 46.4511 112.129C46.4179 112.083 46.3834 112.04 46.3462 111.998C46.3183 111.964 46.2851 111.931 46.2533 111.896C46.2161 111.859 46.1816 111.818 46.1418 111.783C46.1073 111.749 46.0727 111.718 46.0356 111.685C45.9984 111.651 45.9572 111.616 45.9187 111.586C45.8776 111.555 45.8378 111.524 45.7993 111.497C45.7594 111.466 45.7183 111.436 45.6732 111.408C45.632 111.381 45.5882 111.353 45.5444 111.327C45.4993 111.303 45.4581 111.279 45.4143 111.255C45.3665 111.227 45.3187 111.207 45.2709 111.183C45.2271 111.162 45.186 111.142 45.1408 111.125C45.0864 111.101 45.0359 111.084 44.9815 111.066C44.9364 111.051 44.8952 111.033 44.8514 111.019C44.793 111.003 44.7359 110.988 44.6735 110.975C44.6324 110.964 44.5926 110.955 44.5514 110.944C44.4824 110.931 44.4147 110.923 44.347 110.914C44.3085 110.91 44.2753 110.899 44.2408 110.897C44.1346 110.886 44.0257 110.883 43.9169 110.883C43.8107 110.883 43.7018 110.886 43.5956 110.897C43.5611 110.899 43.5279 110.91 43.4894 110.914C43.4217 110.923 43.354 110.931 43.285 110.944C43.2438 110.955 43.204 110.964 43.1628 110.975C43.1004 110.988 43.0434 111.003 42.9849 111.019C42.9411 111.033 42.896 111.051 42.8548 111.066C42.8004 111.084 42.746 111.101 42.6955 111.125C42.6504 111.142 42.6093 111.162 42.5654 111.183C42.5177 111.207 42.4659 111.227 42.4221 111.255C42.3783 111.279 42.3371 111.303 42.292 111.327C42.2482 111.353 42.2044 111.381 42.1632 111.408C42.1181 111.436 42.0769 111.466 42.0371 111.497C41.9959 111.524 41.9574 111.555 41.9176 111.586C41.8765 111.616 41.8393 111.651 41.8008 111.685C41.7636 111.718 41.7291 111.749 41.6959 111.783C41.6548 111.818 41.6203 111.859 41.5831 111.896C41.5526 111.931 41.518 111.964 41.4902 111.998C41.453 112.04 41.4185 112.083 41.3853 112.129C41.3574 112.162 41.3309 112.2 41.307 112.233C41.2724 112.281 41.2419 112.329 41.2114 112.377C41.1875 112.411 41.1676 112.448 41.1437 112.486C41.1158 112.537 41.0879 112.589 41.0614 112.64C41.0401 112.677 41.0242 112.715 41.0069 112.756C40.983 112.807 40.9592 112.861 40.9353 112.92C40.9207 112.957 40.9074 112.998 40.8941 113.035C40.8729 113.094 40.853 113.152 40.8397 113.209C40.8251 113.25 40.8158 113.291 40.8052 113.333C40.7919 113.391 40.7786 113.452 40.768 113.513C40.7614 113.554 40.7547 113.595 40.7467 113.637C40.7401 113.698 40.7295 113.763 40.7268 113.824C40.7268 113.837 40.7229 113.852 40.7229 113.865L40.5078 113.652L39.467 112.613C38.4953 111.637 36.9155 111.637 35.9438 112.613C34.9668 113.585 34.9668 115.165 35.9438 116.136L36.9832 117.177L40.7122 120.906V125.591C40.6684 125.543 40.6246 125.495 40.5768 125.451C40.4268 125.317 40.2596 125.206 40.075 125.126L37.4545 122.329C37.3085 122.196 37.1372 122.088 36.9527 122.008C36.8478 121.96 36.735 121.927 36.6182 121.903C36.5027 121.879 36.3832 121.868 36.2611 121.868C36.1376 121.868 36.0142 121.879 35.8987 121.903C35.673 121.579 35.3703 121.31 35.0185 121.121L30.8568 116.959C30.4359 116.171 29.6076 115.632 28.6518 115.632C27.2738 115.632 26.1587 116.747 26.1587 118.122V120.893L25.8202 120.552C25.698 120.429 25.5679 120.323 25.4286 120.23C25.0117 119.958 24.5338 119.821 24.0559 119.821C23.4187 119.821 22.7802 120.064 22.293 120.552C21.3199 121.525 21.3199 123.103 22.293 124.076L22.6341 124.417H19.8663C19.4508 124.417 19.0591 124.521 18.714 124.7C22.9395 129.719 29.2651 132.911 36.3381 132.911H38.5471C35.4393 133.779 33.1587 136.626 33.1587 140.012C33.1587 144.086 36.4615 147.389 40.537 147.389H70.7419C75.9007 147.389 80.081 143.208 80.081 138.05C80.081 137.139 79.9469 136.26 79.704 135.428C69.6932 125.321 61.3883 116.959 61.3883 116.959C60.9688 116.171 60.1391 115.632 59.1846 115.632V115.632Z" fill="url(#paint9_linear)"/>
<path d="M43.9182 173.47C42.1486 173.47 40.7136 172.035 40.7136 170.266V149.101C40.7136 147.332 42.1486 145.897 43.9182 145.897C45.6878 145.897 47.1228 147.332 47.1228 149.101V170.266C47.1228 172.035 45.6878 173.47 43.9182 173.47Z" fill="url(#paint10_linear)"/>
<path d="M43.9182 138.454C42.1486 138.454 40.7136 137.019 40.7136 135.25V114.087C40.7136 112.317 42.1486 110.882 43.9182 110.882C45.6878 110.882 47.1228 112.317 47.1228 114.087V135.25C47.1228 137.021 45.6878 138.454 43.9182 138.454Z" fill="url(#paint11_linear)"/>
<path d="M36.9925 145.381H15.8293C14.0584 145.381 12.6234 143.946 12.6234 142.176C12.6234 140.406 14.0584 138.971 15.8293 138.971H36.9925C38.7621 138.971 40.1972 140.406 40.1972 142.176C40.1972 143.946 38.7621 145.381 36.9925 145.381Z" fill="url(#paint12_linear)"/>
<path d="M72.007 145.381H50.8438C49.0742 145.381 47.6392 143.946 47.6392 142.176C47.6392 140.406 49.0742 138.971 50.8438 138.971H72.007C73.778 138.971 75.213 140.406 75.213 142.176C75.2117 143.946 73.7766 145.381 72.007 145.381Z" fill="url(#paint13_linear)"/>
<path d="M24.0559 164.53C23.4187 164.53 22.7801 164.287 22.2943 163.799C21.3199 162.826 21.3199 161.248 22.2943 160.275L37.258 145.311C38.2311 144.337 39.8095 144.337 40.7839 145.311C41.757 146.284 41.757 147.863 40.7839 148.836L25.8188 163.799C25.333 164.287 24.6944 164.53 24.0559 164.53Z" fill="url(#paint14_linear)"/>
<path d="M48.8154 139.771C48.1768 139.771 47.5396 139.528 47.0524 139.041C46.0794 138.067 46.0794 136.49 47.0524 135.515L62.0175 120.552C62.9906 119.579 64.569 119.579 65.5421 120.552C66.5165 121.525 66.5165 123.103 65.5421 124.077L50.5783 139.041C50.0911 139.528 49.4526 139.771 48.8154 139.771Z" fill="url(#paint15_linear)"/>
<path d="M39.021 139.771C38.3824 139.771 37.7439 139.528 37.258 139.041L22.2943 124.077C21.3199 123.103 21.3199 121.525 22.2943 120.552C23.2673 119.579 24.8458 119.579 25.8188 120.552L40.7826 135.515C41.757 136.49 41.757 138.067 40.7826 139.041C40.2967 139.528 39.6582 139.771 39.021 139.771Z" fill="url(#paint16_linear)"/>
<path d="M63.7791 164.53C63.1419 164.53 62.5034 164.287 62.0162 163.799L47.0524 148.836C46.0794 147.863 46.0794 146.284 47.0524 145.311C48.0255 144.337 49.6039 144.337 50.577 145.311L65.5421 160.275C66.5151 161.248 66.5151 162.826 65.5421 163.799C65.0549 164.287 64.4176 164.53 63.7791 164.53Z" fill="url(#paint17_linear)"/>
<path d="M47.1241 149.101V155.806L40.7122 149.396V149.101C40.7122 147.332 42.1486 145.897 43.9182 145.897C45.6877 145.897 47.1241 147.332 47.1241 149.101V149.101Z" fill="url(#paint18_linear)"/>
<path d="M40.7123 157.082H47.1242V164.189L40.7137 157.78L40.7123 157.781V157.082Z" fill="url(#paint19_linear)"/>
<path d="M51.1053 138.982L57.5053 145.381H50.8425C49.0729 145.381 47.6392 143.946 47.6392 142.176C47.6392 140.406 49.0729 138.971 50.8425 138.971H51.1438L51.1053 138.982Z" fill="url(#paint20_linear)"/>
<path d="M65.9377 145.381H58.5248V138.971H59.5271L65.9377 145.381Z" fill="url(#paint21_linear)"/>
<path d="M63.7791 164.53C63.1419 164.53 62.5034 164.287 62.0162 163.799L47.0524 148.836C46.0794 147.863 46.0794 146.284 47.0524 145.311C48.0255 144.337 49.6039 144.337 50.577 145.311L65.5421 160.275C66.5151 161.248 66.5151 162.826 65.5421 163.799C65.0549 164.287 64.4176 164.53 63.7791 164.53Z" fill="url(#paint22_linear)"/>
<path d="M47.1228 127.317V114.087C47.1228 114.012 47.1201 113.938 47.1148 113.865L43.9182 117.062L40.7215 113.865C40.7162 113.938 40.7136 114.012 40.7136 114.087V120.907L47.1228 127.317Z" fill="url(#paint23_linear)"/>
<path d="M65.2022 124.417L59.1859 130.434L57.4641 128.712C56.9876 128.258 56.6915 127.619 56.6915 126.91V125.878L61.6777 120.893L65.2022 124.417Z" fill="url(#paint24_linear)"/>
<path d="M48.368 112.612L43.9182 117.062L39.467 112.612C38.4939 111.637 36.9155 111.637 35.9425 112.612C34.9681 113.585 34.9681 115.163 35.9425 116.136L42.1552 122.349C42.6424 122.836 43.2796 123.079 43.9182 123.079C44.5567 123.079 45.1939 122.836 45.6811 122.349L51.8939 116.136C52.867 115.163 52.867 113.585 51.8939 112.612C50.9195 111.637 49.3424 111.637 48.368 112.612V112.612Z" fill="url(#paint25_linear)"/>
<path d="M45.6812 162.002C44.7068 161.028 43.1284 161.028 42.1553 162.002L35.9426 168.214C34.9695 169.189 34.9695 170.766 35.9426 171.74C36.9156 172.713 38.4941 172.713 39.4684 171.74L43.9183 167.29L48.3681 171.74C48.8553 172.227 49.4938 172.47 50.131 172.47C50.7696 172.47 51.4068 172.227 51.894 171.74C52.8671 170.767 52.8671 169.189 51.894 168.214L45.6812 162.002Z" fill="url(#paint26_linear)"/>
<path d="M69.0321 142.175L73.4832 137.726C74.4563 136.753 74.4563 135.174 73.4832 134.2C72.5089 133.227 70.9318 133.227 69.9574 134.2L63.7446 140.413C62.7715 141.387 62.7715 142.965 63.7446 143.938L69.9574 150.151C70.4446 150.638 71.0818 150.881 71.7203 150.881C72.3588 150.881 72.996 150.638 73.4832 150.151C74.4563 149.178 74.4563 147.6 73.4832 146.625L69.0321 142.175Z" fill="url(#paint27_linear)"/>
<path d="M24.0917 143.938C25.0648 142.965 25.0648 141.387 24.0917 140.414L17.879 134.201C16.9046 133.227 15.3275 133.227 14.3531 134.201C13.38 135.174 13.38 136.753 14.3531 137.726L18.8029 142.175L14.3531 146.627C13.38 147.6 13.38 149.178 14.3531 150.151C14.8403 150.638 15.4775 150.881 16.116 150.881C16.7546 150.881 17.3918 150.638 17.879 150.151L24.0917 143.938Z" fill="url(#paint28_linear)"/>
<path d="M59.1833 129.403H67.9701C69.3467 129.403 70.4632 128.287 70.4632 126.91C70.4632 125.534 69.3467 124.417 67.9701 124.417H61.6763V118.124C61.6763 116.747 60.5612 115.63 59.1833 115.63C57.8066 115.63 56.6902 116.747 56.6902 118.124V126.91C56.6915 128.287 57.8066 129.403 59.1833 129.403Z" fill="url(#paint29_linear)"/>
<path d="M28.6519 154.948H19.8664C18.4885 154.948 17.3734 156.065 17.3734 157.442C17.3734 158.818 18.4885 159.935 19.8664 159.935H26.1602V166.227C26.1602 167.605 27.2753 168.72 28.6519 168.72C30.0299 168.72 31.145 167.605 31.145 166.227V157.442C31.145 156.065 30.0299 154.948 28.6519 154.948Z" fill="url(#paint30_linear)"/>
<path d="M67.9701 154.948H59.1833C57.8067 154.948 56.6902 156.065 56.6902 157.442V166.227C56.6902 167.605 57.8067 168.72 59.1833 168.72C60.56 168.72 61.6764 167.605 61.6764 166.227V159.935H67.9701C69.3468 159.935 70.4632 158.818 70.4632 157.442C70.4632 156.065 69.3468 154.948 67.9701 154.948Z" fill="url(#paint31_linear)"/>
<path d="M28.6517 115.63C27.2751 115.63 26.16 116.747 26.16 118.124V124.417H19.8662C18.4883 124.417 17.3732 125.534 17.3732 126.91C17.3732 128.287 18.4883 129.403 19.8662 129.403H28.6517C30.0297 129.403 31.1448 128.287 31.1448 126.91V118.124C31.1448 116.747 30.0297 115.63 28.6517 115.63Z" fill="url(#paint32_linear)"/>
<path d="M47.1241 126.567V135.251C47.1241 135.318 47.1215 135.384 47.1175 135.45C47.0869 135.94 46.9476 136.398 46.7219 136.803L40.7122 130.793V126.567H47.1241Z" fill="url(#paint33_linear)"/>
<path d="M38.494 145.01C38.0453 145.246 37.5355 145.381 36.9925 145.381H28.3093V138.971H32.4538L38.494 145.01Z" fill="url(#paint34_linear)"/>
<path d="M56.7181 132.901L53.7683 135.85L50.5783 139.041C50.0911 139.527 49.4526 139.771 48.8154 139.771C48.1768 139.771 47.5396 139.527 47.0524 139.041C46.5891 138.578 46.3449 137.977 46.3236 137.367C46.2997 136.701 46.5427 136.025 47.0524 135.515L47.1175 135.45L50.2438 132.325L53.1922 129.376L56.7181 132.901Z" fill="url(#paint35_linear)"/>
<path d="M41.5127 137.367C41.4901 137.977 41.2459 138.578 40.7839 139.041C40.3193 139.505 39.7179 139.749 39.1099 139.77C39.0807 139.771 39.0502 139.771 39.0196 139.771C38.3824 139.771 37.7452 139.527 37.258 139.041L34.0667 135.85L31.1169 132.901L34.6442 129.376L37.5912 132.325L40.7189 135.45L40.7839 135.517C41.2937 136.025 41.5366 136.7 41.5127 137.367V137.367Z" fill="url(#paint36_linear)"/>
<path d="M43.9182 150.053C41.8141 150.053 39.8361 149.234 38.3479 147.746C36.8598 146.259 36.0407 144.28 36.0407 142.176C36.0407 140.071 36.8598 138.093 38.3479 136.605C39.8347 135.117 41.8141 134.298 43.9182 134.298C46.0223 134.298 48.0003 135.117 49.4884 136.605C50.9766 138.093 51.7957 140.071 51.7957 142.176C51.7957 144.28 50.9766 146.259 49.4884 147.746C48.0003 149.234 46.0223 150.053 43.9182 150.053ZM43.9182 138.468C42.9279 138.468 41.9973 138.854 41.2963 139.554C40.5954 140.255 40.2104 141.185 40.2104 142.176C40.2104 143.167 40.5954 144.098 41.2963 144.799C41.9973 145.498 42.9279 145.885 43.9182 145.885C44.9085 145.885 45.8391 145.498 46.54 144.799C47.2396 144.098 47.6259 143.167 47.6259 142.176C47.6259 141.185 47.241 140.255 46.54 139.554C45.8391 138.854 44.9085 138.468 43.9182 138.468Z" fill="url(#paint37_radial)"/>
<path d="M49.5203 157.784H38.3161C37.7638 157.784 37.2328 157.565 36.8425 157.174L28.9199 149.252C28.5296 148.861 28.3093 148.331 28.3093 147.778V136.573C28.3093 136.021 28.5296 135.491 28.9199 135.1L36.8425 127.177C37.2328 126.787 37.7638 126.567 38.3161 126.567H49.5203C50.0725 126.567 50.6035 126.787 50.9938 127.177L58.9164 135.1C59.3081 135.491 59.5271 136.021 59.5271 136.573V147.778C59.5271 148.331 59.3081 148.861 58.9164 149.252L50.9938 157.174C50.6035 157.565 50.0725 157.784 49.5203 157.784ZM39.1803 153.615H48.6561L55.3574 146.915V137.438L48.6561 130.736H39.1803L32.479 137.438V146.915L39.1803 153.615Z" fill="url(#paint38_linear)"/>
<path d="M38.0426 123.65C38.0426 124.635 37.2434 125.434 36.2597 125.434C35.2747 125.434 34.4756 124.635 34.4756 123.65C34.4756 122.665 35.2747 121.867 36.2597 121.867C37.2434 121.867 38.0426 122.665 38.0426 123.65Z" fill="url(#paint39_radial)"/>
<path d="M53.3701 123.65C53.3701 124.635 52.5709 125.434 51.5859 125.434C50.6009 125.434 49.803 124.635 49.803 123.65C49.803 122.665 50.6009 121.867 51.5859 121.867C52.5709 121.867 53.3701 122.665 53.3701 123.65Z" fill="url(#paint40_radial)"/>
<path d="M38.0427 160.701C38.0427 161.686 37.2435 162.485 36.2599 162.485C35.2748 162.485 34.4757 161.686 34.4757 160.701C34.4757 159.716 35.2748 158.918 36.2599 158.918C37.2435 158.918 38.0427 159.716 38.0427 160.701Z" fill="url(#paint41_radial)"/>
<path d="M53.3702 160.701C53.3702 161.686 52.571 162.485 51.586 162.485C50.601 162.485 49.8031 161.686 49.8031 160.701C49.8031 159.716 50.601 158.918 51.586 158.918C52.571 158.918 53.3702 159.716 53.3702 160.701Z" fill="url(#paint42_radial)"/>
<path d="M64.2318 134.512C64.2318 135.497 63.434 136.296 62.4489 136.296C61.4639 136.296 60.6648 135.497 60.6648 134.512C60.6648 133.527 61.4639 132.729 62.4489 132.729C63.434 132.729 64.2318 133.527 64.2318 134.512Z" fill="url(#paint43_radial)"/>
<path d="M64.2319 149.839C64.2319 150.824 63.434 151.623 62.449 151.623C61.464 151.623 60.6648 150.824 60.6648 149.839C60.6648 148.854 61.464 148.056 62.449 148.056C63.434 148.056 64.2319 148.854 64.2319 149.839Z" fill="url(#paint44_radial)"/>
<path d="M27.1809 134.512C27.1809 135.497 26.3817 136.296 25.398 136.296C24.413 136.296 23.6138 135.497 23.6138 134.512C23.6138 133.527 24.413 132.729 25.398 132.729C26.3817 132.729 27.1809 133.527 27.1809 134.512Z" fill="url(#paint45_radial)"/>
<path d="M27.181 149.839C27.181 150.824 26.3819 151.623 25.3982 151.623C24.4131 151.623 23.614 150.824 23.614 149.839C23.614 148.854 24.4131 148.056 25.3982 148.056C26.3819 148.056 27.181 148.854 27.181 149.839Z" fill="url(#paint46_radial)"/>
<path d="M75.2117 142.175C75.2117 140.48 73.8961 139.093 72.2288 138.979L73.4833 137.726C74.4563 136.753 74.4563 135.174 73.4833 134.2C72.5089 133.227 70.9318 133.227 69.9574 134.2L65.1876 138.971H59.5271V136.573C59.5271 136.021 59.3081 135.491 58.9164 135.1L56.7181 132.901L59.1859 130.434L60.2174 129.403H67.9714C69.3481 129.403 70.4632 128.287 70.4632 126.91C70.4632 125.534 69.3481 124.417 67.9714 124.417H65.2022L65.5421 124.077C66.5165 123.103 66.5165 121.525 65.5434 120.552C64.569 119.579 62.9906 119.579 62.0175 120.552L61.6777 120.891V118.124C61.6777 116.747 60.5612 115.631 59.1846 115.631C57.8066 115.631 56.6915 116.747 56.6915 118.124V125.878L53.1922 129.376L50.9938 127.177C50.6035 126.787 50.0725 126.567 49.5203 126.567H47.1228V120.907L51.8939 116.138C52.867 115.163 52.867 113.585 51.8939 112.612C50.9195 111.639 49.3424 111.639 48.368 112.612L47.1148 113.865C47.0007 112.199 45.6134 110.882 43.9182 110.882C42.2229 110.882 40.8357 112.199 40.7215 113.865L39.4684 112.612C38.494 111.639 36.9169 111.639 35.9425 112.612C34.9694 113.585 34.9694 115.163 35.9425 116.138L40.7136 120.907V126.567H38.3161C37.7638 126.567 37.2341 126.787 36.8425 127.177L34.6442 129.376L31.1448 125.878V118.124C31.1448 116.747 30.0297 115.631 28.6518 115.631C27.2751 115.631 26.16 116.747 26.16 118.124V120.891L25.8188 120.552C24.8458 119.579 23.2674 119.579 22.2943 120.552C21.3199 121.525 21.3199 123.103 22.2943 124.077L22.6341 124.417H19.8663C18.4883 124.417 17.3732 125.534 17.3732 126.91C17.3732 128.287 18.4883 129.403 19.8663 129.403H27.619L31.1183 132.901L28.9199 135.1C28.5283 135.491 28.3093 136.021 28.3093 136.573V138.971H22.6487L17.879 134.2C16.9046 133.227 15.3275 133.227 14.3531 134.2C13.38 135.174 13.38 136.753 14.3531 137.726L15.6076 138.979C13.9402 139.093 12.6234 140.48 12.6234 142.175C12.6234 143.872 13.9402 145.258 15.6076 145.372L14.3531 146.627C13.38 147.6 13.38 149.178 14.3531 150.151C14.8403 150.638 15.4775 150.881 16.116 150.881C16.7546 150.881 17.3918 150.638 17.879 150.151L22.6501 145.381H28.3093V147.778C28.3093 148.331 28.5283 148.861 28.9199 149.252L31.1183 151.451L27.6203 154.949H19.8663C18.4883 154.949 17.3732 156.065 17.3732 157.442C17.3732 158.819 18.4883 159.935 19.8663 159.935H22.6341L22.2943 160.275C21.3199 161.248 21.3199 162.826 22.2943 163.799C22.7815 164.287 23.4187 164.53 24.0559 164.53C24.6944 164.53 25.333 164.287 25.8188 163.799L26.16 163.46V166.227C26.16 167.605 27.2751 168.72 28.6518 168.72C30.0297 168.72 31.1448 167.605 31.1448 166.227V158.475L34.6428 154.975L36.8412 157.174C37.2328 157.565 37.7638 157.784 38.3161 157.784H40.7122V163.445L35.9425 168.215C34.9681 169.189 34.9681 170.766 35.9425 171.741C36.9155 172.714 38.494 172.714 39.467 171.741L40.7215 170.487C40.8357 172.153 42.2216 173.47 43.9182 173.47C45.6134 173.47 47.0007 172.153 47.1148 170.487L48.368 171.741C48.8552 172.228 49.4924 172.471 50.131 172.471C50.7682 172.471 51.4067 172.228 51.8939 171.741C52.867 170.768 52.867 169.189 51.8939 168.215L47.1228 163.445V157.784H49.519C50.0725 157.784 50.6022 157.565 50.9938 157.174L53.1922 154.975L56.6902 158.475V166.227C56.6902 167.605 57.8066 168.72 59.1833 168.72C60.5599 168.72 61.6763 167.605 61.6763 166.227V163.46L62.0162 163.801C62.5034 164.287 63.1419 164.531 63.7791 164.531C64.4177 164.531 65.0549 164.287 65.5421 163.801C66.5151 162.826 66.5151 161.248 65.5421 160.275L65.2022 159.935H67.9701C69.3467 159.935 70.4632 158.819 70.4632 157.442C70.4632 156.065 69.3467 154.949 67.9701 154.949H60.2161L56.7181 151.451L58.9164 149.252C59.3067 148.861 59.5271 148.331 59.5271 147.778V145.381H65.1876L69.9574 150.151C70.4446 150.638 71.0818 150.881 71.7203 150.881C72.3575 150.881 72.9961 150.638 73.4819 150.151C74.4563 149.178 74.4563 147.6 73.4819 146.627L72.2288 145.372C73.8961 145.258 75.2117 143.871 75.2117 142.175ZM39.1803 130.736H40.7122V134.976C40.606 135.024 40.4998 135.075 40.395 135.128L37.5912 132.324L39.1803 130.736ZM32.479 137.438L34.0667 135.85L36.0991 137.884L36.8704 138.654C36.8173 138.758 36.7669 138.863 36.7191 138.971H32.479V137.438ZM34.0667 148.502L32.479 146.915V145.381H36.7191C36.7669 145.488 36.8173 145.594 36.8704 145.699L34.0667 148.502ZM40.7136 153.615H39.1803L37.5926 152.027L40.395 149.225C40.4998 149.276 40.606 149.327 40.7122 149.375V153.615H40.7136ZM46.54 144.797C45.8391 145.498 44.9085 145.883 43.9182 145.883C42.9279 145.883 41.9973 145.498 41.2963 144.797C40.5954 144.098 40.2104 143.166 40.2104 142.175C40.2104 141.185 40.5954 140.255 41.2963 139.554C41.9973 138.854 42.9279 138.468 43.9182 138.468C44.9085 138.468 45.8391 138.854 46.54 139.554C47.2396 140.255 47.6259 141.185 47.6259 142.175C47.6259 143.166 47.2396 144.098 46.54 144.797ZM48.6561 153.615H47.1241V149.375C47.2303 149.327 47.3365 149.276 47.4414 149.225L50.2438 152.027L48.6561 153.615ZM48.2419 134.326L47.4401 135.128C47.3352 135.075 47.2303 135.025 47.1241 134.978V130.736H48.6561L50.2438 132.324L48.2419 134.326ZM55.3574 146.915L53.7697 148.502L50.966 145.699C51.0191 145.594 51.0682 145.488 51.116 145.381H55.3574V146.915ZM55.3574 138.971H51.1425H51.1438H51.116C51.0682 138.863 51.0191 138.758 50.966 138.654L53.7697 135.85L55.3574 137.438V138.971Z" fill="url(#paint47_linear)"/>
<path d="M38.0426 123.65C38.0426 124.635 37.2434 125.434 36.2597 125.434C35.2747 125.434 34.4756 124.635 34.4756 123.65C34.4756 122.665 35.2747 121.867 36.2597 121.867C37.2434 121.867 38.0426 122.665 38.0426 123.65Z" fill="url(#paint48_linear)"/>
<path d="M53.3701 123.65C53.3701 124.635 52.5709 125.434 51.5859 125.434C50.6009 125.434 49.803 124.635 49.803 123.65C49.803 122.665 50.6009 121.867 51.5859 121.867C52.5709 121.867 53.3701 122.665 53.3701 123.65Z" fill="url(#paint49_linear)"/>
<path d="M38.0427 160.701C38.0427 161.686 37.2435 162.485 36.2599 162.485C35.2748 162.485 34.4757 161.686 34.4757 160.701C34.4757 159.716 35.2748 158.918 36.2599 158.918C37.2435 158.918 38.0427 159.716 38.0427 160.701Z" fill="url(#paint50_linear)"/>
<path d="M53.3702 160.701C53.3702 161.686 52.571 162.485 51.586 162.485C50.601 162.485 49.8031 161.686 49.8031 160.701C49.8031 159.716 50.601 158.918 51.586 158.918C52.571 158.918 53.3702 159.716 53.3702 160.701Z" fill="url(#paint51_linear)"/>
<path d="M64.2318 134.512C64.2318 135.497 63.434 136.296 62.4489 136.296C61.4639 136.296 60.6648 135.497 60.6648 134.512C60.6648 133.527 61.4639 132.729 62.4489 132.729C63.434 132.729 64.2318 133.527 64.2318 134.512Z" fill="url(#paint52_linear)"/>
<path d="M64.2319 149.839C64.2319 150.824 63.434 151.623 62.449 151.623C61.464 151.623 60.6648 150.824 60.6648 149.839C60.6648 148.854 61.464 148.056 62.449 148.056C63.434 148.056 64.2319 148.854 64.2319 149.839Z" fill="url(#paint53_linear)"/>
<path d="M27.1809 134.512C27.1809 135.497 26.3817 136.296 25.398 136.296C24.413 136.296 23.6138 135.497 23.6138 134.512C23.6138 133.527 24.413 132.729 25.398 132.729C26.3817 132.729 27.1809 133.527 27.1809 134.512Z" fill="url(#paint54_linear)"/>
<path d="M27.181 149.839C27.181 150.824 26.3819 151.623 25.3982 151.623C24.4131 151.623 23.614 150.824 23.614 149.839C23.614 148.854 24.4131 148.056 25.3982 148.056C26.3819 148.056 27.181 148.854 27.181 149.839Z" fill="url(#paint55_linear)"/>
<path d="M123.635 172.894C122.547 172.894 121.665 172.011 121.665 170.924V157.915C121.665 156.827 122.547 155.945 123.635 155.945C124.724 155.945 125.605 156.827 125.605 157.915V170.924C125.605 172.011 124.724 172.894 123.635 172.894V172.894Z" fill="url(#paint56_linear)"/>
<path d="M123.635 151.371C122.547 151.371 121.665 150.49 121.665 149.401V136.393C121.665 135.304 122.547 134.423 123.635 134.423C124.724 134.423 125.605 135.304 125.605 136.393V149.401C125.605 150.49 124.724 151.371 123.635 151.371V151.371Z" fill="url(#paint57_linear)"/>
<path d="M119.378 155.628H106.37C105.282 155.628 104.4 154.745 104.4 153.658C104.4 152.57 105.282 151.688 106.37 151.688H119.378C120.467 151.688 121.348 152.57 121.348 153.658C121.348 154.745 120.467 155.628 119.378 155.628V155.628Z" fill="url(#paint58_linear)"/>
<path d="M140.901 155.628H127.893C126.804 155.628 125.923 154.745 125.923 153.658C125.923 152.57 126.804 151.688 127.893 151.688H140.901C141.99 151.688 142.871 152.57 142.871 153.658C142.871 154.745 141.99 155.628 140.901 155.628V155.628Z" fill="url(#paint59_linear)"/>
<path d="M111.428 167.398C111.036 167.398 110.643 167.248 110.344 166.949C109.746 166.351 109.746 165.38 110.344 164.783L119.541 155.584C120.14 154.986 121.11 154.986 121.709 155.584C122.308 156.183 122.308 157.154 121.709 157.751L112.511 166.949C112.212 167.248 111.819 167.398 111.428 167.398V167.398Z" fill="url(#paint60_linear)"/>
<path d="M126.646 152.18C126.253 152.18 125.862 152.031 125.563 151.731C124.964 151.134 124.964 150.163 125.563 149.564L134.76 140.367C135.359 139.769 136.329 139.769 136.927 140.367C137.525 140.965 137.525 141.935 136.927 142.534L127.729 151.732C127.429 152.031 127.038 152.18 126.646 152.18V152.18Z" fill="url(#paint61_linear)"/>
<path d="M120.626 152.18C120.233 152.18 119.841 152.031 119.541 151.731L110.344 142.534C109.746 141.935 109.746 140.965 110.344 140.366C110.943 139.769 111.912 139.769 112.511 140.366L121.709 149.564C122.308 150.163 122.308 151.132 121.709 151.731C121.409 152.031 121.018 152.18 120.626 152.18V152.18Z" fill="url(#paint62_linear)"/>
<path d="M135.843 167.398C135.452 167.398 135.059 167.248 134.76 166.949L125.563 157.751C124.964 157.154 124.964 156.183 125.563 155.584C126.16 154.986 127.131 154.986 127.729 155.584L136.928 164.783C137.525 165.38 137.525 166.351 136.928 166.949C136.628 167.248 136.236 167.398 135.843 167.398Z" fill="url(#paint63_linear)"/>
<path d="M125.605 157.914V162.036L121.665 158.096V157.914C121.665 156.827 122.548 155.945 123.635 155.945C124.724 155.945 125.605 156.827 125.605 157.914Z" fill="url(#paint64_linear)"/>
<path d="M121.665 162.819H125.605V167.188L121.665 163.249V162.819Z" fill="url(#paint65_linear)"/>
<path d="M128.053 151.695L131.987 155.628H127.893C126.804 155.628 125.923 154.745 125.923 153.658C125.923 152.57 126.804 151.688 127.893 151.688H128.077L128.053 151.695Z" fill="url(#paint66_linear)"/>
<path d="M137.171 155.628H132.613V151.688H133.229L137.171 155.628Z" fill="url(#paint67_linear)"/>
<path d="M135.843 167.398C135.452 167.398 135.059 167.248 134.76 166.949L125.563 157.751C124.964 157.154 124.964 156.183 125.563 155.584C126.16 154.986 127.131 154.986 127.729 155.584L136.928 164.783C137.525 165.38 137.525 166.351 136.928 166.949C136.628 167.248 136.236 167.398 135.843 167.398Z" fill="url(#paint68_linear)"/>
<path d="M125.605 144.525V136.393C125.605 136.346 125.604 136.301 125.6 136.256L123.635 138.221L121.671 136.256C121.668 136.301 121.665 136.346 121.665 136.393V140.585L125.605 144.525Z" fill="url(#paint69_linear)"/>
<path d="M136.718 142.742L133.02 146.441L131.962 145.383C131.67 145.103 131.486 144.711 131.486 144.274V143.64L134.552 140.576L136.718 142.742Z" fill="url(#paint70_linear)"/>
<path d="M126.371 135.486L123.635 138.221L120.901 135.486C120.302 134.887 119.332 134.887 118.733 135.486C118.134 136.085 118.134 137.054 118.733 137.653L122.552 141.472C122.851 141.771 123.242 141.921 123.635 141.921C124.027 141.921 124.42 141.771 124.719 141.472L128.538 137.653C129.135 137.054 129.135 136.085 128.538 135.486C127.939 134.887 126.969 134.887 126.371 135.486V135.486Z" fill="url(#paint71_linear)"/>
<path d="M124.719 165.845C124.12 165.246 123.151 165.246 122.552 165.845L118.733 169.663C118.135 170.261 118.135 171.232 118.733 171.83C119.332 172.429 120.302 172.429 120.901 171.83L123.635 169.094L126.371 171.83C126.67 172.129 127.063 172.279 127.455 172.279C127.846 172.279 128.239 172.129 128.538 171.83C129.137 171.232 129.137 170.261 128.538 169.663L124.719 165.845Z" fill="url(#paint72_linear)"/>
<path d="M139.072 153.658L141.808 150.922C142.406 150.323 142.406 149.354 141.808 148.756C141.209 148.157 140.24 148.157 139.641 148.756L135.822 152.574C135.223 153.172 135.223 154.143 135.822 154.741L139.641 158.561C139.94 158.859 140.333 159.009 140.724 159.009C141.116 159.009 141.509 158.859 141.808 158.561C142.406 157.962 142.406 156.992 141.808 156.393L139.072 153.658Z" fill="url(#paint73_linear)"/>
<path d="M111.449 154.741C112.048 154.143 112.048 153.172 111.449 152.574L107.631 148.756C107.032 148.157 106.062 148.157 105.463 148.756C104.866 149.354 104.866 150.323 105.463 150.922L108.199 153.658L105.463 156.393C104.866 156.992 104.866 157.962 105.463 158.561C105.763 158.859 106.155 159.009 106.548 159.009C106.939 159.009 107.331 158.859 107.631 158.561L111.449 154.741Z" fill="url(#paint74_linear)"/>
<path d="M133.018 145.808H138.42C139.266 145.808 139.952 145.121 139.952 144.274C139.952 143.429 139.266 142.742 138.42 142.742H134.552V138.874C134.552 138.028 133.865 137.342 133.02 137.342C132.173 137.342 131.486 138.028 131.486 138.874V144.276C131.486 145.121 132.173 145.808 133.018 145.808V145.808Z" fill="url(#paint75_linear)"/>
<path d="M114.252 161.509H108.851C108.005 161.509 107.319 162.195 107.319 163.041C107.319 163.887 108.005 164.573 108.851 164.573H112.719V168.441C112.719 169.288 113.406 169.975 114.252 169.975C115.098 169.975 115.784 169.288 115.784 168.441V163.041C115.784 162.194 115.098 161.509 114.252 161.509Z" fill="url(#paint76_linear)"/>
<path d="M138.42 161.509H133.018C132.173 161.509 131.486 162.195 131.486 163.041V168.441C131.486 169.288 132.173 169.975 133.018 169.975C133.865 169.975 134.551 169.288 134.551 168.441V164.573H138.418C139.265 164.573 139.952 163.887 139.952 163.041C139.952 162.194 139.265 161.509 138.42 161.509V161.509Z" fill="url(#paint77_linear)"/>
<path d="M114.253 137.342C113.406 137.342 112.721 138.028 112.721 138.874V142.742H108.852C108.005 142.742 107.32 143.429 107.32 144.274C107.32 145.121 108.005 145.808 108.852 145.808H114.253C115.098 145.808 115.784 145.121 115.784 144.274V138.874C115.784 138.028 115.098 137.342 114.253 137.342Z" fill="url(#paint78_linear)"/>
<path d="M125.605 144.063V149.401C125.605 149.442 125.604 149.483 125.603 149.525C125.583 149.826 125.498 150.107 125.36 150.356L121.665 146.661V144.063H125.605Z" fill="url(#paint79_linear)"/>
<path d="M120.302 155.4C120.026 155.545 119.713 155.628 119.379 155.628H114.041V151.687H116.589L120.302 155.4Z" fill="url(#paint80_linear)"/>
<path d="M131.504 147.958L129.69 149.769L127.729 151.731C127.429 152.031 127.038 152.18 126.646 152.18C126.253 152.18 125.862 152.03 125.562 151.731C125.278 151.447 125.128 151.076 125.114 150.702C125.1 150.292 125.248 149.878 125.562 149.564L129.336 145.79L131.504 147.958Z" fill="url(#paint81_linear)"/>
<path d="M122.157 150.702C122.143 151.076 121.993 151.447 121.709 151.731C121.424 152.015 121.055 152.166 120.68 152.18C120.662 152.18 120.643 152.18 120.625 152.18C120.233 152.18 119.841 152.03 119.541 151.731L119.502 151.691L117.581 149.769L115.769 147.958L117.935 145.79L119.747 147.604L121.669 149.525L121.709 149.564C122.022 149.878 122.171 150.292 122.157 150.702V150.702Z" fill="url(#paint82_linear)"/>
<path d="M123.635 158.5C122.342 158.5 121.126 157.996 120.212 157.082C119.297 156.167 118.793 154.951 118.793 153.658C118.793 152.364 119.297 151.148 120.212 150.233C121.126 149.318 122.342 148.815 123.635 148.815C124.928 148.815 126.144 149.32 127.059 150.233C127.974 151.148 128.478 152.364 128.478 153.658C128.478 154.951 127.974 156.167 127.059 157.082C126.144 157.996 124.928 158.5 123.635 158.5V158.5ZM123.635 151.379C123.026 151.379 122.454 151.616 122.024 152.047C121.594 152.477 121.356 153.049 121.356 153.658C121.356 154.266 121.594 154.838 122.024 155.27C122.454 155.7 123.026 155.937 123.635 155.937C124.245 155.937 124.817 155.7 125.247 155.27C125.677 154.838 125.915 154.266 125.915 153.658C125.915 153.049 125.677 152.477 125.247 152.047C124.817 151.616 124.245 151.379 123.635 151.379Z" fill="url(#paint83_radial)"/>
<path d="M127.079 163.252H120.192C119.852 163.252 119.527 163.117 119.286 162.877L114.417 158.007C114.177 157.767 114.041 157.442 114.041 157.102V150.215C114.041 149.875 114.177 149.549 114.417 149.308L119.286 144.439C119.527 144.199 119.852 144.065 120.192 144.065H127.079C127.419 144.065 127.745 144.199 127.986 144.439L132.854 149.308C133.095 149.55 133.229 149.875 133.229 150.215V157.102C133.229 157.442 133.095 157.767 132.854 158.007L127.986 162.877C127.744 163.117 127.419 163.252 127.079 163.252V163.252ZM120.723 160.689H126.548L130.667 156.57V150.746L126.548 146.627H120.723L116.605 150.746V156.571L120.723 160.689Z" fill="url(#paint84_linear)"/>
<path d="M120.025 142.271C120.025 142.876 119.533 143.368 118.928 143.368C118.323 143.368 117.832 142.876 117.832 142.271C117.832 141.666 118.323 141.175 118.928 141.175C119.533 141.175 120.025 141.666 120.025 142.271Z" fill="url(#paint85_radial)"/>
<path d="M129.445 142.271C129.445 142.876 128.955 143.368 128.349 143.368C127.744 143.368 127.253 142.876 127.253 142.271C127.253 141.666 127.744 141.175 128.349 141.175C128.955 141.175 129.445 141.666 129.445 142.271Z" fill="url(#paint86_radial)"/>
<path d="M120.023 165.044C120.023 165.65 119.533 166.141 118.928 166.141C118.323 166.141 117.831 165.65 117.831 165.044C117.831 164.439 118.323 163.949 118.928 163.949C119.533 163.949 120.023 164.439 120.023 165.044Z" fill="url(#paint87_radial)"/>
<path d="M129.445 165.044C129.445 165.65 128.955 166.141 128.349 166.141C127.744 166.141 127.253 165.65 127.253 165.044C127.253 164.439 127.744 163.948 128.349 163.948C128.955 163.948 129.445 164.439 129.445 165.044Z" fill="url(#paint88_radial)"/>
<path d="M136.122 148.947C136.122 149.552 135.631 150.043 135.025 150.043C134.42 150.043 133.929 149.552 133.929 148.947C133.929 148.341 134.42 147.85 135.025 147.85C135.631 147.85 136.122 148.341 136.122 148.947Z" fill="url(#paint89_radial)"/>
<path d="M136.122 158.368C136.122 158.974 135.631 159.465 135.025 159.465C134.42 159.465 133.929 158.974 133.929 158.368C133.929 157.763 134.42 157.272 135.025 157.272C135.631 157.272 136.122 157.763 136.122 158.368Z" fill="url(#paint90_radial)"/>
<path d="M113.348 148.947C113.348 149.552 112.857 150.043 112.252 150.043C111.647 150.043 111.155 149.552 111.155 148.947C111.155 148.341 111.647 147.85 112.252 147.85C112.857 147.85 113.348 148.341 113.348 148.947Z" fill="url(#paint91_radial)"/>
<path d="M113.348 158.368C113.348 158.974 112.857 159.465 112.252 159.465C111.647 159.465 111.155 158.974 111.155 158.368C111.155 157.763 111.647 157.272 112.252 157.272C112.857 157.272 113.348 157.763 113.348 158.368Z" fill="url(#paint92_radial)"/>
<path d="M142.871 153.658C142.871 152.616 142.061 151.764 141.038 151.694L141.808 150.922C142.406 150.324 142.406 149.355 141.808 148.756C141.209 148.157 140.24 148.157 139.641 148.756L136.709 151.688H133.229V150.215C133.229 149.875 133.095 149.548 132.854 149.308L131.502 147.958L133.653 145.808H138.419C139.266 145.808 139.952 145.121 139.952 144.276C139.952 143.429 139.266 142.744 138.419 142.744H136.718L136.926 142.534C137.525 141.935 137.525 140.965 136.926 140.367C136.329 139.769 135.359 139.769 134.76 140.367L134.552 140.576V138.874C134.552 138.028 133.865 137.342 133.018 137.342C132.173 137.342 131.486 138.028 131.486 138.874V143.641L129.336 145.79L127.986 144.439C127.745 144.199 127.419 144.065 127.079 144.065H125.605V140.585L128.538 137.653C129.137 137.055 129.137 136.085 128.538 135.486C127.939 134.887 126.969 134.887 126.371 135.486L125.601 136.256C125.531 135.233 124.678 134.423 123.635 134.423C122.593 134.423 121.741 135.233 121.671 136.256L120.901 135.486C120.302 134.887 119.332 134.887 118.734 135.486C118.136 136.085 118.136 137.055 118.734 137.653L121.667 140.585V144.065H120.193C119.853 144.065 119.527 144.199 119.286 144.439L117.935 145.79L115.785 143.641V138.874C115.785 138.028 115.1 137.342 114.253 137.342C113.406 137.342 112.721 138.028 112.721 138.874V140.576L112.511 140.367C111.913 139.769 110.943 139.769 110.344 140.367C109.746 140.965 109.746 141.935 110.344 142.534L110.554 142.744H108.852C108.007 142.744 107.32 143.429 107.32 144.276C107.32 145.121 108.007 145.808 108.852 145.808H113.618L115.769 147.958L114.417 149.31C114.177 149.55 114.041 149.875 114.041 150.215V151.688H110.563L107.631 148.756C107.032 148.157 106.062 148.157 105.464 148.756C104.866 149.355 104.866 150.325 105.464 150.922L106.234 151.694C105.21 151.764 104.401 152.616 104.401 153.658C104.401 154.701 105.21 155.553 106.234 155.623L105.464 156.394C104.866 156.992 104.866 157.962 105.464 158.561C105.763 158.86 106.155 159.01 106.548 159.01C106.939 159.01 107.332 158.86 107.631 158.561L110.563 155.629H114.041V157.102C114.041 157.442 114.177 157.768 114.417 158.009L115.769 159.359L113.618 161.509H108.852C108.007 161.509 107.32 162.196 107.32 163.041C107.32 163.888 108.007 164.575 108.852 164.575H110.554L110.344 164.783C109.746 165.382 109.746 166.352 110.344 166.951C110.644 167.25 111.036 167.4 111.428 167.4C111.819 167.4 112.212 167.25 112.511 166.951L112.721 166.741V168.443C112.721 169.289 113.407 169.975 114.253 169.975C115.098 169.975 115.785 169.289 115.785 168.443V163.677L117.935 161.527L119.286 162.878C119.527 163.118 119.853 163.254 120.193 163.254H121.667V166.732L118.734 169.664C118.136 170.263 118.136 171.232 118.734 171.831C119.332 172.43 120.302 172.43 120.901 171.831L121.671 171.061C121.741 172.084 122.593 172.894 123.635 172.894C124.679 172.894 125.531 172.084 125.601 171.061L126.371 171.831C126.67 172.131 127.063 172.28 127.455 172.28C127.846 172.28 128.239 172.131 128.538 171.831C129.137 171.232 129.137 170.263 128.538 169.664L125.607 166.732V163.252H127.079C127.419 163.252 127.745 163.118 127.986 162.877L129.337 161.525L131.486 163.676V168.442C131.486 169.289 132.173 169.975 133.02 169.975C133.865 169.975 134.552 169.289 134.552 168.442V166.741L134.76 166.95C135.06 167.25 135.452 167.398 135.845 167.398C136.236 167.398 136.628 167.248 136.928 166.95C137.525 166.352 137.525 165.382 136.928 164.783L136.718 164.573H138.42C139.266 164.573 139.952 163.887 139.952 163.041C139.952 162.196 139.266 161.509 138.42 161.509H133.654L131.504 159.359L132.855 158.007C133.095 157.767 133.231 157.442 133.231 157.102V155.629H136.709L139.641 158.561C139.94 158.86 140.333 159.01 140.725 159.01C141.117 159.01 141.509 158.86 141.809 158.561C142.406 157.962 142.406 156.992 141.809 156.393L141.038 155.623C142.061 155.553 142.871 154.701 142.871 153.658V153.658ZM120.723 146.627H121.665V149.234C121.599 149.263 121.535 149.294 121.47 149.325L119.747 147.602L120.723 146.627ZM116.605 150.746L117.581 149.77L119.304 151.493C119.271 151.558 119.24 151.622 119.211 151.688H116.604V150.746H116.605ZM117.581 157.547L116.605 156.571V155.629H119.211C119.24 155.695 119.271 155.759 119.304 155.824L117.581 157.547ZM121.665 160.689H120.723L119.747 159.713L121.47 157.99C121.535 158.022 121.599 158.054 121.665 158.083V160.689ZM125.247 155.27C124.817 155.7 124.245 155.938 123.635 155.938C123.026 155.938 122.454 155.7 122.024 155.27C121.594 154.839 121.356 154.266 121.356 153.658C121.356 153.049 121.594 152.477 122.024 152.047C122.454 151.617 123.026 151.379 123.635 151.379C124.245 151.379 124.817 151.617 125.247 152.047C125.677 152.477 125.915 153.049 125.915 153.658C125.915 154.266 125.677 154.839 125.247 155.27ZM126.548 160.689H125.605V158.083C125.672 158.053 125.737 158.022 125.801 157.99L127.524 159.713L126.548 160.689ZM126.293 148.833L125.801 149.325C125.737 149.294 125.672 149.263 125.605 149.234V146.627H126.548L127.524 147.602L126.293 148.833ZM130.667 156.571L129.69 157.547L127.967 155.824C128 155.76 128.031 155.695 128.06 155.629H130.667V156.571ZM130.667 151.688H128.076H128.077H128.06C128.031 151.622 128 151.557 127.968 151.493L129.692 149.77L130.667 150.746V151.688Z" fill="url(#paint93_linear)"/>
<path d="M120.025 142.271C120.025 142.876 119.533 143.368 118.928 143.368C118.323 143.368 117.832 142.876 117.832 142.271C117.832 141.666 118.323 141.175 118.928 141.175C119.533 141.175 120.025 141.666 120.025 142.271Z" fill="url(#paint94_linear)"/>
<path d="M129.445 142.271C129.445 142.876 128.955 143.368 128.349 143.368C127.744 143.368 127.253 142.876 127.253 142.271C127.253 141.666 127.744 141.175 128.349 141.175C128.955 141.175 129.445 141.666 129.445 142.271Z" fill="url(#paint95_linear)"/>
<path d="M120.023 165.044C120.023 165.65 119.533 166.141 118.928 166.141C118.323 166.141 117.831 165.65 117.831 165.044C117.831 164.439 118.323 163.949 118.928 163.949C119.533 163.949 120.023 164.439 120.023 165.044Z" fill="url(#paint96_linear)"/>
<path d="M129.445 165.044C129.445 165.65 128.955 166.141 128.349 166.141C127.744 166.141 127.253 165.65 127.253 165.044C127.253 164.439 127.744 163.948 128.349 163.948C128.955 163.948 129.445 164.439 129.445 165.044Z" fill="url(#paint97_linear)"/>
<path d="M136.122 148.947C136.122 149.552 135.631 150.043 135.025 150.043C134.42 150.043 133.929 149.552 133.929 148.947C133.929 148.341 134.42 147.85 135.025 147.85C135.631 147.85 136.122 148.341 136.122 148.947Z" fill="url(#paint98_linear)"/>
<path d="M136.122 158.368C136.122 158.974 135.631 159.465 135.025 159.465C134.42 159.465 133.929 158.974 133.929 158.368C133.929 157.763 134.42 157.272 135.025 157.272C135.631 157.272 136.122 157.763 136.122 158.368Z" fill="url(#paint99_linear)"/>
<path d="M113.348 148.947C113.348 149.552 112.857 150.043 112.252 150.043C111.647 150.043 111.155 149.552 111.155 148.947C111.155 148.341 111.647 147.85 112.252 147.85C112.857 147.85 113.348 148.341 113.348 148.947Z" fill="url(#paint100_linear)"/>
<path d="M113.348 158.368C113.348 158.974 112.857 159.465 112.252 159.465C111.647 159.465 111.155 158.974 111.155 158.368C111.155 157.763 111.647 157.272 112.252 157.272C112.857 157.272 113.348 157.763 113.348 158.368Z" fill="url(#paint101_linear)"/>
</g>
<defs>
<radialGradient id="paint0_radial" cx="0" cy="0" r="1" gradientUnits="userSpaceOnUse" gradientTransform="translate(119.808 25.0363) scale(66.0615)">
<stop stop-color="#FFEBC9"/>
<stop offset="0.2771" stop-color="#FFE9C5"/>
<stop offset="0.5263" stop-color="#FEE2BB"/>
<stop offset="0.7641" stop-color="#FDD7A8"/>
<stop offset="0.9948" stop-color="#FBC78F"/>
<stop offset="1" stop-color="#FBC78E"/>
</radialGradient>
<linearGradient id="paint1_linear" x1="140.989" y1="137.857" x2="22.9841" y2="19.8527" gradientUnits="userSpaceOnUse">
<stop stop-color="#E58200" stop-opacity="0"/>
<stop offset="0.0396" stop-color="#E27F04" stop-opacity="0.039216"/>
<stop offset="0.4671" stop-color="#C15D2F" stop-opacity="0.466667"/>
<stop offset="0.8016" stop-color="#AD4949" stop-opacity="0.8"/>
<stop offset="1" stop-color="#A64153"/>
</linearGradient>
<radialGradient id="paint2_radial" cx="0" cy="0" r="1" gradientUnits="userSpaceOnUse" gradientTransform="translate(54.6687 47.2964) scale(94.9056)">
<stop stop-color="#ECF7FF"/>
<stop offset="0.3473" stop-color="#E9F5FF"/>
<stop offset="0.62" stop-color="#DFF0FF"/>
<stop offset="0.8666" stop-color="#CEE7FF"/>
<stop offset="1" stop-color="#C2E0FF"/>
</radialGradient>
<linearGradient id="paint3_linear" x1="115.095" y1="110.658" x2="128.775" y2="69.3859" gradientUnits="userSpaceOnUse">
<stop offset="0.0029" stop-color="#C2E0FF" stop-opacity="0"/>
<stop offset="0.0763" stop-color="#BFDCFD" stop-opacity="0.07451"/>
<stop offset="1" stop-color="#9EB2E7"/>
</linearGradient>
<linearGradient id="paint4_linear" x1="99.4449" y1="82.4229" x2="117.033" y2="56.3456" gradientUnits="userSpaceOnUse">
<stop offset="0.0029" stop-color="#C2E0FF" stop-opacity="0"/>
<stop offset="0.0763" stop-color="#BFDCFD" stop-opacity="0.07451"/>
<stop offset="1" stop-color="#9EB2E7"/>
</linearGradient>
<linearGradient id="paint5_linear" x1="63.618" y1="88.024" x2="63.618" y2="42.1791" gradientUnits="userSpaceOnUse">
<stop offset="0.0029" stop-color="#C2E0FF" stop-opacity="0"/>
<stop offset="0.0763" stop-color="#BFDCFD" stop-opacity="0.07451"/>
<stop offset="1" stop-color="#9EB2E7"/>
</linearGradient>
<linearGradient id="paint6_linear" x1="36.7451" y1="110.262" x2="8.9806" y2="84.0225" gradientUnits="userSpaceOnUse">
<stop offset="0.0029" stop-color="#C2E0FF" stop-opacity="0"/>
<stop offset="0.0763" stop-color="#BFDCFD" stop-opacity="0.07451"/>
<stop offset="1" stop-color="#9EB2E7"/>
</linearGradient>
<linearGradient id="paint7_linear" x1="75.8458" y1="116.217" x2="75.8458" y2="148.285" gradientUnits="userSpaceOnUse">
<stop offset="0.0029" stop-color="#C2E0FF" stop-opacity="0"/>
<stop offset="0.0763" stop-color="#BFDCFD" stop-opacity="0.07451"/>
<stop offset="1" stop-color="#9EB2E7"/>
</linearGradient>
<linearGradient id="paint8_linear" x1="73.3162" y1="147.554" x2="39.7518" y2="113.99" gradientUnits="userSpaceOnUse">
<stop offset="0.0029" stop-color="#C2E0FF" stop-opacity="0"/>
<stop offset="0.0763" stop-color="#BFDCFD" stop-opacity="0.07451"/>
<stop offset="1" stop-color="#9EB2E7"/>
</linearGradient>
<linearGradient id="paint9_linear" x1="73.8162" y1="156.479" x2="33.8178" y2="116.48" gradientUnits="userSpaceOnUse">
<stop offset="0.0029" stop-color="#C2E0FF" stop-opacity="0"/>
<stop offset="0.0763" stop-color="#BFDCFD" stop-opacity="0.07451"/>
<stop offset="1" stop-color="#9EB2E7"/>
</linearGradient>
<linearGradient id="paint10_linear" x1="6.06054" y1="121.826" x2="50.6528" y2="166.418" gradientUnits="userSpaceOnUse">
<stop stop-color="#00C6F6"/>
<stop offset="0.8567" stop-color="#0B9CFD"/>
<stop offset="1" stop-color="#0D94FE"/>
</linearGradient>
<linearGradient id="paint11_linear" x1="23.5679" y1="104.318" x2="68.1603" y2="148.911" gradientUnits="userSpaceOnUse">
<stop stop-color="#00C6F6"/>
<stop offset="0.8567" stop-color="#0B9CFD"/>
<stop offset="1" stop-color="#0D94FE"/>
</linearGradient>
<linearGradient id="paint12_linear" x1="6.06037" y1="121.826" x2="50.6528" y2="166.418" gradientUnits="userSpaceOnUse">
<stop stop-color="#00C6F6"/>
<stop offset="0.8567" stop-color="#0B9CFD"/>
<stop offset="1" stop-color="#0D94FE"/>
</linearGradient>
<linearGradient id="paint13_linear" x1="23.5679" y1="104.318" x2="68.1603" y2="148.911" gradientUnits="userSpaceOnUse">
<stop stop-color="#00C6F6"/>
<stop offset="0.8567" stop-color="#0B9CFD"/>
<stop offset="1" stop-color="#0D94FE"/>
</linearGradient>
<linearGradient id="paint14_linear" x1="2.43466" y1="125.451" x2="47.027" y2="170.044" gradientUnits="userSpaceOnUse">
<stop stop-color="#00C6F6"/>
<stop offset="0.8567" stop-color="#0B9CFD"/>
<stop offset="1" stop-color="#0D94FE"/>
</linearGradient>
<linearGradient id="paint15_linear" x1="27.1936" y1="100.693" x2="71.7857" y2="145.285" gradientUnits="userSpaceOnUse">
<stop stop-color="#00C6F6"/>
<stop offset="0.8567" stop-color="#0B9CFD"/>
<stop offset="1" stop-color="#0D94FE"/>
</linearGradient>
<linearGradient id="paint16_linear" x1="14.8143" y1="113.072" x2="59.4064" y2="157.664" gradientUnits="userSpaceOnUse">
<stop stop-color="#00C6F6"/>
<stop offset="0.8567" stop-color="#0B9CFD"/>
<stop offset="1" stop-color="#0D94FE"/>
</linearGradient>
<linearGradient id="paint17_linear" x1="14.8143" y1="113.072" x2="59.4066" y2="157.665" gradientUnits="userSpaceOnUse">
<stop stop-color="#00C6F6"/>
<stop offset="0.8567" stop-color="#0B9CFD"/>
<stop offset="1" stop-color="#0D94FE"/>
</linearGradient>
<linearGradient id="paint18_linear" x1="50.1784" y1="154.846" x2="41.0672" y2="145.734" gradientUnits="userSpaceOnUse">
<stop stop-color="#0D94FE" stop-opacity="0"/>
<stop offset="0.5142" stop-color="#0681CD" stop-opacity="0.513725"/>
<stop offset="1" stop-color="#0070A2"/>
</linearGradient>
<linearGradient id="paint19_linear" x1="49.8801" y1="163.393" x2="41.3516" y2="154.865" gradientUnits="userSpaceOnUse">
<stop stop-color="#0D94FE" stop-opacity="0"/>
<stop offset="0.5142" stop-color="#0681CD" stop-opacity="0.513725"/>
<stop offset="1" stop-color="#0070A2"/>
</linearGradient>
<linearGradient id="paint20_linear" x1="56.5646" y1="148.41" x2="47.4804" y2="139.326" gradientUnits="userSpaceOnUse">
<stop stop-color="#0D94FE" stop-opacity="0"/>
<stop offset="0.5142" stop-color="#0681CD" stop-opacity="0.513725"/>
<stop offset="1" stop-color="#0070A2"/>
</linearGradient>
<linearGradient id="paint21_linear" x1="65.0868" y1="148.237" x2="56.3657" y2="139.516" gradientUnits="userSpaceOnUse">
<stop stop-color="#0D94FE" stop-opacity="0"/>
<stop offset="0.5142" stop-color="#0681CD" stop-opacity="0.513725"/>
<stop offset="1" stop-color="#0070A2"/>
</linearGradient>
<linearGradient id="paint22_linear" x1="62.42" y1="160.678" x2="43.3507" y2="141.609" gradientUnits="userSpaceOnUse">
<stop stop-color="#0D94FE" stop-opacity="0"/>
<stop offset="0.5142" stop-color="#0681CD" stop-opacity="0.513725"/>
<stop offset="1" stop-color="#0070A2"/>
</linearGradient>
<linearGradient id="paint23_linear" x1="51.4952" y1="124.967" x2="43.3885" y2="116.861" gradientUnits="userSpaceOnUse">
<stop stop-color="#0D94FE" stop-opacity="0"/>
<stop offset="0.5142" stop-color="#0681CD" stop-opacity="0.513725"/>
<stop offset="1" stop-color="#0070A2"/>
</linearGradient>
<linearGradient id="paint24_linear" x1="68.705" y1="127.307" x2="54.0817" y2="124.401" gradientUnits="userSpaceOnUse">
<stop stop-color="#0D94FE" stop-opacity="0"/>
<stop offset="0.5142" stop-color="#0681CD" stop-opacity="0.513725"/>
<stop offset="1" stop-color="#0070A2"/>
</linearGradient>
<linearGradient id="paint25_linear" x1="37.05" y1="107.506" x2="84.8088" y2="155.265" gradientUnits="userSpaceOnUse">
<stop stop-color="#00C6F6"/>
<stop offset="0.8567" stop-color="#0B9CFD"/>
<stop offset="1" stop-color="#0D94FE"/>
</linearGradient>
<linearGradient id="paint26_linear" x1="9.24804" y1="135.307" x2="57.0069" y2="183.066" gradientUnits="userSpaceOnUse">
<stop stop-color="#00C6F6"/>
<stop offset="0.8567" stop-color="#0B9CFD"/>
<stop offset="1" stop-color="#0D94FE"/>
</linearGradient>
<linearGradient id="paint27_linear" x1="37.0499" y1="107.506" x2="84.8087" y2="155.265" gradientUnits="userSpaceOnUse">
<stop stop-color="#00C6F6"/>
<stop offset="0.8567" stop-color="#0B9CFD"/>
<stop offset="1" stop-color="#0D94FE"/>
</linearGradient>
<linearGradient id="paint28_linear" x1="9.2481" y1="135.308" x2="57.0067" y2="183.066" gradientUnits="userSpaceOnUse">
<stop stop-color="#00C6F6"/>
<stop offset="0.8567" stop-color="#0B9CFD"/>
<stop offset="1" stop-color="#0D94FE"/>
</linearGradient>
<linearGradient id="paint29_linear" x1="40.6115" y1="103.945" x2="88.3702" y2="151.703" gradientUnits="userSpaceOnUse">
<stop stop-color="#00C6F6"/>
<stop offset="0.8567" stop-color="#0B9CFD"/>
<stop offset="1" stop-color="#0D94FE"/>
</linearGradient>
<linearGradient id="paint30_linear" x1="5.68683" y1="138.869" x2="53.4456" y2="186.628" gradientUnits="userSpaceOnUse">
<stop stop-color="#00C6F6"/>
<stop offset="0.8567" stop-color="#0B9CFD"/>
<stop offset="1" stop-color="#0D94FE"/>
</linearGradient>
<linearGradient id="paint31_linear" x1="23.1491" y1="121.407" x2="70.9078" y2="169.165" gradientUnits="userSpaceOnUse">
<stop stop-color="#00C6F6"/>
<stop offset="0.8567" stop-color="#0B9CFD"/>
<stop offset="1" stop-color="#0D94FE"/>
</linearGradient>
<linearGradient id="paint32_linear" x1="23.149" y1="121.407" x2="70.9079" y2="169.166" gradientUnits="userSpaceOnUse">
<stop stop-color="#00C6F6"/>
<stop offset="0.8567" stop-color="#0B9CFD"/>
<stop offset="1" stop-color="#0D94FE"/>
</linearGradient>
<linearGradient id="paint33_linear" x1="57.2021" y1="144.964" x2="37.9069" y2="121.312" gradientUnits="userSpaceOnUse">
<stop stop-color="#0D94FE" stop-opacity="0"/>
<stop offset="0.5142" stop-color="#0681CD" stop-opacity="0.513725"/>
<stop offset="1" stop-color="#0070A2"/>
</linearGradient>
<linearGradient id="paint34_linear" x1="43.0226" y1="156.989" x2="23.4575" y2="133.006" gradientUnits="userSpaceOnUse">
<stop stop-color="#0D94FE" stop-opacity="0"/>
<stop offset="0.5142" stop-color="#0681CD" stop-opacity="0.513725"/>
<stop offset="1" stop-color="#0070A2"/>
</linearGradient>
<linearGradient id="paint35_linear" x1="58.7135" y1="144.352" x2="39.0424" y2="120.239" gradientUnits="userSpaceOnUse">
<stop stop-color="#0D94FE" stop-opacity="0"/>
<stop offset="0.5142" stop-color="#0681CD" stop-opacity="0.513725"/>
<stop offset="1" stop-color="#0070A2"/>
</linearGradient>
<linearGradient id="paint36_linear" x1="50.0198" y1="151.444" x2="30.3483" y2="127.331" gradientUnits="userSpaceOnUse">
<stop stop-color="#0D94FE" stop-opacity="0"/>
<stop offset="0.5142" stop-color="#0681CD" stop-opacity="0.513725"/>
<stop offset="1" stop-color="#0070A2"/>
</linearGradient>
<radialGradient id="paint37_radial" cx="0" cy="0" r="1" gradientUnits="userSpaceOnUse" gradientTransform="translate(43.918 142.176) scale(7.87787)">
<stop stop-color="#ECF7FF"/>
<stop offset="1" stop-color="#C2E0FF"/>
</radialGradient>
<linearGradient id="paint38_linear" x1="38.6475" y1="136.905" x2="63.9497" y2="162.208" gradientUnits="userSpaceOnUse">
<stop stop-color="#00C6F6"/>
<stop offset="0.8567" stop-color="#0B9CFD"/>
<stop offset="1" stop-color="#0D94FE"/>
</linearGradient>
<radialGradient id="paint39_radial" cx="0" cy="0" r="1" gradientUnits="userSpaceOnUse" gradientTransform="translate(31.76 125.211) scale(49.3064)">
<stop stop-color="#ECF7FF"/>
<stop offset="1" stop-color="#C2E0FF"/>
</radialGradient>
<radialGradient id="paint40_radial" cx="0" cy="0" r="1" gradientUnits="userSpaceOnUse" gradientTransform="translate(31.7599 125.211) scale(49.3065)">
<stop stop-color="#ECF7FF"/>
<stop offset="1" stop-color="#C2E0FF"/>
</radialGradient>
<radialGradient id="paint41_radial" cx="0" cy="0" r="1" gradientUnits="userSpaceOnUse" gradientTransform="translate(31.7601 125.21) scale(49.3065)">
<stop stop-color="#ECF7FF"/>
<stop offset="1" stop-color="#C2E0FF"/>
</radialGradient>
<radialGradient id="paint42_radial" cx="0" cy="0" r="1" gradientUnits="userSpaceOnUse" gradientTransform="translate(31.76 125.21) scale(49.3063)">
<stop stop-color="#ECF7FF"/>
<stop offset="1" stop-color="#C2E0FF"/>
</radialGradient>
<radialGradient id="paint43_radial" cx="0" cy="0" r="1" gradientUnits="userSpaceOnUse" gradientTransform="translate(31.7596 125.211) scale(49.3068)">
<stop stop-color="#ECF7FF"/>
<stop offset="1" stop-color="#C2E0FF"/>
</radialGradient>
<radialGradient id="paint44_radial" cx="0" cy="0" r="1" gradientUnits="userSpaceOnUse" gradientTransform="translate(31.7597 125.21) scale(49.3068)">
<stop stop-color="#ECF7FF"/>
<stop offset="1" stop-color="#C2E0FF"/>
</radialGradient>
<radialGradient id="paint45_radial" cx="0" cy="0" r="1" gradientUnits="userSpaceOnUse" gradientTransform="translate(31.76 125.211) scale(49.3069)">
<stop stop-color="#ECF7FF"/>
<stop offset="1" stop-color="#C2E0FF"/>
</radialGradient>
<radialGradient id="paint46_radial" cx="0" cy="0" r="1" gradientUnits="userSpaceOnUse" gradientTransform="translate(31.7602 125.21) scale(49.3069)">
<stop stop-color="#ECF7FF"/>
<stop offset="1" stop-color="#C2E0FF"/>
</radialGradient>
<linearGradient id="paint47_linear" x1="60.3934" y1="163.568" x2="7.27554" y2="94.5982" gradientUnits="userSpaceOnUse">
<stop stop-color="white" stop-opacity="0"/>
<stop offset="1" stop-color="white"/>
</linearGradient>
<linearGradient id="paint48_linear" x1="64.5416" y1="160.373" x2="11.4236" y2="91.4032" gradientUnits="userSpaceOnUse">
<stop stop-color="white" stop-opacity="0"/>
<stop offset="1" stop-color="white"/>
</linearGradient>
<linearGradient id="paint49_linear" x1="74.1626" y1="152.964" x2="21.044" y2="83.9932" gradientUnits="userSpaceOnUse">
<stop stop-color="white" stop-opacity="0"/>
<stop offset="1" stop-color="white"/>
</linearGradient>
<linearGradient id="paint50_linear" x1="46.6305" y1="174.167" x2="-6.48749" y2="105.197" gradientUnits="userSpaceOnUse">
<stop stop-color="white" stop-opacity="0"/>
<stop offset="1" stop-color="white"/>
</linearGradient>
<linearGradient id="paint51_linear" x1="56.2512" y1="166.758" x2="3.13274" y2="97.7872" gradientUnits="userSpaceOnUse">
<stop stop-color="white" stop-opacity="0"/>
<stop offset="1" stop-color="white"/>
</linearGradient>
<linearGradient id="paint52_linear" x1="75.7294" y1="151.757" x2="22.6112" y2="82.7866" gradientUnits="userSpaceOnUse">
<stop stop-color="white" stop-opacity="0"/>
<stop offset="1" stop-color="white"/>
</linearGradient>
<linearGradient id="paint53_linear" x1="68.3199" y1="157.463" x2="15.2011" y2="88.4921" gradientUnits="userSpaceOnUse">
<stop stop-color="white" stop-opacity="0"/>
<stop offset="1" stop-color="white"/>
</linearGradient>
<linearGradient id="paint54_linear" x1="52.473" y1="169.668" x2="-0.645168" y2="100.698" gradientUnits="userSpaceOnUse">
<stop stop-color="white" stop-opacity="0"/>
<stop offset="1" stop-color="white"/>
</linearGradient>
<linearGradient id="paint55_linear" x1="45.0638" y1="175.374" x2="-8.05499" y2="106.403" gradientUnits="userSpaceOnUse">
<stop stop-color="white" stop-opacity="0"/>
<stop offset="1" stop-color="white"/>
</linearGradient>
<linearGradient id="paint56_linear" x1="100.366" y1="141.15" x2="127.775" y2="168.559" gradientUnits="userSpaceOnUse">
<stop stop-color="#00C6F6"/>
<stop offset="0.8567" stop-color="#0B9CFD"/>
<stop offset="1" stop-color="#0D94FE"/>
</linearGradient>
<linearGradient id="paint57_linear" x1="111.127" y1="130.389" x2="138.536" y2="157.798" gradientUnits="userSpaceOnUse">
<stop stop-color="#00C6F6"/>
<stop offset="0.8567" stop-color="#0B9CFD"/>
<stop offset="1" stop-color="#0D94FE"/>
</linearGradient>
<linearGradient id="paint58_linear" x1="100.366" y1="141.149" x2="127.775" y2="168.559" gradientUnits="userSpaceOnUse">
<stop stop-color="#00C6F6"/>
<stop offset="0.8567" stop-color="#0B9CFD"/>
<stop offset="1" stop-color="#0D94FE"/>
</linearGradient>
<linearGradient id="paint59_linear" x1="111.127" y1="130.388" x2="138.536" y2="157.797" gradientUnits="userSpaceOnUse">
<stop stop-color="#00C6F6"/>
<stop offset="0.8567" stop-color="#0B9CFD"/>
<stop offset="1" stop-color="#0D94FE"/>
</linearGradient>
<linearGradient id="paint60_linear" x1="98.1368" y1="143.377" x2="125.547" y2="170.787" gradientUnits="userSpaceOnUse">
<stop stop-color="#00C6F6"/>
<stop offset="0.8567" stop-color="#0B9CFD"/>
<stop offset="1" stop-color="#0D94FE"/>
</linearGradient>
<linearGradient id="paint61_linear" x1="113.356" y1="128.16" x2="140.765" y2="155.569" gradientUnits="userSpaceOnUse">
<stop stop-color="#00C6F6"/>
<stop offset="0.8567" stop-color="#0B9CFD"/>
<stop offset="1" stop-color="#0D94FE"/>
</linearGradient>
<linearGradient id="paint62_linear" x1="105.747" y1="135.769" x2="133.156" y2="163.178" gradientUnits="userSpaceOnUse">
<stop stop-color="#00C6F6"/>
<stop offset="0.8567" stop-color="#0B9CFD"/>
<stop offset="1" stop-color="#0D94FE"/>
</linearGradient>
<linearGradient id="paint63_linear" x1="105.747" y1="135.769" x2="133.156" y2="163.178" gradientUnits="userSpaceOnUse">
<stop stop-color="#00C6F6"/>
<stop offset="0.8567" stop-color="#0B9CFD"/>
<stop offset="1" stop-color="#0D94FE"/>
</linearGradient>
<linearGradient id="paint64_linear" x1="127.484" y1="161.445" x2="121.883" y2="155.845" gradientUnits="userSpaceOnUse">
<stop stop-color="#0D94FE" stop-opacity="0"/>
<stop offset="0.5142" stop-color="#0681CD" stop-opacity="0.513725"/>
<stop offset="1" stop-color="#0070A2"/>
</linearGradient>
<linearGradient id="paint65_linear" x1="127.3" y1="166.699" x2="122.058" y2="161.457" gradientUnits="userSpaceOnUse">
<stop stop-color="#0D94FE" stop-opacity="0"/>
<stop offset="0.5142" stop-color="#0681CD" stop-opacity="0.513725"/>
<stop offset="1" stop-color="#0070A2"/>
</linearGradient>
<linearGradient id="paint66_linear" x1="131.409" y1="157.49" x2="125.825" y2="151.906" gradientUnits="userSpaceOnUse">
<stop stop-color="#0D94FE" stop-opacity="0"/>
<stop offset="0.5142" stop-color="#0681CD" stop-opacity="0.513725"/>
<stop offset="1" stop-color="#0070A2"/>
</linearGradient>
<linearGradient id="paint67_linear" x1="136.647" y1="157.383" x2="131.287" y2="152.023" gradientUnits="userSpaceOnUse">
<stop stop-color="#0D94FE" stop-opacity="0"/>
<stop offset="0.5142" stop-color="#0681CD" stop-opacity="0.513725"/>
<stop offset="1" stop-color="#0070A2"/>
</linearGradient>
<linearGradient id="paint68_linear" x1="135.008" y1="165.03" x2="123.287" y2="153.309" gradientUnits="userSpaceOnUse">
<stop stop-color="#0D94FE" stop-opacity="0"/>
<stop offset="0.5142" stop-color="#0681CD" stop-opacity="0.513725"/>
<stop offset="1" stop-color="#0070A2"/>
</linearGradient>
<linearGradient id="paint69_linear" x1="128.293" y1="143.081" x2="123.31" y2="138.098" gradientUnits="userSpaceOnUse">
<stop stop-color="#0D94FE" stop-opacity="0"/>
<stop offset="0.5142" stop-color="#0681CD" stop-opacity="0.513725"/>
<stop offset="1" stop-color="#0070A2"/>
</linearGradient>
<linearGradient id="paint70_linear" x1="138.871" y1="144.519" x2="129.883" y2="142.733" gradientUnits="userSpaceOnUse">
<stop stop-color="#0D94FE" stop-opacity="0"/>
<stop offset="0.5142" stop-color="#0681CD" stop-opacity="0.513725"/>
<stop offset="1" stop-color="#0070A2"/>
</linearGradient>
<linearGradient id="paint71_linear" x1="119.414" y1="132.348" x2="148.769" y2="161.703" gradientUnits="userSpaceOnUse">
<stop stop-color="#00C6F6"/>
<stop offset="0.8567" stop-color="#0B9CFD"/>
<stop offset="1" stop-color="#0D94FE"/>
</linearGradient>
<linearGradient id="paint72_linear" x1="102.325" y1="149.436" x2="131.681" y2="178.792" gradientUnits="userSpaceOnUse">
<stop stop-color="#00C6F6"/>
<stop offset="0.8567" stop-color="#0B9CFD"/>
<stop offset="1" stop-color="#0D94FE"/>
</linearGradient>
<linearGradient id="paint73_linear" x1="119.414" y1="132.347" x2="148.769" y2="161.703" gradientUnits="userSpaceOnUse">
<stop stop-color="#00C6F6"/>
<stop offset="0.8567" stop-color="#0B9CFD"/>
<stop offset="1" stop-color="#0D94FE"/>
</linearGradient>
<linearGradient id="paint74_linear" x1="102.325" y1="149.436" x2="131.681" y2="178.792" gradientUnits="userSpaceOnUse">
<stop stop-color="#00C6F6"/>
<stop offset="0.8567" stop-color="#0B9CFD"/>
<stop offset="1" stop-color="#0D94FE"/>
</linearGradient>
<linearGradient id="paint75_linear" x1="121.603" y1="130.159" x2="150.959" y2="159.514" gradientUnits="userSpaceOnUse">
<stop stop-color="#00C6F6"/>
<stop offset="0.8567" stop-color="#0B9CFD"/>
<stop offset="1" stop-color="#0D94FE"/>
</linearGradient>
<linearGradient id="paint76_linear" x1="100.136" y1="151.625" x2="129.492" y2="180.981" gradientUnits="userSpaceOnUse">
<stop stop-color="#00C6F6"/>
<stop offset="0.8567" stop-color="#0B9CFD"/>
<stop offset="1" stop-color="#0D94FE"/>
</linearGradient>
<linearGradient id="paint77_linear" x1="110.87" y1="140.892" x2="140.225" y2="170.247" gradientUnits="userSpaceOnUse">
<stop stop-color="#00C6F6"/>
<stop offset="0.8567" stop-color="#0B9CFD"/>
<stop offset="1" stop-color="#0D94FE"/>
</linearGradient>
<linearGradient id="paint78_linear" x1="110.87" y1="140.892" x2="140.225" y2="170.248" gradientUnits="userSpaceOnUse">
<stop stop-color="#00C6F6"/>
<stop offset="0.8567" stop-color="#0B9CFD"/>
<stop offset="1" stop-color="#0D94FE"/>
</linearGradient>
<linearGradient id="paint79_linear" x1="131.801" y1="155.372" x2="119.941" y2="140.834" gradientUnits="userSpaceOnUse">
<stop stop-color="#0D94FE" stop-opacity="0"/>
<stop offset="0.5142" stop-color="#0681CD" stop-opacity="0.513725"/>
<stop offset="1" stop-color="#0070A2"/>
</linearGradient>
<linearGradient id="paint80_linear" x1="123.085" y1="162.763" x2="111.059" y2="148.022" gradientUnits="userSpaceOnUse">
<stop stop-color="#0D94FE" stop-opacity="0"/>
<stop offset="0.5142" stop-color="#0681CD" stop-opacity="0.513725"/>
<stop offset="1" stop-color="#0070A2"/>
</linearGradient>
<linearGradient id="paint81_linear" x1="132.73" y1="154.996" x2="120.639" y2="140.174" gradientUnits="userSpaceOnUse">
<stop stop-color="#0D94FE" stop-opacity="0"/>
<stop offset="0.5142" stop-color="#0681CD" stop-opacity="0.513725"/>
<stop offset="1" stop-color="#0070A2"/>
</linearGradient>
<linearGradient id="paint82_linear" x1="127.386" y1="159.355" x2="115.295" y2="144.534" gradientUnits="userSpaceOnUse">
<stop stop-color="#0D94FE" stop-opacity="0"/>
<stop offset="0.5142" stop-color="#0681CD" stop-opacity="0.513725"/>
<stop offset="1" stop-color="#0070A2"/>
</linearGradient>
<radialGradient id="paint83_radial" cx="0" cy="0" r="1" gradientUnits="userSpaceOnUse" gradientTransform="translate(123.636 153.658) scale(4.84229)">
<stop stop-color="#ECF7FF"/>
<stop offset="1" stop-color="#C2E0FF"/>
</radialGradient>
<linearGradient id="paint84_linear" x1="120.396" y1="150.419" x2="135.948" y2="165.971" gradientUnits="userSpaceOnUse">
<stop stop-color="#00C6F6"/>
<stop offset="0.8567" stop-color="#0B9CFD"/>
<stop offset="1" stop-color="#0D94FE"/>
</linearGradient>
<radialGradient id="paint85_radial" cx="0" cy="0" r="1" gradientUnits="userSpaceOnUse" gradientTransform="translate(116.163 143.231) scale(30.3053)">
<stop stop-color="#ECF7FF"/>
<stop offset="1" stop-color="#C2E0FF"/>
</radialGradient>
<radialGradient id="paint86_radial" cx="0" cy="0" r="1" gradientUnits="userSpaceOnUse" gradientTransform="translate(116.162 143.231) scale(30.3077)">
<stop stop-color="#ECF7FF"/>
<stop offset="1" stop-color="#C2E0FF"/>
</radialGradient>
<radialGradient id="paint87_radial" cx="0" cy="0" r="1" gradientUnits="userSpaceOnUse" gradientTransform="translate(116.163 143.231) scale(30.3053)">
<stop stop-color="#ECF7FF"/>
<stop offset="1" stop-color="#C2E0FF"/>
</radialGradient>
<radialGradient id="paint88_radial" cx="0" cy="0" r="1" gradientUnits="userSpaceOnUse" gradientTransform="translate(116.162 143.231) scale(30.3059 30.3058)">
<stop stop-color="#ECF7FF"/>
<stop offset="1" stop-color="#C2E0FF"/>
</radialGradient>
<radialGradient id="paint89_radial" cx="0" cy="0" r="1" gradientUnits="userSpaceOnUse" gradientTransform="translate(116.162 143.23) scale(30.3073)">
<stop stop-color="#ECF7FF"/>
<stop offset="1" stop-color="#C2E0FF"/>
</radialGradient>
<radialGradient id="paint90_radial" cx="0" cy="0" r="1" gradientUnits="userSpaceOnUse" gradientTransform="translate(116.162 143.23) scale(30.3076)">
<stop stop-color="#ECF7FF"/>
<stop offset="1" stop-color="#C2E0FF"/>
</radialGradient>
<radialGradient id="paint91_radial" cx="0" cy="0" r="1" gradientUnits="userSpaceOnUse" gradientTransform="translate(116.163 143.23) scale(30.3057)">
<stop stop-color="#ECF7FF"/>
<stop offset="1" stop-color="#C2E0FF"/>
</radialGradient>
<radialGradient id="paint92_radial" cx="0" cy="0" r="1" gradientUnits="userSpaceOnUse" gradientTransform="translate(116.163 143.23) scale(30.3076)">
<stop stop-color="#ECF7FF"/>
<stop offset="1" stop-color="#C2E0FF"/>
</radialGradient>
<linearGradient id="paint93_linear" x1="133.762" y1="166.807" x2="101.113" y2="124.414" gradientUnits="userSpaceOnUse">
<stop stop-color="white" stop-opacity="0"/>
<stop offset="1" stop-color="white"/>
</linearGradient>
<linearGradient id="paint94_linear" x1="136.312" y1="164.843" x2="103.663" y2="122.45" gradientUnits="userSpaceOnUse">
<stop stop-color="white" stop-opacity="0"/>
<stop offset="1" stop-color="white"/>
</linearGradient>
<linearGradient id="paint95_linear" x1="142.226" y1="160.289" x2="109.576" y2="117.896" gradientUnits="userSpaceOnUse">
<stop stop-color="white" stop-opacity="0"/>
<stop offset="1" stop-color="white"/>
</linearGradient>
<linearGradient id="paint96_linear" x1="125.302" y1="173.321" x2="92.6542" y2="130.93" gradientUnits="userSpaceOnUse">
<stop stop-color="white" stop-opacity="0"/>
<stop offset="1" stop-color="white"/>
</linearGradient>
<linearGradient id="paint97_linear" x1="131.216" y1="168.767" x2="98.5674" y2="126.375" gradientUnits="userSpaceOnUse">
<stop stop-color="white" stop-opacity="0"/>
<stop offset="1" stop-color="white"/>
</linearGradient>
<linearGradient id="paint98_linear" x1="143.189" y1="159.547" x2="110.54" y2="117.154" gradientUnits="userSpaceOnUse">
<stop stop-color="white" stop-opacity="0"/>
<stop offset="1" stop-color="white"/>
</linearGradient>
<linearGradient id="paint99_linear" x1="138.634" y1="163.054" x2="105.984" y2="120.661" gradientUnits="userSpaceOnUse">
<stop stop-color="white" stop-opacity="0"/>
<stop offset="1" stop-color="white"/>
</linearGradient>
<linearGradient id="paint100_linear" x1="128.894" y1="170.556" x2="96.2447" y2="128.163" gradientUnits="userSpaceOnUse">
<stop stop-color="white" stop-opacity="0"/>
<stop offset="1" stop-color="white"/>
</linearGradient>
<linearGradient id="paint101_linear" x1="124.34" y1="174.064" x2="91.6897" y2="131.67" gradientUnits="userSpaceOnUse">
<stop stop-color="white" stop-opacity="0"/>
<stop offset="1" stop-color="white"/>
</linearGradient>
<clipPath id="clip0">
<rect width="174" height="174" fill="white"/>
</clipPath>
</defs>
</svg>
