<svg width="50" height="50" viewBox="0 0 50 50" fill="none" xmlns="http://www.w3.org/2000/svg">
<path d="M25.8974 4.14889C26.8842 8.09282 31.8216 9.41576 34.6488 6.49353C35.3179 5.80194 36.4675 6.46515 36.2031 7.39126C35.0858 11.3003 38.7003 14.9146 42.6089 13.7973H42.6092C43.5349 13.5329 44.1984 14.6821 43.5064 15.3518C40.5846 18.1784 41.9079 23.1156 45.8513 24.103C46.7852 24.3365 46.7852 25.6639 45.8513 25.8975C41.9079 26.8848 40.5846 31.8215 43.5064 34.6487C44.1984 35.3178 43.5349 36.4675 42.6092 36.2031H42.6089C38.7003 35.0858 35.0858 38.7001 36.2031 42.609C36.4675 43.5347 35.3179 44.1986 34.6488 43.5066C31.8216 40.5847 26.8842 41.9077 25.8974 45.8511V45.8515C25.6634 46.785 24.3367 46.785 24.1027 45.8515V45.8511C23.1157 41.9077 18.1785 40.5847 15.3519 43.5066C14.6822 44.1986 13.5325 43.5347 13.7969 42.609C14.9142 38.7001 11.2999 35.0858 7.39086 36.2031C6.46524 36.4675 5.80152 35.3178 6.49363 34.6487C9.41532 31.8215 8.09291 26.8848 4.14849 25.8975C3.21491 25.6639 3.21491 24.3365 4.14849 24.103C8.09291 23.1156 9.41532 18.1784 6.49363 15.3518C5.80152 14.6821 6.46524 13.5329 7.39086 13.7973C11.2999 14.9146 14.9142 11.3003 13.7969 7.39126C13.5325 6.46515 14.6822 5.80194 15.3519 6.49353C18.1785 9.41576 23.1157 8.09282 24.1027 4.14889C24.3367 3.21482 25.6634 3.21482 25.8974 4.14889Z" fill="white"/>
<path d="M25.8974 4.14889C26.8842 8.09282 31.8216 9.41576 34.6488 6.49353C35.3179 5.80194 36.4675 6.46515 36.2031 7.39126C35.0858 11.3003 38.7003 14.9146 42.6089 13.7973H42.6092C43.5349 13.5329 44.1984 14.6821 43.5064 15.3518C40.5846 18.1784 41.9079 23.1156 45.8513 24.103C46.7852 24.3365 46.7852 25.6639 45.8513 25.8975C41.9079 26.8848 40.5846 31.8215 43.5064 34.6487C44.1984 35.3178 43.5349 36.4675 42.6092 36.2031H42.6089C38.7003 35.0858 35.0858 38.7001 36.2031 42.609C36.4675 43.5347 35.3179 44.1986 34.6488 43.5066C31.8216 40.5847 26.8842 41.9077 25.8974 45.8511V45.8515C25.6634 46.785 24.3367 46.785 24.1027 45.8515V45.8511C23.1157 41.9077 18.1785 40.5847 15.3519 43.5066C14.6822 44.1986 13.5325 43.5347 13.7969 42.609C14.9142 38.7001 11.2999 35.0858 7.39086 36.2031C6.46524 36.4675 5.80152 35.3178 6.49363 34.6487C9.41532 31.8215 8.09291 26.8848 4.14849 25.8975C3.21491 25.6639 3.21491 24.3365 4.14849 24.103C8.09291 23.1156 9.41532 18.1784 6.49363 15.3518C5.80152 14.6821 6.46524 13.5329 7.39086 13.7973C11.2999 14.9146 14.9142 11.3003 13.7969 7.39126C13.5325 6.46515 14.6822 5.80194 15.3519 6.49353C18.1785 9.41576 23.1157 8.09282 24.1027 4.14889C24.3367 3.21482 25.6634 3.21482 25.8974 4.14889Z" fill="url(#paint0_radial)"/>
<path d="M42.5755 25.0002C42.5755 34.7069 34.7066 42.5753 24.9999 42.5753C15.2937 42.5753 7.42474 34.7069 7.42474 25.0002C7.42474 15.2935 15.2937 7.42514 24.9999 7.42514C34.7066 7.42514 42.5755 15.2935 42.5755 25.0002Z" fill="url(#paint1_radial)"/>
<path d="M39.5401 25.0002C39.5401 33.0304 33.0304 39.5401 24.9999 39.5401C16.9696 39.5401 10.46 33.0304 10.46 25.0002C10.46 16.97 16.9696 10.4599 24.9999 10.4599C33.0304 10.4599 39.5401 16.97 39.5401 25.0002Z" fill="url(#paint2_radial)"/>
<path d="M38.1591 25.0002C38.1591 32.2677 32.2671 38.1589 24.9998 38.1589C17.7329 38.1589 11.8411 32.2677 11.8411 25.0002C11.8411 17.7328 17.7329 11.8415 24.9998 11.8415C32.2671 11.8415 38.1591 17.7328 38.1591 25.0002Z" fill="url(#paint3_linear)"/>
<defs>
<radialGradient id="paint0_radial" cx="0" cy="0" r="1" gradientUnits="userSpaceOnUse" gradientTransform="translate(25.1615 25.0001) scale(27.9187)">
<stop stop-color="#FFD459"/>
<stop offset="0.2794" stop-color="#FFD55B" stop-opacity="0.721569"/>
<stop offset="0.4354" stop-color="#FFD763" stop-opacity="0.564706"/>
<stop offset="0.5609" stop-color="#FFDA71" stop-opacity="0.439216"/>
<stop offset="0.6702" stop-color="#FFDF85" stop-opacity="0.329412"/>
<stop offset="0.7691" stop-color="#FFE69E" stop-opacity="0.231373"/>
<stop offset="0.8603" stop-color="#FFEEBE" stop-opacity="0.141176"/>
<stop offset="0.944" stop-color="#FFF8E2" stop-opacity="0.054902"/>
<stop offset="1" stop-color="white" stop-opacity="0"/>
</radialGradient>
<radialGradient id="paint1_radial" cx="0" cy="0" r="1" gradientUnits="userSpaceOnUse" gradientTransform="translate(25.0003 25.0827) scale(18.807)">
<stop stop-color="#FFB400"/>
<stop offset="0.3726" stop-color="#FFB502" stop-opacity="0.627451"/>
<stop offset="0.5069" stop-color="#FFB709" stop-opacity="0.494118"/>
<stop offset="0.6026" stop-color="#FFBA14" stop-opacity="0.396078"/>
<stop offset="0.68" stop-color="#FFBF25" stop-opacity="0.321569"/>
<stop offset="0.7463" stop-color="#FFC53B" stop-opacity="0.254902"/>
<stop offset="0.805" stop-color="#FFCD57" stop-opacity="0.196078"/>
<stop offset="0.8581" stop-color="#FFD777" stop-opacity="0.141176"/>
<stop offset="0.9069" stop-color="#FFE29D" stop-opacity="0.094118"/>
<stop offset="0.9523" stop-color="#FFEFC8" stop-opacity="0.047059"/>
<stop offset="0.9926" stop-color="#FFFCF6" stop-opacity="0.01"/>
<stop offset="1" stop-color="white" stop-opacity="0"/>
</radialGradient>
<radialGradient id="paint2_radial" cx="0" cy="0" r="1" gradientUnits="userSpaceOnUse" gradientTransform="translate(21.1307 19.2289) scale(19.6123)">
<stop stop-color="#FFD459"/>
<stop offset="0.2296" stop-color="#FFD355"/>
<stop offset="0.4362" stop-color="#FFCF4A"/>
<stop offset="0.634" stop-color="#FFC838"/>
<stop offset="0.825" stop-color="#FFBF1F"/>
<stop offset="1" stop-color="#FFB400"/>
</radialGradient>
<linearGradient id="paint3_linear" x1="26.4952" y1="26.575" x2="7.38327" y2="6.44638" gradientUnits="userSpaceOnUse">
<stop stop-color="white" stop-opacity="0"/>
<stop offset="0.9286" stop-color="white" stop-opacity="0.929412"/>
<stop offset="1" stop-color="white"/>
</linearGradient>
</defs>
</svg>
