<svg width="174" height="174" viewBox="0 0 174 174" fill="none" xmlns="http://www.w3.org/2000/svg">
<path d="M105.626 1.86781C108.257 12.3831 121.421 15.9103 128.957 8.11908C130.743 6.27516 133.807 8.04341 133.102 10.5126C130.124 20.9349 139.759 30.5713 150.182 27.5924C152.65 26.8875 154.419 29.9527 152.574 31.7369C144.784 39.2732 148.311 52.4368 158.827 55.0693C161.317 55.6919 161.317 59.231 158.827 59.8537C148.311 62.4861 144.784 75.6484 152.574 83.1861C154.419 84.9702 152.65 88.0355 150.182 87.3306C139.759 84.3516 130.124 93.988 133.102 104.41C133.807 106.878 130.743 108.648 128.957 106.803C121.421 99.0127 108.257 102.54 105.626 113.054V113.055C105.002 115.544 101.463 115.544 100.841 113.055V113.054C98.2082 102.54 85.0459 99.0127 77.5083 106.803C75.7241 108.648 72.6589 106.878 73.3638 104.41C76.3427 93.988 66.7063 84.3516 56.284 87.3306C53.8161 88.0355 52.0452 84.9702 53.8918 83.1861C61.6816 75.6484 58.1544 62.4861 47.6392 59.8537C45.1488 59.231 45.1488 55.6919 47.6392 55.0693C58.1544 52.4368 61.6816 39.2732 53.8918 31.7369C52.0452 29.9527 53.8161 26.8875 56.284 27.5924C66.7063 30.5713 76.3427 20.9349 73.3638 10.5126C72.6589 8.04341 75.7241 6.27516 77.5083 8.11908C85.0459 15.9103 98.2082 12.3831 100.841 1.86781C101.463 -0.622604 105.002 -0.622604 105.626 1.86781V1.86781Z" fill="white"/>
<path d="M105.626 1.86781C108.257 12.3831 121.421 15.9103 128.957 8.11908C130.743 6.27516 133.807 8.04341 133.102 10.5126C130.124 20.9349 139.759 30.5713 150.182 27.5924C152.65 26.8875 154.419 29.9527 152.574 31.7369C144.784 39.2732 148.311 52.4368 158.827 55.0693C161.317 55.6919 161.317 59.231 158.827 59.8537C148.311 62.4861 144.784 75.6484 152.574 83.1861C154.419 84.9702 152.65 88.0355 150.182 87.3306C139.759 84.3516 130.124 93.988 133.102 104.41C133.807 106.878 130.743 108.648 128.957 106.803C121.421 99.0127 108.257 102.54 105.626 113.054V113.055C105.002 115.544 101.463 115.544 100.841 113.055V113.054C98.2082 102.54 85.0459 99.0127 77.5083 106.803C75.7241 108.648 72.6589 106.878 73.3638 104.41C76.3427 93.988 66.7063 84.3516 56.284 87.3306C53.8161 88.0355 52.0452 84.9702 53.8918 83.1861C61.6816 75.6484 58.1544 62.4861 47.6392 59.8537C45.1488 59.231 45.1488 55.6919 47.6392 55.0693C58.1544 52.4368 61.6816 39.2732 53.8918 31.7369C52.0452 29.9527 53.8161 26.8875 56.284 27.5924C66.7063 30.5713 76.3427 20.9349 73.3638 10.5126C72.6589 8.04341 75.7241 6.27516 77.5083 8.11908C85.0459 15.9103 98.2082 12.3831 100.841 1.86781C101.463 -0.622604 105.002 -0.622604 105.626 1.86781V1.86781Z" fill="url(#paint0_radial)"/>
<path d="M150.091 57.4615C150.091 83.3414 129.113 104.32 103.233 104.32C77.3543 104.32 56.3742 83.3414 56.3742 57.4615C56.3742 31.5816 77.3543 10.6028 103.233 10.6028C129.113 10.6028 150.091 31.5816 150.091 57.4615V57.4615Z" fill="url(#paint1_radial)"/>
<path d="M142 57.4615C142 78.8716 124.643 96.2276 103.233 96.2276C81.8227 96.2276 64.4668 78.8716 64.4668 57.4615C64.4668 36.0513 81.8227 18.6941 103.233 18.6941C124.643 18.6941 142 36.0513 142 57.4615V57.4615Z" fill="url(#paint2_radial)"/>
<path d="M138.318 57.4615C138.318 76.8379 122.609 92.545 103.233 92.545C83.8564 92.545 68.1493 76.8379 68.1493 57.4615C68.1493 38.0851 83.8564 22.3779 103.233 22.3779C122.609 22.3779 138.318 38.0851 138.318 57.4615V57.4615Z" fill="url(#paint3_linear)"/>
<path d="M73.3638 104.41C72.6589 106.878 75.7241 108.648 77.5083 106.803C85.0459 99.0127 98.2082 102.54 100.841 113.055C101.463 115.546 105.002 115.546 105.626 113.055C108.257 102.54 121.421 99.0127 128.957 106.803C130.743 108.648 133.808 106.878 133.102 104.41C132.117 100.964 132.513 97.6055 133.857 94.758L110.913 71.8132C107.943 68.6644 103.736 66.697 99.0658 66.697C95.7589 66.697 92.6857 67.686 90.117 69.3799C90.0759 69.3401 86.165 65.4279 85.9353 65.2048C80.2854 59.3784 72.3761 55.7543 63.6172 55.7543C57.9274 55.7543 52.5948 57.2836 48.0082 59.9532C58.2354 62.7967 61.59 75.7374 53.8918 83.186C52.0465 84.9702 53.8161 88.0354 56.284 87.3305C66.7063 84.3516 76.3427 93.988 73.3638 104.41V104.41Z" fill="url(#paint4_linear)"/>
<path d="M115.353 86.8447C115.198 86.8447 115.042 86.8473 114.887 86.8513C115.19 85.6114 115.353 84.3171 115.353 82.9843C115.353 73.989 108.061 66.697 99.0671 66.697C95.528 66.697 92.257 67.8293 89.586 69.7463C84.0237 61.3179 74.4709 55.7543 63.6185 55.7543C46.4471 55.7543 32.5281 69.6746 32.5281 86.846C32.5281 86.9509 32.5307 87.0557 32.5321 87.1606C21.6226 88.9753 13.3057 98.4538 13.3057 109.877C13.3057 122.599 23.6178 132.911 36.3381 132.911H115.353C128.073 132.911 138.385 122.599 138.385 109.877C138.385 97.1568 128.073 86.8447 115.353 86.8447V86.8447Z" fill="url(#paint5_radial)"/>
<path d="M138.385 109.877C138.385 122.599 128.073 132.911 115.353 132.911C102.633 132.911 92.3207 122.599 92.3207 109.877C92.3207 97.1568 102.633 86.8447 115.353 86.8447C128.073 86.8447 138.385 97.1568 138.385 109.877V109.877Z" fill="url(#paint6_linear)"/>
<path d="M115.353 82.9829C115.353 91.9782 108.061 99.2702 99.0658 99.2702C90.0719 99.2702 82.7798 91.9782 82.7798 82.9829C82.7798 73.989 90.0719 66.697 99.0658 66.697C108.061 66.697 115.353 73.989 115.353 82.9829V82.9829Z" fill="url(#paint7_linear)"/>
<path d="M94.7089 86.8447C94.7089 104.016 80.7886 117.936 63.6185 117.936C46.4471 117.936 32.5268 104.016 32.5268 86.8447C32.5268 69.6746 46.4471 55.7543 63.6185 55.7543C80.7886 55.7543 94.7089 69.6746 94.7089 86.8447Z" fill="url(#paint8_linear)"/>
<path d="M59.3704 109.877C59.3704 122.599 49.0583 132.911 36.3381 132.911C23.6178 132.911 13.3057 122.599 13.3057 109.877C13.3057 97.1568 23.6178 86.8447 36.3381 86.8447C49.0583 86.8447 59.3704 97.1568 59.3704 109.877V109.877Z" fill="url(#paint9_linear)"/>
<path d="M13.5194 113.014C15.05 124.251 24.6825 132.909 36.3381 132.909H115.353C127.009 132.909 136.641 124.251 138.172 113.014H13.5194Z" fill="url(#paint10_linear)"/>
<path d="M78.7973 132.911L77.5959 131.709C75.89 129.865 73.4514 128.711 70.7419 128.711C70.7101 128.711 70.6782 128.713 70.6477 128.714C70.6278 128.696 70.6105 128.677 70.5919 128.66L64.4269 122.495C61.7467 119.687 57.9686 117.936 53.7803 117.936C45.6466 117.936 39.0542 124.529 39.0542 132.663C39.0542 132.702 39.0568 132.742 39.0568 132.783C38.8816 132.818 38.709 132.862 38.5378 132.911H78.7973Z" fill="url(#paint11_linear)"/>
<path d="M59.1846 115.632C58.0111 115.632 57.0274 116.444 56.7619 117.535C56.6769 117.477 56.588 117.42 56.495 117.372L52.3373 113.209C52.2204 112.994 52.0744 112.794 51.8925 112.612C50.9208 111.636 49.3411 111.636 48.368 112.612L47.6246 113.356C47.6073 113.329 47.5914 113.301 47.5702 113.274C47.5463 113.24 47.5197 113.202 47.4918 113.168C47.4573 113.124 47.4241 113.079 47.3856 113.039C47.3591 113.005 47.3246 112.97 47.294 112.937C47.2569 112.898 47.2224 112.857 47.1812 112.82C47.1467 112.79 47.1135 112.759 47.075 112.725C47.0378 112.69 46.9967 112.657 46.9555 112.622C46.9184 112.592 46.8772 112.564 46.84 112.537C46.7989 112.507 46.7577 112.476 46.7139 112.448C46.69 112.431 46.6661 112.418 46.6422 112.405C46.6343 112.394 46.6316 112.383 46.625 112.377C46.5944 112.329 46.5639 112.281 46.5294 112.233C46.5055 112.199 46.4789 112.162 46.4511 112.127C46.4165 112.083 46.3834 112.04 46.3449 111.998C46.3183 111.964 46.2838 111.929 46.2533 111.896C46.2161 111.858 46.1816 111.818 46.1404 111.783C46.1059 111.749 46.0727 111.718 46.0342 111.684C45.9971 111.651 45.9559 111.616 45.9187 111.586C45.8776 111.555 45.8364 111.525 45.7993 111.497C45.7581 111.466 45.7169 111.436 45.6731 111.408C45.632 111.381 45.5869 111.353 45.543 111.325C45.4992 111.301 45.4581 111.278 45.4129 111.254C45.3652 111.227 45.3174 111.206 45.2696 111.183C45.2258 111.162 45.1846 111.142 45.1408 111.125C45.0864 111.101 45.0346 111.084 44.9802 111.067C44.935 111.049 44.8939 111.032 44.8501 111.019C44.7917 111.001 44.7346 110.988 44.6722 110.975C44.6324 110.964 44.5912 110.954 44.5501 110.944C44.481 110.93 44.4133 110.923 44.3456 110.913C44.3071 110.91 44.2726 110.899 44.2394 110.897C44.1332 110.886 44.0244 110.882 43.9155 110.882C43.8093 110.882 43.7005 110.886 43.5943 110.897C43.5597 110.899 43.5266 110.91 43.4881 110.913C43.4203 110.923 43.3526 110.93 43.2836 110.944C43.2425 110.954 43.2013 110.964 43.1615 110.975C43.0991 110.988 43.042 111.001 42.9836 111.019C42.9398 111.032 42.8947 111.049 42.8535 111.067C42.7991 111.084 42.7446 111.101 42.6929 111.125C42.6491 111.142 42.6079 111.162 42.5641 111.183C42.5163 111.206 42.4645 111.227 42.4207 111.254C42.3756 111.278 42.3344 111.301 42.2906 111.325C42.2468 111.353 42.2017 111.381 42.1605 111.408C42.1167 111.436 42.0756 111.466 42.0344 111.497C41.9933 111.525 41.9561 111.555 41.9149 111.586C41.8738 111.616 41.8366 111.651 41.7995 111.684C41.7623 111.718 41.7278 111.749 41.6933 111.783C41.6521 111.818 41.6189 111.858 41.5804 111.896C41.5499 111.929 41.5167 111.964 41.4888 111.998C41.4516 112.04 41.4171 112.083 41.3826 112.127C41.3561 112.162 41.3282 112.199 41.3043 112.233C41.2698 112.281 41.2392 112.329 41.2087 112.377C41.1848 112.411 41.1649 112.448 41.141 112.486C41.1131 112.537 41.0866 112.588 41.0587 112.64C41.0388 112.677 41.0215 112.714 41.0043 112.755C40.9804 112.807 40.9565 112.861 40.9326 112.92C40.9193 112.957 40.906 112.998 40.8914 113.035C40.8715 113.094 40.8516 113.151 40.837 113.209C40.8237 113.25 40.8131 113.291 40.8025 113.333C40.7892 113.39 40.7759 113.452 40.7653 113.513C40.7587 113.554 40.752 113.595 40.7454 113.635C40.7388 113.698 40.7281 113.761 40.7242 113.824C40.7242 113.837 40.7215 113.85 40.7215 113.865L40.5065 113.653L39.4657 112.612C38.4926 111.636 36.9142 111.636 35.9411 112.612C34.9654 113.585 34.9654 115.165 35.9411 116.136L40.7109 120.906V125.591C40.6671 125.543 40.6219 125.495 40.5742 125.45C40.4241 125.317 40.2569 125.205 40.0724 125.126L37.4532 122.329C37.3058 122.196 37.1346 122.086 36.9514 122.008C36.8452 121.96 36.7323 121.927 36.6168 121.903C36.5013 121.879 36.3819 121.868 36.2584 121.868C36.1363 121.868 36.0128 121.879 35.896 121.903C35.6716 121.578 35.3676 121.308 35.0159 121.121L30.8541 116.959C30.4346 116.171 29.6062 115.632 28.6504 115.632C27.2711 115.632 26.156 116.747 26.156 118.122V120.893L25.8188 120.552C25.6954 120.428 25.5653 120.323 25.4259 120.23C25.0104 119.958 24.5325 119.821 24.0546 119.821C23.416 119.821 22.7788 120.063 22.2903 120.552C21.3186 121.523 21.3186 123.103 22.2903 124.076L22.6315 124.417H19.8649C19.4481 124.417 19.0578 124.52 18.7126 124.7C22.9368 129.718 29.2637 132.911 36.3367 132.911H38.5457C35.438 133.779 33.1573 136.626 33.1573 140.012C33.1573 144.086 36.4602 147.389 40.5343 147.389H70.7393C75.898 147.389 80.0783 143.207 80.0783 138.05C80.0783 137.139 79.9443 136.26 79.7 135.426C69.6905 125.321 61.3856 116.959 61.3856 116.959C60.9688 116.171 60.1391 115.632 59.1846 115.632V115.632Z" fill="url(#paint12_linear)"/>
<path d="M43.9182 173.47C42.1473 173.47 40.7122 172.035 40.7122 170.264V149.101C40.7122 147.332 42.1473 145.897 43.9182 145.897C45.6877 145.897 47.1228 147.332 47.1228 149.101V170.264C47.1228 172.035 45.6877 173.47 43.9182 173.47V173.47Z" fill="url(#paint13_linear)"/>
<path d="M43.9182 138.454C42.1473 138.454 40.7122 137.019 40.7122 135.25V114.087C40.7122 112.317 42.1473 110.882 43.9182 110.882C45.6877 110.882 47.1228 112.317 47.1228 114.087V135.25C47.1228 137.019 45.6877 138.454 43.9182 138.454Z" fill="url(#paint14_linear)"/>
<path d="M36.9925 145.381H15.8293C14.0584 145.381 12.6233 143.946 12.6233 142.176C12.6233 140.406 14.0584 138.971 15.8293 138.971H36.9925C38.7621 138.971 40.1971 140.406 40.1971 142.176C40.1971 143.946 38.7621 145.381 36.9925 145.381Z" fill="url(#paint15_linear)"/>
<path d="M72.007 145.381H50.8438C49.0742 145.381 47.6379 143.946 47.6379 142.176C47.6379 140.406 49.0729 138.971 50.8438 138.971H72.007C73.778 138.971 75.213 140.406 75.213 142.176C75.2117 143.946 73.7766 145.381 72.007 145.381Z" fill="url(#paint16_linear)"/>
<path d="M24.0559 164.53C23.4187 164.53 22.7802 164.287 22.2943 163.799C21.3199 162.826 21.3199 161.248 22.2943 160.275L37.258 145.311C38.2311 144.337 39.8095 144.337 40.7839 145.311C41.757 146.284 41.757 147.863 40.7839 148.836L25.8188 163.799C25.333 164.287 24.6944 164.53 24.0559 164.53Z" fill="url(#paint17_linear)"/>
<path d="M48.8154 139.771C48.1768 139.771 47.5396 139.528 47.0524 139.041C46.078 138.068 46.078 136.49 47.0524 135.515L62.0162 120.552C62.9906 119.579 64.569 119.579 65.542 120.552C66.5151 121.526 66.5151 123.103 65.542 124.077L50.5783 139.041C50.0911 139.527 49.4526 139.771 48.8154 139.771Z" fill="url(#paint18_linear)"/>
<path d="M39.021 139.771C38.3824 139.771 37.7452 139.528 37.258 139.041L22.2943 124.077C21.3199 123.103 21.3199 121.526 22.2943 120.552C23.2673 119.579 24.8458 119.579 25.8188 120.552L40.7839 135.515C41.757 136.49 41.757 138.068 40.7839 139.041C40.2967 139.527 39.6582 139.771 39.021 139.771Z" fill="url(#paint19_linear)"/>
<path d="M63.7791 164.53C63.1419 164.53 62.5034 164.287 62.0162 163.799L47.0524 148.836C46.0794 147.863 46.0794 146.284 47.0524 145.311C48.0268 144.337 49.6039 144.337 50.5783 145.311L65.5421 160.275C66.5165 161.248 66.5165 162.826 65.5421 163.799C65.0549 164.287 64.4177 164.53 63.7791 164.53Z" fill="url(#paint20_linear)"/>
<path d="M47.1228 149.101V155.806L40.7122 149.396V149.101C40.7122 147.332 42.1486 145.897 43.9182 145.897C45.6877 145.897 47.1228 147.332 47.1228 149.101V149.101Z" fill="url(#paint21_linear)"/>
<path d="M40.7122 157.081H47.1228V164.19L40.7135 157.78H40.7122V157.081Z" fill="url(#paint22_linear)"/>
<path d="M51.1053 138.981L57.5053 145.381H50.8438C49.0729 145.381 47.6392 143.945 47.6392 142.175C47.6392 140.406 49.0729 138.97 50.8438 138.97H51.1438L51.1053 138.981Z" fill="url(#paint23_linear)"/>
<path d="M65.9377 145.381H58.5248V138.97H59.5271L65.9377 145.381Z" fill="url(#paint24_linear)"/>
<path d="M63.7791 164.53C63.1419 164.53 62.5034 164.287 62.0162 163.799L47.0524 148.836C46.0794 147.863 46.0794 146.284 47.0524 145.311C48.0268 144.337 49.6039 144.337 50.5783 145.311L65.5421 160.275C66.5165 161.248 66.5165 162.826 65.5421 163.799C65.0549 164.287 64.4177 164.53 63.7791 164.53Z" fill="url(#paint25_linear)"/>
<path d="M47.1228 127.317V114.087C47.1228 114.012 47.1188 113.938 47.1148 113.865L43.9182 117.062L40.7215 113.865C40.7162 113.938 40.7135 114.012 40.7135 114.087V120.907L47.1228 127.317Z" fill="url(#paint26_linear)"/>
<path d="M65.2022 124.416L59.1859 130.434L57.4641 128.712C56.9875 128.258 56.6915 127.619 56.6915 126.91V125.876L61.6763 120.891L65.2022 124.416Z" fill="url(#paint27_linear)"/>
<path d="M48.368 112.612L43.9182 117.062L39.4683 112.612C38.4939 111.637 36.9155 111.637 35.9425 112.612C34.9681 113.585 34.9681 115.163 35.9425 116.136L42.1552 122.349C42.6424 122.836 43.2796 123.079 43.9182 123.079C44.5554 123.079 45.1939 122.836 45.6811 122.349L51.8939 116.136C52.8669 115.163 52.8669 113.585 51.8939 112.612C50.9195 111.637 49.3411 111.637 48.368 112.612V112.612Z" fill="url(#paint28_linear)"/>
<path d="M45.6811 162.002C44.7067 161.029 43.1296 161.029 42.1552 162.002L35.9425 168.215C34.9681 169.189 34.9681 170.766 35.9425 171.741C36.9155 172.714 38.4939 172.714 39.4683 171.741L43.9182 167.291L48.368 171.741C48.8552 172.226 49.4937 172.471 50.1309 172.471C50.7695 172.471 51.4067 172.226 51.8939 171.741C52.8669 170.766 52.8669 169.189 51.8939 168.215L45.6811 162.002Z" fill="url(#paint29_linear)"/>
<path d="M69.0321 142.175L73.4832 137.726C74.4563 136.753 74.4563 135.174 73.4832 134.2C72.5088 133.227 70.9304 133.227 69.9574 134.2L63.7446 140.414C62.7702 141.387 62.7702 142.965 63.7446 143.938L69.9574 150.151C70.4446 150.638 71.0818 150.881 71.7203 150.881C72.3575 150.881 72.996 150.638 73.4832 150.151C74.4563 149.178 74.4563 147.6 73.4832 146.627L69.0321 142.175Z" fill="url(#paint30_linear)"/>
<path d="M24.0917 143.938C25.0648 142.965 25.0648 141.387 24.0917 140.413L17.879 134.2C16.9046 133.227 15.3262 133.227 14.3531 134.2C13.3787 135.174 13.3787 136.751 14.3531 137.726L18.8029 142.175L14.3531 146.625C13.3787 147.6 13.3787 149.177 14.3531 150.151C14.8403 150.637 15.4775 150.881 16.116 150.881C16.7532 150.881 17.3918 150.637 17.879 150.151L24.0917 143.938Z" fill="url(#paint31_linear)"/>
<path d="M59.1833 129.403H67.9701C69.3467 129.403 70.4632 128.287 70.4632 126.91C70.4632 125.534 69.3467 124.417 67.9701 124.417H61.6763V118.124C61.6763 116.747 60.5612 115.63 59.1833 115.63C57.8066 115.63 56.6902 116.747 56.6902 118.124V126.91C56.6902 128.287 57.8066 129.403 59.1833 129.403Z" fill="url(#paint32_linear)"/>
<path d="M28.6517 154.949H19.8663C18.4896 154.949 17.3732 156.065 17.3732 157.442C17.3732 158.819 18.4896 159.935 19.8663 159.935H26.16V166.229C26.16 167.605 27.2751 168.72 28.6517 168.72C30.0284 168.72 31.1448 167.605 31.1448 166.229V157.442C31.1448 156.065 30.0284 154.949 28.6517 154.949Z" fill="url(#paint33_linear)"/>
<path d="M67.9701 154.949H59.1833C57.8066 154.949 56.6902 156.065 56.6902 157.442V166.229C56.6902 167.605 57.8066 168.72 59.1833 168.72C60.5612 168.72 61.6763 167.605 61.6763 166.229V159.935H67.9701C69.3467 159.935 70.4632 158.819 70.4632 157.442C70.4632 156.065 69.3467 154.949 67.9701 154.949V154.949Z" fill="url(#paint34_linear)"/>
<path d="M28.6517 115.63C27.2751 115.63 26.16 116.747 26.16 118.124V124.417H19.8663C18.4896 124.417 17.3732 125.532 17.3732 126.91C17.3732 128.287 18.4896 129.403 19.8663 129.403H28.6517C30.0284 129.403 31.1448 128.287 31.1448 126.91V118.124C31.1448 116.747 30.0284 115.63 28.6517 115.63Z" fill="url(#paint35_linear)"/>
<path d="M47.1228 126.567V135.251C47.1228 135.318 47.1215 135.384 47.1175 135.45C47.0869 135.94 46.9476 136.398 46.7219 136.803L40.7122 130.793V126.567H47.1228Z" fill="url(#paint36_linear)"/>
<path d="M38.4939 145.01C38.0452 145.246 37.5355 145.381 36.9925 145.381H28.3092V138.97H32.4551L38.4939 145.01Z" fill="url(#paint37_linear)"/>
<path d="M56.718 132.901L53.7683 135.849L50.5783 139.041C50.0898 139.527 49.4526 139.771 48.8154 139.771C48.1768 139.771 47.5396 139.527 47.0511 139.041C46.5891 138.578 46.3449 137.977 46.3223 137.367C46.2997 136.7 46.5427 136.025 47.0511 135.515L47.1175 135.45L53.1922 129.376L56.718 132.901Z" fill="url(#paint38_linear)"/>
<path d="M41.5127 137.367C41.4901 137.977 41.2459 138.578 40.7839 139.041C40.3193 139.503 39.7179 139.747 39.1099 139.77C39.0807 139.771 39.0488 139.771 39.0196 139.771C38.3824 139.771 37.7452 139.527 37.258 139.041L37.193 138.976L34.0667 135.849L31.1183 132.901L34.6441 129.376L37.5912 132.325L40.7189 135.45L40.7839 135.515C41.2923 136.025 41.5353 136.7 41.5127 137.367Z" fill="url(#paint39_linear)"/>
<path d="M43.9182 150.053C41.8141 150.053 39.8347 149.234 38.3479 147.746C36.8598 146.259 36.0394 144.28 36.0394 142.176C36.0394 140.071 36.8598 138.093 38.3479 136.605C39.8347 135.117 41.8141 134.298 43.9182 134.298C46.0223 134.298 48.0003 135.117 49.4884 136.605C50.9766 138.093 51.7956 140.071 51.7956 142.176C51.7956 144.28 50.9766 146.259 49.4884 147.746C48.0003 149.234 46.0223 150.053 43.9182 150.053ZM43.9182 138.468C42.9278 138.468 41.9959 138.854 41.2963 139.554C40.5954 140.255 40.2091 141.185 40.2091 142.176C40.2091 143.166 40.5954 144.098 41.2963 144.797C41.9959 145.498 42.9278 145.883 43.9182 145.883C44.9085 145.883 45.8391 145.498 46.54 144.797C47.2409 144.098 47.6259 143.166 47.6259 142.176C47.6259 141.185 47.2409 140.255 46.54 139.554C45.8391 138.854 44.9085 138.468 43.9182 138.468Z" fill="url(#paint40_radial)"/>
<path d="M49.5203 157.784H38.3161C37.7638 157.784 37.2328 157.565 36.8425 157.174L28.9199 149.252C28.5283 148.861 28.3092 148.331 28.3092 147.778V136.575C28.3092 136.021 28.5283 135.491 28.9199 135.1L36.8425 127.177C37.2328 126.787 37.7638 126.567 38.3161 126.567H49.5203C50.0725 126.567 50.6035 126.787 50.9938 127.177L58.9164 135.1C59.308 135.491 59.5271 136.021 59.5271 136.575V147.778C59.5271 148.331 59.308 148.861 58.9164 149.252L50.9938 157.174C50.6035 157.565 50.0725 157.784 49.5203 157.784ZM39.1803 153.615H48.6561L55.3574 146.913V137.438L48.6561 130.736H39.1803L32.479 137.438V146.913L39.1803 153.615Z" fill="url(#paint41_linear)"/>
<path d="M38.0426 123.65C38.0426 124.635 37.2448 125.434 36.2597 125.434C35.2747 125.434 34.4756 124.635 34.4756 123.65C34.4756 122.665 35.2747 121.867 36.2597 121.867C37.2448 121.867 38.0426 122.665 38.0426 123.65Z" fill="url(#paint42_radial)"/>
<path d="M53.3701 123.65C53.3701 124.635 52.5709 125.434 51.5859 125.434C50.6009 125.434 49.803 124.635 49.803 123.65C49.803 122.665 50.6009 121.867 51.5859 121.867C52.5709 121.867 53.3701 122.665 53.3701 123.65Z" fill="url(#paint43_radial)"/>
<path d="M38.0426 160.701C38.0426 161.686 37.2448 162.484 36.2597 162.484C35.2747 162.484 34.4756 161.686 34.4756 160.701C34.4756 159.716 35.2747 158.918 36.2597 158.918C37.2448 158.918 38.0426 159.716 38.0426 160.701Z" fill="url(#paint44_radial)"/>
<path d="M53.3701 160.701C53.3701 161.686 52.5709 162.484 51.5859 162.484C50.6009 162.484 49.803 161.686 49.803 160.701C49.803 159.716 50.6009 158.918 51.5859 158.918C52.5709 158.918 53.3701 159.716 53.3701 160.701Z" fill="url(#paint45_radial)"/>
<path d="M64.2318 134.512C64.2318 135.497 63.4326 136.296 62.4476 136.296C61.4626 136.296 60.6648 135.497 60.6648 134.512C60.6648 133.527 61.4626 132.729 62.4476 132.729C63.4326 132.729 64.2318 133.527 64.2318 134.512Z" fill="url(#paint46_radial)"/>
<path d="M64.2318 149.839C64.2318 150.824 63.4326 151.622 62.4476 151.622C61.4626 151.622 60.6648 150.824 60.6648 149.839C60.6648 148.854 61.4626 148.056 62.4476 148.056C63.4326 148.056 64.2318 148.854 64.2318 149.839Z" fill="url(#paint47_radial)"/>
<path d="M27.1809 134.512C27.1809 135.497 26.3817 136.295 25.3967 136.295C24.413 136.295 23.6138 135.497 23.6138 134.512C23.6138 133.527 24.413 132.729 25.3967 132.729C26.3817 132.729 27.1809 133.527 27.1809 134.512Z" fill="url(#paint48_radial)"/>
<path d="M27.1809 149.839C27.1809 150.824 26.3817 151.622 25.3967 151.622C24.413 151.622 23.6138 150.824 23.6138 149.839C23.6138 148.854 24.413 148.056 25.3967 148.056C26.3817 148.056 27.1809 148.854 27.1809 149.839Z" fill="url(#paint49_radial)"/>
<path d="M75.2117 142.175C75.2117 140.48 73.8961 139.093 72.2287 138.979L73.4832 137.726C74.4563 136.753 74.4563 135.174 73.4832 134.2C72.5089 133.227 70.9304 133.227 69.9574 134.2L65.1863 138.971H59.5271V136.575C59.5271 136.021 59.308 135.491 58.9164 135.1L56.7181 132.901L60.2161 129.403H67.9701C69.3467 129.403 70.4632 128.287 70.4632 126.91C70.4632 125.534 69.348 124.417 67.9701 124.417H65.2022L65.5421 124.077C66.5164 123.103 66.5164 121.526 65.5434 120.552C64.569 119.579 62.9906 119.579 62.0175 120.552L61.6763 120.891V118.124C61.6763 116.747 60.5612 115.631 59.1846 115.631C57.8066 115.631 56.6915 116.747 56.6915 118.124V125.878L53.1935 129.376L50.9938 127.177C50.6035 126.787 50.0725 126.567 49.5203 126.567H47.1241V120.907L51.8939 116.138C52.8683 115.163 52.8683 113.585 51.8939 112.612C50.9208 111.639 49.3424 111.639 48.368 112.612L47.1148 113.865C47.0007 112.199 45.6134 110.882 43.9182 110.882C42.2229 110.882 40.8357 112.199 40.7215 113.865L39.4683 112.612C38.4939 111.639 36.9169 111.639 35.9425 112.612C34.9694 113.585 34.9694 115.163 35.9425 116.138L40.7135 120.907V126.567H38.3161C37.7638 126.567 37.2328 126.787 36.8425 127.177L34.6441 129.376L31.1461 125.878V118.124C31.1461 116.747 30.0297 115.631 28.6531 115.631C27.2764 115.631 26.16 116.747 26.16 118.124V120.893L25.8202 120.552C24.8458 119.579 23.2673 119.579 22.2943 120.552C21.3199 121.526 21.3199 123.103 22.2943 124.077L22.6341 124.417H19.8663C18.4896 124.417 17.3732 125.534 17.3732 126.91C17.3732 128.287 18.4896 129.403 19.8663 129.403H27.6203L31.1183 132.901L28.9199 135.1C28.5283 135.491 28.3092 136.021 28.3092 136.575V138.971H22.6487L17.879 134.2C16.9046 133.227 15.3275 133.227 14.3531 134.2C13.38 135.174 13.38 136.753 14.3531 137.726L15.6076 138.979C13.9402 139.093 12.6233 140.48 12.6233 142.175C12.6233 143.872 13.9402 145.258 15.6063 145.372L14.3531 146.625C13.3787 147.6 13.3787 149.178 14.3531 150.151C14.8403 150.638 15.4775 150.881 16.116 150.881C16.7532 150.881 17.3918 150.638 17.879 150.151L22.6487 145.38H28.3079V147.778C28.3079 148.33 28.5283 148.861 28.9186 149.251L31.1169 151.45L27.6189 154.949H19.8663C18.4896 154.949 17.3732 156.065 17.3732 157.442C17.3732 158.819 18.4896 159.935 19.8663 159.935H22.6341L22.2943 160.275C21.3199 161.248 21.3199 162.826 22.2943 163.799C22.7802 164.287 23.4187 164.53 24.0559 164.53C24.6944 164.53 25.333 164.287 25.8188 163.799L26.16 163.46V166.229C26.16 167.605 27.2751 168.72 28.6517 168.72C30.0284 168.72 31.1448 167.605 31.1448 166.229V158.475L34.6428 154.975L36.8425 157.174C37.2328 157.565 37.7638 157.784 38.3161 157.784H40.7122V163.445L35.9425 168.215C34.9681 169.189 34.9681 170.766 35.9425 171.741C36.9155 172.714 38.4939 172.714 39.4683 171.741L40.7215 170.486C40.8357 172.153 42.2229 173.47 43.9182 173.47C45.6134 173.47 47.0007 172.153 47.1148 170.486L48.368 171.741C48.8552 172.226 49.4937 172.471 50.1309 172.471C50.7695 172.471 51.4067 172.226 51.8939 171.741C52.8669 170.766 52.8669 169.189 51.8939 168.215L47.1228 163.445V157.784H49.519C50.0725 157.784 50.6035 157.565 50.9938 157.174L53.1922 154.975L56.6902 158.475V166.229C56.6902 167.605 57.8066 168.72 59.1833 168.72C60.5599 168.72 61.6763 167.605 61.6763 166.229V163.46L62.0162 163.801C62.5034 164.287 63.1406 164.531 63.7791 164.531C64.4176 164.531 65.0549 164.287 65.5421 163.801C66.5151 162.826 66.5151 161.249 65.5421 160.275L65.2022 159.935H67.9701C69.3467 159.935 70.4632 158.819 70.4632 157.442C70.4632 156.065 69.3467 154.949 67.9701 154.949H60.2161L56.7181 151.451L58.9151 149.252C59.3067 148.862 59.5271 148.331 59.5271 147.779V145.381H65.1863L69.9574 150.151C70.4432 150.638 71.0818 150.881 71.719 150.881C72.3575 150.881 72.996 150.638 73.4819 150.151C74.4563 149.178 74.4563 147.6 73.4819 146.627L72.2287 145.373C73.8961 145.258 75.2117 143.871 75.2117 142.175V142.175ZM39.1803 130.736H40.7122V134.976C40.606 135.024 40.4998 135.075 40.3949 135.126L39.5931 134.326L37.5912 132.324L39.1803 130.736ZM32.479 137.438L34.0667 135.85L36.8691 138.652C36.8173 138.757 36.7668 138.863 36.7191 138.971H32.479V137.438ZM34.0667 148.501L32.479 146.913V145.381H36.7204C36.7682 145.488 36.8173 145.594 36.8704 145.699L34.0667 148.501ZM40.7122 153.615H39.1803L37.5926 152.027L40.3949 149.223C40.4998 149.276 40.606 149.327 40.7122 149.375V149.396H40.7135V153.615H40.7122ZM46.54 144.797C45.8391 145.498 44.9085 145.883 43.9182 145.883C42.9278 145.883 41.9959 145.498 41.2963 144.797C40.5954 144.096 40.2091 143.166 40.2091 142.175C40.2091 141.185 40.5954 140.255 41.2963 139.554C41.9959 138.854 42.9265 138.468 43.9182 138.468C44.9072 138.468 45.8391 138.853 46.54 139.554C47.2396 140.253 47.6259 141.185 47.6259 142.175C47.6259 143.166 47.2396 144.096 46.54 144.797ZM48.6561 153.615H47.1228V149.375C47.2303 149.327 47.3365 149.276 47.4401 149.223L50.2438 152.027L48.6561 153.615ZM48.2419 134.326L47.4401 135.128C47.3365 135.075 47.2303 135.025 47.1228 134.978V130.736H48.6561L50.2438 132.324L48.2419 134.326ZM55.3574 146.913L53.7697 148.501L50.9659 145.699C51.019 145.594 51.0682 145.488 51.116 145.381H55.3574V146.913ZM55.3574 138.971H51.1425L51.1438 138.97H51.116C51.0682 138.863 51.019 138.757 50.9673 138.652L53.7697 135.85L55.3574 137.438V138.971Z" fill="url(#paint50_linear)"/>
<path d="M38.0426 123.65C38.0426 124.635 37.2448 125.434 36.2597 125.434C35.2747 125.434 34.4756 124.635 34.4756 123.65C34.4756 122.665 35.2747 121.867 36.2597 121.867C37.2448 121.867 38.0426 122.665 38.0426 123.65Z" fill="url(#paint51_linear)"/>
<path d="M53.3701 123.65C53.3701 124.635 52.5709 125.434 51.5859 125.434C50.6009 125.434 49.803 124.635 49.803 123.65C49.803 122.665 50.6009 121.867 51.5859 121.867C52.5709 121.867 53.3701 122.665 53.3701 123.65Z" fill="url(#paint52_linear)"/>
<path d="M38.0426 160.701C38.0426 161.686 37.2448 162.484 36.2597 162.484C35.2747 162.484 34.4756 161.686 34.4756 160.701C34.4756 159.716 35.2747 158.918 36.2597 158.918C37.2448 158.918 38.0426 159.716 38.0426 160.701Z" fill="url(#paint53_linear)"/>
<path d="M53.3701 160.701C53.3701 161.686 52.5709 162.484 51.5859 162.484C50.6009 162.484 49.803 161.686 49.803 160.701C49.803 159.716 50.6009 158.918 51.5859 158.918C52.5709 158.918 53.3701 159.716 53.3701 160.701Z" fill="url(#paint54_linear)"/>
<path d="M64.2318 134.512C64.2318 135.497 63.4326 136.296 62.4476 136.296C61.4626 136.296 60.6648 135.497 60.6648 134.512C60.6648 133.527 61.4626 132.729 62.4476 132.729C63.4326 132.729 64.2318 133.527 64.2318 134.512Z" fill="url(#paint55_linear)"/>
<path d="M64.2318 149.839C64.2318 150.824 63.4326 151.622 62.4476 151.622C61.4626 151.622 60.6648 150.824 60.6648 149.839C60.6648 148.854 61.4626 148.056 62.4476 148.056C63.4326 148.056 64.2318 148.854 64.2318 149.839Z" fill="url(#paint56_linear)"/>
<path d="M27.1809 134.512C27.1809 135.497 26.3817 136.295 25.3967 136.295C24.413 136.295 23.6138 135.497 23.6138 134.512C23.6138 133.527 24.413 132.729 25.3967 132.729C26.3817 132.729 27.1809 133.527 27.1809 134.512Z" fill="url(#paint57_linear)"/>
<path d="M27.1809 149.839C27.1809 150.824 26.3817 151.622 25.3967 151.622C24.413 151.622 23.6138 150.824 23.6138 149.839C23.6138 148.854 24.413 148.056 25.3967 148.056C26.3817 148.056 27.1809 148.854 27.1809 149.839Z" fill="url(#paint58_linear)"/>
<path d="M123.635 172.893C122.547 172.893 121.665 172.011 121.665 170.923V157.914C121.665 156.827 122.548 155.944 123.635 155.944C124.723 155.944 125.605 156.827 125.605 157.914V170.923C125.605 172.011 124.724 172.893 123.635 172.893V172.893Z" fill="url(#paint59_linear)"/>
<path d="M123.635 151.371C122.547 151.371 121.665 150.488 121.665 149.401V136.393C121.665 135.304 122.548 134.423 123.635 134.423C124.723 134.423 125.605 135.304 125.605 136.393V149.401C125.605 150.488 124.724 151.371 123.635 151.371V151.371Z" fill="url(#paint60_linear)"/>
<path d="M119.378 155.629H106.37C105.283 155.629 104.4 154.746 104.4 153.659C104.4 152.57 105.283 151.688 106.37 151.688H119.378C120.467 151.688 121.348 152.57 121.348 153.659C121.348 154.746 120.467 155.629 119.378 155.629V155.629Z" fill="url(#paint61_linear)"/>
<path d="M140.901 155.629H127.893C126.804 155.629 125.923 154.746 125.923 153.659C125.923 152.57 126.804 151.688 127.893 151.688H140.901C141.988 151.688 142.871 152.57 142.871 153.659C142.871 154.746 141.988 155.629 140.901 155.629V155.629Z" fill="url(#paint62_linear)"/>
<path d="M111.428 167.398C111.035 167.398 110.643 167.248 110.344 166.95C109.746 166.351 109.746 165.38 110.344 164.783L119.541 155.585C120.14 154.986 121.11 154.986 121.709 155.585C122.308 156.183 122.308 157.154 121.709 157.753L112.511 166.95C112.212 167.248 111.819 167.398 111.428 167.398V167.398Z" fill="url(#paint63_linear)"/>
<path d="M126.645 152.18C126.253 152.18 125.862 152.031 125.562 151.731C124.964 151.132 124.964 150.163 125.562 149.564L134.76 140.366C135.359 139.769 136.329 139.769 136.927 140.366C137.525 140.965 137.525 141.935 136.927 142.534L127.729 151.731C127.429 152.031 127.038 152.18 126.645 152.18V152.18Z" fill="url(#paint64_linear)"/>
<path d="M120.626 152.18C120.233 152.18 119.841 152.031 119.541 151.731L110.344 142.534C109.746 141.935 109.746 140.965 110.344 140.366C110.943 139.767 111.912 139.767 112.511 140.366L121.709 149.564C122.308 150.162 122.308 151.132 121.709 151.731C121.409 152.031 121.018 152.18 120.626 152.18V152.18Z" fill="url(#paint65_linear)"/>
<path d="M135.843 167.398C135.452 167.398 135.059 167.248 134.76 166.95L125.562 157.753C124.964 157.154 124.964 156.183 125.562 155.585C126.16 154.986 127.131 154.986 127.729 155.585L136.927 164.783C137.525 165.38 137.525 166.351 136.927 166.95C136.628 167.248 136.236 167.398 135.843 167.398Z" fill="url(#paint66_linear)"/>
<path d="M125.605 157.914V162.036L121.665 158.096V157.914C121.665 156.827 122.548 155.944 123.635 155.944C124.723 155.944 125.605 156.827 125.605 157.914Z" fill="url(#paint67_linear)"/>
<path d="M121.665 162.82H125.605V167.189L121.665 163.25V162.82Z" fill="url(#paint68_linear)"/>
<path d="M128.053 151.694L131.987 155.629H127.891C126.804 155.629 125.923 154.746 125.923 153.657C125.923 152.57 126.804 151.687 127.891 151.687H128.077L128.053 151.694Z" fill="url(#paint69_linear)"/>
<path d="M137.171 155.629H132.613V151.687H133.229L137.171 155.629Z" fill="url(#paint70_linear)"/>
<path d="M135.843 167.398C135.452 167.398 135.059 167.248 134.76 166.95L125.562 157.753C124.964 157.154 124.964 156.183 125.562 155.585C126.16 154.986 127.131 154.986 127.729 155.585L136.927 164.783C137.525 165.38 137.525 166.351 136.927 166.95C136.628 167.248 136.236 167.398 135.843 167.398Z" fill="url(#paint71_linear)"/>
<path d="M125.605 144.525V136.393C125.605 136.346 125.603 136.301 125.6 136.256L123.635 138.221L121.671 136.256C121.667 136.301 121.665 136.346 121.665 136.393V140.585L125.605 144.525Z" fill="url(#paint72_linear)"/>
<path d="M136.718 142.742L133.02 146.441L131.962 145.383C131.67 145.103 131.486 144.711 131.486 144.274V143.64L134.55 140.576L136.718 142.742Z" fill="url(#paint73_linear)"/>
<path d="M126.371 135.486L123.635 138.221L120.899 135.486C120.302 134.887 119.332 134.887 118.733 135.486C118.134 136.084 118.134 137.054 118.733 137.653L122.552 141.472C122.851 141.771 123.242 141.921 123.635 141.921C124.027 141.921 124.419 141.771 124.719 141.472L128.537 137.653C129.135 137.054 129.135 136.084 128.537 135.486C127.939 134.887 126.97 134.887 126.371 135.486Z" fill="url(#paint74_linear)"/>
<path d="M124.719 165.845C124.12 165.246 123.151 165.246 122.552 165.845L118.733 169.663C118.134 170.262 118.134 171.232 118.733 171.831C119.332 172.43 120.302 172.43 120.901 171.831L123.635 169.095L126.371 171.831C126.67 172.13 127.062 172.28 127.455 172.28C127.846 172.28 128.239 172.13 128.538 171.831C129.137 171.232 129.137 170.262 128.538 169.663L124.719 165.845Z" fill="url(#paint75_linear)"/>
<path d="M139.073 153.657L141.808 150.922C142.406 150.324 142.406 149.353 141.808 148.756C141.209 148.157 140.239 148.157 139.641 148.756L135.822 152.574C135.223 153.173 135.223 154.143 135.822 154.742L139.641 158.56C139.94 158.858 140.332 159.008 140.725 159.008C141.116 159.008 141.509 158.858 141.808 158.56C142.406 157.962 142.406 156.992 141.808 156.393L139.073 153.657Z" fill="url(#paint76_linear)"/>
<path d="M111.449 154.742C112.048 154.143 112.048 153.173 111.449 152.574L107.631 148.756C107.032 148.157 106.062 148.157 105.463 148.756C104.864 149.353 104.864 150.324 105.463 150.922L108.199 153.657L105.463 156.393C104.864 156.992 104.864 157.962 105.463 158.561C105.762 158.86 106.155 159.01 106.546 159.01C106.939 159.01 107.331 158.86 107.631 158.561L111.449 154.742Z" fill="url(#paint77_linear)"/>
<path d="M133.018 145.808H138.42C139.266 145.808 139.952 145.121 139.952 144.274C139.952 143.429 139.266 142.742 138.42 142.742H134.55V138.874C134.55 138.028 133.865 137.342 133.018 137.342C132.173 137.342 131.486 138.028 131.486 138.874V144.276C131.486 145.121 132.173 145.808 133.018 145.808Z" fill="url(#paint78_linear)"/>
<path d="M114.253 161.509H108.851C108.005 161.509 107.319 162.194 107.319 163.041C107.319 163.887 108.005 164.573 108.851 164.573H112.721V168.442C112.721 169.289 113.406 169.974 114.253 169.974C115.098 169.974 115.785 169.289 115.785 168.442V163.041C115.785 162.194 115.098 161.509 114.253 161.509Z" fill="url(#paint79_linear)"/>
<path d="M138.42 161.509H133.018C132.173 161.509 131.486 162.194 131.486 163.041V168.442C131.486 169.289 132.173 169.974 133.018 169.974C133.865 169.974 134.55 169.289 134.55 168.442V164.573H138.42C139.266 164.573 139.952 163.887 139.952 163.041C139.952 162.194 139.266 161.509 138.42 161.509V161.509Z" fill="url(#paint80_linear)"/>
<path d="M114.253 137.342C113.406 137.342 112.721 138.028 112.721 138.874V142.742H108.851C108.005 142.742 107.319 143.429 107.319 144.274C107.319 145.12 108.005 145.806 108.851 145.806H114.253C115.098 145.806 115.785 145.12 115.785 144.274V138.874C115.785 138.028 115.098 137.342 114.253 137.342V137.342Z" fill="url(#paint81_linear)"/>
<path d="M125.605 144.063V149.401C125.605 149.442 125.604 149.483 125.601 149.525C125.583 149.825 125.498 150.106 125.359 150.356L121.665 146.661V144.065H125.605V144.063Z" fill="url(#paint82_linear)"/>
<path d="M120.302 155.4C120.026 155.545 119.713 155.629 119.379 155.629H114.041V151.687H116.589L120.302 155.4Z" fill="url(#paint83_linear)"/>
<path d="M131.504 147.957L129.69 149.769L127.729 151.731C127.429 152.03 127.038 152.18 126.646 152.18C126.253 152.18 125.862 152.03 125.562 151.731C125.278 151.447 125.128 151.076 125.113 150.702C125.1 150.292 125.248 149.878 125.562 149.564L125.601 149.525L127.524 147.604L129.336 145.79L131.504 147.957Z" fill="url(#paint84_linear)"/>
<path d="M122.157 150.702C122.143 151.076 121.993 151.447 121.709 151.731C121.424 152.016 121.053 152.166 120.679 152.18C120.662 152.18 120.643 152.18 120.625 152.18C120.233 152.18 119.84 152.03 119.541 151.731L119.502 151.691L117.581 149.769L115.767 147.957L117.935 145.79L119.747 147.602L121.668 149.525L121.708 149.564C122.023 149.878 122.171 150.292 122.157 150.702V150.702Z" fill="url(#paint85_linear)"/>
<path d="M123.635 158.5C122.342 158.5 121.126 157.997 120.212 157.082C119.297 156.168 118.793 154.952 118.793 153.657C118.793 152.364 119.297 151.148 120.212 150.234C121.126 149.319 122.342 148.816 123.635 148.816C124.928 148.816 126.144 149.319 127.059 150.234C127.974 151.148 128.478 152.364 128.478 153.657C128.478 154.952 127.974 156.168 127.059 157.082C126.144 157.997 124.928 158.5 123.635 158.5V158.5ZM123.635 151.379C123.027 151.379 122.454 151.617 122.024 152.047C121.594 152.477 121.356 153.049 121.356 153.659C121.356 154.267 121.594 154.839 122.024 155.27C122.454 155.7 123.026 155.938 123.635 155.938C124.245 155.938 124.817 155.7 125.247 155.27C125.677 154.839 125.915 154.267 125.915 153.659C125.915 153.049 125.677 152.477 125.247 152.047C124.817 151.615 124.245 151.379 123.635 151.379Z" fill="url(#paint86_radial)"/>
<path d="M127.079 163.252H120.192C119.852 163.252 119.527 163.117 119.286 162.877L114.417 158.007C114.177 157.767 114.041 157.441 114.041 157.101V150.215C114.041 149.875 114.176 149.549 114.417 149.308L119.286 144.439C119.527 144.199 119.852 144.065 120.192 144.065H127.079C127.419 144.065 127.744 144.199 127.984 144.439L132.854 149.308C133.095 149.549 133.229 149.875 133.229 150.215V157.101C133.229 157.441 133.095 157.767 132.854 158.007L127.984 162.877C127.744 163.117 127.419 163.252 127.079 163.252V163.252ZM120.723 160.689H126.548L130.666 156.571V150.746L126.548 146.627H120.723L116.605 150.746V156.571L120.723 160.689Z" fill="url(#paint87_linear)"/>
<path d="M120.023 142.271C120.023 142.876 119.533 143.368 118.928 143.368C118.323 143.368 117.832 142.876 117.832 142.271C117.832 141.666 118.323 141.175 118.928 141.175C119.533 141.175 120.023 141.666 120.023 142.271Z" fill="url(#paint88_radial)"/>
<path d="M129.445 142.271C129.445 142.876 128.955 143.368 128.349 143.368C127.744 143.368 127.253 142.876 127.253 142.271C127.253 141.666 127.744 141.175 128.349 141.175C128.955 141.175 129.445 141.666 129.445 142.271Z" fill="url(#paint89_radial)"/>
<path d="M120.023 165.045C120.023 165.65 119.533 166.141 118.928 166.141C118.323 166.141 117.832 165.65 117.832 165.045C117.832 164.439 118.323 163.949 118.928 163.949C119.533 163.949 120.023 164.439 120.023 165.045Z" fill="url(#paint90_radial)"/>
<path d="M129.445 165.045C129.445 165.65 128.955 166.141 128.349 166.141C127.744 166.141 127.253 165.65 127.253 165.045C127.253 164.439 127.744 163.949 128.349 163.949C128.955 163.949 129.445 164.439 129.445 165.045Z" fill="url(#paint91_radial)"/>
<path d="M136.122 148.947C136.122 149.552 135.631 150.044 135.025 150.044C134.42 150.044 133.929 149.552 133.929 148.947C133.929 148.342 134.42 147.852 135.025 147.852C135.631 147.852 136.122 148.342 136.122 148.947Z" fill="url(#paint92_radial)"/>
<path d="M136.122 158.368C136.122 158.974 135.631 159.465 135.025 159.465C134.42 159.465 133.929 158.974 133.929 158.368C133.929 157.763 134.42 157.272 135.025 157.272C135.631 157.272 136.122 157.763 136.122 158.368Z" fill="url(#paint93_radial)"/>
<path d="M113.347 148.947C113.347 149.552 112.857 150.044 112.252 150.044C111.647 150.044 111.155 149.552 111.155 148.947C111.155 148.342 111.647 147.852 112.252 147.852C112.857 147.852 113.347 148.342 113.347 148.947Z" fill="url(#paint94_radial)"/>
<path d="M113.347 158.368C113.347 158.974 112.857 159.465 112.252 159.465C111.647 159.465 111.155 158.974 111.155 158.368C111.155 157.763 111.647 157.272 112.252 157.272C112.857 157.272 113.347 157.763 113.347 158.368Z" fill="url(#paint95_radial)"/>
<path d="M142.871 153.657C142.871 152.616 142.061 151.763 141.038 151.692L141.808 150.922C142.406 150.324 142.406 149.353 141.808 148.756C141.209 148.157 140.239 148.157 139.641 148.756L136.709 151.688H133.231L133.229 151.687V150.215C133.229 149.875 133.095 149.548 132.854 149.308L131.502 147.957L133.02 146.441L133.653 145.808H138.419C139.266 145.808 139.952 145.121 139.952 144.274C139.952 143.429 139.266 142.742 138.419 142.742H136.718L136.926 142.534C137.525 141.935 137.525 140.965 136.926 140.366C136.328 139.769 135.359 139.767 134.76 140.366L134.55 140.576V138.874C134.55 138.028 133.864 137.342 133.018 137.342C132.173 137.342 131.486 138.028 131.486 138.874V143.64L129.336 145.79L127.984 144.439C127.744 144.199 127.419 144.063 127.079 144.063H125.605V140.585L128.538 137.653C129.137 137.054 129.137 136.084 128.538 135.486C127.939 134.887 126.969 134.887 126.37 135.486L125.6 136.256C125.53 135.231 124.678 134.423 123.635 134.423C122.593 134.423 121.74 135.231 121.671 136.256L120.899 135.486C120.301 134.887 119.33 134.887 118.733 135.486C118.134 136.084 118.134 137.054 118.733 137.653L121.665 140.585V144.063H120.192C119.852 144.063 119.527 144.199 119.285 144.439L117.934 145.79L115.785 143.64V138.874C115.785 138.028 115.098 137.342 114.251 137.342C113.406 137.342 112.719 138.028 112.719 138.874V140.576L112.511 140.366C111.912 139.767 110.942 139.767 110.343 140.366C109.746 140.965 109.746 141.935 110.343 142.534L110.553 142.742H108.851C108.005 142.742 107.319 143.429 107.319 144.274C107.319 145.121 108.005 145.808 108.851 145.808H113.617L115.767 147.957L114.416 149.308C114.176 149.548 114.04 149.875 114.04 150.215V151.688H110.562L107.63 148.756C107.032 148.157 106.062 148.157 105.463 148.756C104.864 149.353 104.864 150.324 105.463 150.922L106.233 151.692C105.21 151.763 104.4 152.615 104.4 153.657C104.4 154.701 105.21 155.553 106.233 155.623L105.463 156.393C104.864 156.992 104.864 157.962 105.463 158.561C105.762 158.86 106.153 159.01 106.546 159.01C106.938 159.01 107.331 158.86 107.63 158.561L110.562 155.629H114.04V157.101C114.04 157.441 114.176 157.767 114.416 158.007L115.767 159.359L113.617 161.509H108.851C108.005 161.509 107.319 162.194 107.319 163.041C107.319 163.887 108.005 164.573 108.851 164.573H110.553L110.343 164.783C109.746 165.38 109.746 166.351 110.343 166.95C110.643 167.248 111.035 167.398 111.428 167.398C111.819 167.398 112.212 167.248 112.511 166.95L112.719 166.741V168.442C112.719 169.289 113.406 169.974 114.251 169.974C115.098 169.974 115.785 169.289 115.785 168.442V163.676L117.934 161.525L119.285 162.877C119.527 163.117 119.852 163.252 120.192 163.252H121.665V166.731L118.733 169.663C118.134 170.262 118.134 171.232 118.733 171.831C119.33 172.428 120.301 172.428 120.899 171.831L121.671 171.06C121.74 172.083 122.593 172.893 123.635 172.893C124.678 172.893 125.53 172.083 125.6 171.06L126.37 171.831C126.67 172.13 127.062 172.278 127.455 172.278C127.846 172.278 128.238 172.13 128.538 171.831C129.137 171.232 129.137 170.262 128.538 169.663L125.605 166.731V163.252H127.079C127.419 163.252 127.744 163.117 127.984 162.877L129.336 161.525L131.486 163.676V168.442C131.486 169.287 132.173 169.974 133.018 169.974C133.864 169.974 134.55 169.287 134.55 168.442V166.74L134.76 166.95C135.059 167.248 135.45 167.398 135.843 167.398C136.235 167.398 136.628 167.248 136.926 166.95C137.525 166.351 137.525 165.38 136.926 164.782L136.718 164.573H138.419C139.266 164.573 139.952 163.887 139.952 163.041C139.952 162.194 139.266 161.508 138.419 161.508H133.653L131.502 159.357L132.854 158.006C133.094 157.767 133.229 157.441 133.229 157.101V155.627H136.709L139.64 158.56C139.94 158.858 140.332 159.008 140.725 159.008C141.116 159.008 141.508 158.858 141.808 158.56C142.405 157.961 142.405 156.991 141.808 156.393L141.036 155.622C142.061 155.553 142.871 154.701 142.871 153.657V153.657ZM120.723 146.627H121.665V149.234C121.6 149.263 121.534 149.294 121.47 149.325L119.747 147.602L120.723 146.627ZM116.605 150.746L117.581 149.77L119.304 151.493C119.271 151.557 119.24 151.622 119.211 151.688H116.605V150.746ZM117.581 157.547L116.605 156.571V155.629H119.211C119.24 155.694 119.272 155.759 119.304 155.824L117.581 157.547ZM121.665 160.689H120.723L119.747 159.713L121.47 157.99C121.535 158.022 121.6 158.054 121.665 158.083V160.689ZM125.247 155.27C124.817 155.7 124.245 155.938 123.635 155.938C123.027 155.938 122.454 155.7 122.024 155.27C121.594 154.839 121.356 154.266 121.356 153.657C121.356 153.049 121.594 152.477 122.024 152.046C122.454 151.615 123.026 151.379 123.635 151.379C124.245 151.379 124.817 151.615 125.247 152.046C125.677 152.476 125.915 153.049 125.915 153.657C125.915 154.266 125.677 154.839 125.247 155.27ZM126.548 160.689H125.605V158.083C125.671 158.053 125.737 158.022 125.801 157.99L127.524 159.713L126.548 160.689ZM126.293 148.833L125.801 149.325C125.736 149.294 125.672 149.262 125.605 149.234V146.627H126.548L127.524 147.602L126.293 148.833ZM130.666 156.571L129.69 157.547L127.967 155.824C128 155.759 128.031 155.694 128.06 155.629H130.667V156.571H130.666ZM130.666 151.688H128.076L128.077 151.687H128.06C128.031 151.622 127.999 151.557 127.967 151.493L128.422 151.037L129.69 149.769L130.666 150.745V151.688Z" fill="url(#paint96_linear)"/>
<path d="M120.023 142.271C120.023 142.876 119.533 143.368 118.928 143.368C118.323 143.368 117.832 142.876 117.832 142.271C117.832 141.666 118.323 141.175 118.928 141.175C119.533 141.175 120.023 141.666 120.023 142.271Z" fill="url(#paint97_linear)"/>
<path d="M129.445 142.271C129.445 142.876 128.955 143.368 128.349 143.368C127.744 143.368 127.253 142.876 127.253 142.271C127.253 141.666 127.744 141.175 128.349 141.175C128.955 141.175 129.445 141.666 129.445 142.271Z" fill="url(#paint98_linear)"/>
<path d="M120.023 165.045C120.023 165.65 119.533 166.141 118.928 166.141C118.323 166.141 117.832 165.65 117.832 165.045C117.832 164.439 118.323 163.949 118.928 163.949C119.533 163.949 120.023 164.439 120.023 165.045Z" fill="url(#paint99_linear)"/>
<path d="M129.445 165.045C129.445 165.65 128.955 166.141 128.349 166.141C127.744 166.141 127.253 165.65 127.253 165.045C127.253 164.439 127.744 163.949 128.349 163.949C128.955 163.949 129.445 164.439 129.445 165.045Z" fill="url(#paint100_linear)"/>
<path d="M136.122 148.947C136.122 149.552 135.631 150.044 135.025 150.044C134.42 150.044 133.929 149.552 133.929 148.947C133.929 148.342 134.42 147.852 135.025 147.852C135.631 147.852 136.122 148.342 136.122 148.947Z" fill="url(#paint101_linear)"/>
<path d="M136.122 158.368C136.122 158.974 135.631 159.465 135.025 159.465C134.42 159.465 133.929 158.974 133.929 158.368C133.929 157.763 134.42 157.272 135.025 157.272C135.631 157.272 136.122 157.763 136.122 158.368Z" fill="url(#paint102_linear)"/>
<path d="M113.347 148.947C113.347 149.552 112.857 150.044 112.252 150.044C111.647 150.044 111.155 149.552 111.155 148.947C111.155 148.342 111.647 147.852 112.252 147.852C112.857 147.852 113.347 148.342 113.347 148.947Z" fill="url(#paint103_linear)"/>
<path d="M113.347 158.368C113.347 158.974 112.857 159.465 112.252 159.465C111.647 159.465 111.155 158.974 111.155 158.368C111.155 157.763 111.647 157.272 112.252 157.272C112.857 157.272 113.347 157.763 113.347 158.368Z" fill="url(#paint104_linear)"/>
<defs>
<radialGradient id="paint0_radial" cx="0" cy="0" r="1" gradientUnits="userSpaceOnUse" gradientTransform="translate(103.664 57.4612) scale(74.4365)">
<stop stop-color="#FFD459"/>
<stop offset="0.2794" stop-color="#FFD55B" stop-opacity="0.721569"/>
<stop offset="0.4354" stop-color="#FFD763" stop-opacity="0.564706"/>
<stop offset="0.5609" stop-color="#FFDA71" stop-opacity="0.439216"/>
<stop offset="0.6702" stop-color="#FFDF85" stop-opacity="0.329412"/>
<stop offset="0.7691" stop-color="#FFE69E" stop-opacity="0.231373"/>
<stop offset="0.8603" stop-color="#FFEEBE" stop-opacity="0.141176"/>
<stop offset="0.944" stop-color="#FFF8E2" stop-opacity="0.054902"/>
<stop offset="1" stop-color="white" stop-opacity="0"/>
</radialGradient>
<radialGradient id="paint1_radial" cx="0" cy="0" r="1" gradientUnits="userSpaceOnUse" gradientTransform="translate(103.233 57.6814) scale(50.1431)">
<stop stop-color="#FFB400"/>
<stop offset="0.3726" stop-color="#FFB502" stop-opacity="0.627451"/>
<stop offset="0.5069" stop-color="#FFB709" stop-opacity="0.494118"/>
<stop offset="0.6026" stop-color="#FFBA14" stop-opacity="0.396078"/>
<stop offset="0.68" stop-color="#FFBF25" stop-opacity="0.321569"/>
<stop offset="0.7463" stop-color="#FFC53B" stop-opacity="0.254902"/>
<stop offset="0.805" stop-color="#FFCD57" stop-opacity="0.196078"/>
<stop offset="0.8581" stop-color="#FFD777" stop-opacity="0.141176"/>
<stop offset="0.9069" stop-color="#FFE29D" stop-opacity="0.094118"/>
<stop offset="0.9523" stop-color="#FFEFC8" stop-opacity="0.047059"/>
<stop offset="0.9926" stop-color="#FFFCF6" stop-opacity="0.01"/>
<stop offset="1" stop-color="white" stop-opacity="0"/>
</radialGradient>
<radialGradient id="paint2_radial" cx="0" cy="0" r="1" gradientUnits="userSpaceOnUse" gradientTransform="translate(92.9169 42.0741) scale(52.2902)">
<stop stop-color="#FFD459"/>
<stop offset="0.2296" stop-color="#FFD355"/>
<stop offset="0.4362" stop-color="#FFCF4A"/>
<stop offset="0.634" stop-color="#FFC838"/>
<stop offset="0.825" stop-color="#FFBF1F"/>
<stop offset="1" stop-color="#FFB400"/>
</radialGradient>
<linearGradient id="paint3_linear" x1="107.22" y1="61.6601" x2="56.2634" y2="7.99329" gradientUnits="userSpaceOnUse">
<stop stop-color="white" stop-opacity="0"/>
<stop offset="0.9286" stop-color="white" stop-opacity="0.929412"/>
<stop offset="1" stop-color="white"/>
</linearGradient>
<linearGradient id="paint4_linear" x1="140.989" y1="137.857" x2="22.9841" y2="19.8527" gradientUnits="userSpaceOnUse">
<stop stop-color="#E58200" stop-opacity="0"/>
<stop offset="0.0396" stop-color="#E27F04" stop-opacity="0.039216"/>
<stop offset="0.4671" stop-color="#C15D2F" stop-opacity="0.466667"/>
<stop offset="0.8016" stop-color="#AD4949" stop-opacity="0.8"/>
<stop offset="1" stop-color="#A64153"/>
</linearGradient>
<radialGradient id="paint5_radial" cx="0" cy="0" r="1" gradientUnits="userSpaceOnUse" gradientTransform="translate(54.6687 47.2962) scale(94.9057)">
<stop stop-color="#ECF7FF"/>
<stop offset="0.3473" stop-color="#E9F5FF"/>
<stop offset="0.62" stop-color="#DFF0FF"/>
<stop offset="0.8666" stop-color="#CEE7FF"/>
<stop offset="1" stop-color="#C2E0FF"/>
</radialGradient>
<linearGradient id="paint6_linear" x1="115.095" y1="110.657" x2="128.774" y2="69.3857" gradientUnits="userSpaceOnUse">
<stop offset="0.0029" stop-color="#C2E0FF" stop-opacity="0"/>
<stop offset="0.0763" stop-color="#BFDCFD" stop-opacity="0.07451"/>
<stop offset="1" stop-color="#9EB2E7"/>
</linearGradient>
<linearGradient id="paint7_linear" x1="99.4449" y1="82.4227" x2="117.033" y2="56.3454" gradientUnits="userSpaceOnUse">
<stop offset="0.0029" stop-color="#C2E0FF" stop-opacity="0"/>
<stop offset="0.0763" stop-color="#BFDCFD" stop-opacity="0.07451"/>
<stop offset="1" stop-color="#9EB2E7"/>
</linearGradient>
<linearGradient id="paint8_linear" x1="63.6179" y1="82.5649" x2="63.6179" y2="42.3003" gradientUnits="userSpaceOnUse">
<stop offset="0.0029" stop-color="#C2E0FF" stop-opacity="0"/>
<stop offset="0.0763" stop-color="#BFDCFD" stop-opacity="0.07451"/>
<stop offset="1" stop-color="#9EB2E7"/>
</linearGradient>
<linearGradient id="paint9_linear" x1="36.745" y1="110.262" x2="8.98053" y2="84.0223" gradientUnits="userSpaceOnUse">
<stop offset="0.0029" stop-color="#C2E0FF" stop-opacity="0"/>
<stop offset="0.0763" stop-color="#BFDCFD" stop-opacity="0.07451"/>
<stop offset="1" stop-color="#9EB2E7"/>
</linearGradient>
<linearGradient id="paint10_linear" x1="75.8457" y1="116.217" x2="75.8457" y2="148.285" gradientUnits="userSpaceOnUse">
<stop offset="0.0029" stop-color="#C2E0FF" stop-opacity="0"/>
<stop offset="0.0763" stop-color="#BFDCFD" stop-opacity="0.07451"/>
<stop offset="1" stop-color="#9EB2E7"/>
</linearGradient>
<linearGradient id="paint11_linear" x1="73.3161" y1="147.554" x2="39.7517" y2="113.989" gradientUnits="userSpaceOnUse">
<stop offset="0.0029" stop-color="#C2E0FF" stop-opacity="0"/>
<stop offset="0.0763" stop-color="#BFDCFD" stop-opacity="0.07451"/>
<stop offset="1" stop-color="#9EB2E7"/>
</linearGradient>
<linearGradient id="paint12_linear" x1="73.8161" y1="156.478" x2="33.8177" y2="116.48" gradientUnits="userSpaceOnUse">
<stop offset="0.0029" stop-color="#C2E0FF" stop-opacity="0"/>
<stop offset="0.0763" stop-color="#BFDCFD" stop-opacity="0.07451"/>
<stop offset="1" stop-color="#9EB2E7"/>
</linearGradient>
<linearGradient id="paint13_linear" x1="6.06012" y1="121.825" x2="50.6528" y2="166.418" gradientUnits="userSpaceOnUse">
<stop stop-color="#00C6F6"/>
<stop offset="0.8567" stop-color="#0B9CFD"/>
<stop offset="1" stop-color="#0D94FE"/>
</linearGradient>
<linearGradient id="paint14_linear" x1="23.5677" y1="104.318" x2="68.1603" y2="148.911" gradientUnits="userSpaceOnUse">
<stop stop-color="#00C6F6"/>
<stop offset="0.8567" stop-color="#0B9CFD"/>
<stop offset="1" stop-color="#0D94FE"/>
</linearGradient>
<linearGradient id="paint15_linear" x1="6.06033" y1="121.826" x2="50.6528" y2="166.418" gradientUnits="userSpaceOnUse">
<stop stop-color="#00C6F6"/>
<stop offset="0.8567" stop-color="#0B9CFD"/>
<stop offset="1" stop-color="#0D94FE"/>
</linearGradient>
<linearGradient id="paint16_linear" x1="23.5676" y1="104.318" x2="68.1602" y2="148.911" gradientUnits="userSpaceOnUse">
<stop stop-color="#00C6F6"/>
<stop offset="0.8567" stop-color="#0B9CFD"/>
<stop offset="1" stop-color="#0D94FE"/>
</linearGradient>
<linearGradient id="paint17_linear" x1="2.4341" y1="125.451" x2="47.0273" y2="170.044" gradientUnits="userSpaceOnUse">
<stop stop-color="#00C6F6"/>
<stop offset="0.8567" stop-color="#0B9CFD"/>
<stop offset="1" stop-color="#0D94FE"/>
</linearGradient>
<linearGradient id="paint18_linear" x1="27.1934" y1="100.692" x2="71.7857" y2="145.285" gradientUnits="userSpaceOnUse">
<stop stop-color="#00C6F6"/>
<stop offset="0.8567" stop-color="#0B9CFD"/>
<stop offset="1" stop-color="#0D94FE"/>
</linearGradient>
<linearGradient id="paint19_linear" x1="14.8141" y1="113.072" x2="59.4067" y2="157.664" gradientUnits="userSpaceOnUse">
<stop stop-color="#00C6F6"/>
<stop offset="0.8567" stop-color="#0B9CFD"/>
<stop offset="1" stop-color="#0D94FE"/>
</linearGradient>
<linearGradient id="paint20_linear" x1="14.8141" y1="113.072" x2="59.4065" y2="157.664" gradientUnits="userSpaceOnUse">
<stop stop-color="#00C6F6"/>
<stop offset="0.8567" stop-color="#0B9CFD"/>
<stop offset="1" stop-color="#0D94FE"/>
</linearGradient>
<linearGradient id="paint21_linear" x1="50.1784" y1="154.845" x2="41.0671" y2="145.734" gradientUnits="userSpaceOnUse">
<stop stop-color="#0D94FE" stop-opacity="0"/>
<stop offset="0.5142" stop-color="#0681CD" stop-opacity="0.513725"/>
<stop offset="1" stop-color="#0070A2"/>
</linearGradient>
<linearGradient id="paint22_linear" x1="49.8799" y1="163.393" x2="41.3514" y2="154.865" gradientUnits="userSpaceOnUse">
<stop stop-color="#0D94FE" stop-opacity="0"/>
<stop offset="0.5142" stop-color="#0681CD" stop-opacity="0.513725"/>
<stop offset="1" stop-color="#0070A2"/>
</linearGradient>
<linearGradient id="paint23_linear" x1="56.5645" y1="148.41" x2="47.4804" y2="139.326" gradientUnits="userSpaceOnUse">
<stop stop-color="#0D94FE" stop-opacity="0"/>
<stop offset="0.5142" stop-color="#0681CD" stop-opacity="0.513725"/>
<stop offset="1" stop-color="#0070A2"/>
</linearGradient>
<linearGradient id="paint24_linear" x1="65.0868" y1="148.237" x2="56.3657" y2="139.516" gradientUnits="userSpaceOnUse">
<stop stop-color="#0D94FE" stop-opacity="0"/>
<stop offset="0.5142" stop-color="#0681CD" stop-opacity="0.513725"/>
<stop offset="1" stop-color="#0070A2"/>
</linearGradient>
<linearGradient id="paint25_linear" x1="62.4199" y1="160.678" x2="43.3505" y2="141.608" gradientUnits="userSpaceOnUse">
<stop stop-color="#0D94FE" stop-opacity="0"/>
<stop offset="0.5142" stop-color="#0681CD" stop-opacity="0.513725"/>
<stop offset="1" stop-color="#0070A2"/>
</linearGradient>
<linearGradient id="paint26_linear" x1="51.4951" y1="124.967" x2="43.3884" y2="116.861" gradientUnits="userSpaceOnUse">
<stop stop-color="#0D94FE" stop-opacity="0"/>
<stop offset="0.5142" stop-color="#0681CD" stop-opacity="0.513725"/>
<stop offset="1" stop-color="#0070A2"/>
</linearGradient>
<linearGradient id="paint27_linear" x1="68.705" y1="127.307" x2="54.0818" y2="124.401" gradientUnits="userSpaceOnUse">
<stop stop-color="#0D94FE" stop-opacity="0"/>
<stop offset="0.5142" stop-color="#0681CD" stop-opacity="0.513725"/>
<stop offset="1" stop-color="#0070A2"/>
</linearGradient>
<linearGradient id="paint28_linear" x1="37.0499" y1="107.506" x2="84.8087" y2="155.265" gradientUnits="userSpaceOnUse">
<stop stop-color="#00C6F6"/>
<stop offset="0.8567" stop-color="#0B9CFD"/>
<stop offset="1" stop-color="#0D94FE"/>
</linearGradient>
<linearGradient id="paint29_linear" x1="9.24784" y1="135.308" x2="57.0067" y2="183.066" gradientUnits="userSpaceOnUse">
<stop stop-color="#00C6F6"/>
<stop offset="0.8567" stop-color="#0B9CFD"/>
<stop offset="1" stop-color="#0D94FE"/>
</linearGradient>
<linearGradient id="paint30_linear" x1="37.0498" y1="107.506" x2="84.8085" y2="155.264" gradientUnits="userSpaceOnUse">
<stop stop-color="#00C6F6"/>
<stop offset="0.8567" stop-color="#0B9CFD"/>
<stop offset="1" stop-color="#0D94FE"/>
</linearGradient>
<linearGradient id="paint31_linear" x1="9.24784" y1="135.308" x2="57.0073" y2="183.067" gradientUnits="userSpaceOnUse">
<stop stop-color="#00C6F6"/>
<stop offset="0.8567" stop-color="#0B9CFD"/>
<stop offset="1" stop-color="#0D94FE"/>
</linearGradient>
<linearGradient id="paint32_linear" x1="40.6113" y1="103.944" x2="88.3702" y2="151.703" gradientUnits="userSpaceOnUse">
<stop stop-color="#00C6F6"/>
<stop offset="0.8567" stop-color="#0B9CFD"/>
<stop offset="1" stop-color="#0D94FE"/>
</linearGradient>
<linearGradient id="paint33_linear" x1="5.68637" y1="138.869" x2="53.4456" y2="186.628" gradientUnits="userSpaceOnUse">
<stop stop-color="#00C6F6"/>
<stop offset="0.8567" stop-color="#0B9CFD"/>
<stop offset="1" stop-color="#0D94FE"/>
</linearGradient>
<linearGradient id="paint34_linear" x1="23.1486" y1="121.406" x2="70.9077" y2="169.165" gradientUnits="userSpaceOnUse">
<stop stop-color="#00C6F6"/>
<stop offset="0.8567" stop-color="#0B9CFD"/>
<stop offset="1" stop-color="#0D94FE"/>
</linearGradient>
<linearGradient id="paint35_linear" x1="23.1489" y1="121.407" x2="70.9085" y2="169.166" gradientUnits="userSpaceOnUse">
<stop stop-color="#00C6F6"/>
<stop offset="0.8567" stop-color="#0B9CFD"/>
<stop offset="1" stop-color="#0D94FE"/>
</linearGradient>
<linearGradient id="paint36_linear" x1="57.2019" y1="144.963" x2="37.9069" y2="121.311" gradientUnits="userSpaceOnUse">
<stop stop-color="#0D94FE" stop-opacity="0"/>
<stop offset="0.5142" stop-color="#0681CD" stop-opacity="0.513725"/>
<stop offset="1" stop-color="#0070A2"/>
</linearGradient>
<linearGradient id="paint37_linear" x1="43.0228" y1="156.989" x2="23.4572" y2="133.006" gradientUnits="userSpaceOnUse">
<stop stop-color="#0D94FE" stop-opacity="0"/>
<stop offset="0.5142" stop-color="#0681CD" stop-opacity="0.513725"/>
<stop offset="1" stop-color="#0070A2"/>
</linearGradient>
<linearGradient id="paint38_linear" x1="58.7136" y1="144.352" x2="39.042" y2="120.238" gradientUnits="userSpaceOnUse">
<stop stop-color="#0D94FE" stop-opacity="0"/>
<stop offset="0.5142" stop-color="#0681CD" stop-opacity="0.513725"/>
<stop offset="1" stop-color="#0070A2"/>
</linearGradient>
<linearGradient id="paint39_linear" x1="50.0197" y1="151.444" x2="30.3482" y2="127.331" gradientUnits="userSpaceOnUse">
<stop stop-color="#0D94FE" stop-opacity="0"/>
<stop offset="0.5142" stop-color="#0681CD" stop-opacity="0.513725"/>
<stop offset="1" stop-color="#0070A2"/>
</linearGradient>
<radialGradient id="paint40_radial" cx="0" cy="0" r="1" gradientUnits="userSpaceOnUse" gradientTransform="translate(43.9179 142.176) scale(7.87794)">
<stop stop-color="#ECF7FF"/>
<stop offset="1" stop-color="#C2E0FF"/>
</radialGradient>
<linearGradient id="paint41_linear" x1="38.6474" y1="136.905" x2="63.9496" y2="162.207" gradientUnits="userSpaceOnUse">
<stop stop-color="#00C6F6"/>
<stop offset="0.8567" stop-color="#0B9CFD"/>
<stop offset="1" stop-color="#0D94FE"/>
</linearGradient>
<radialGradient id="paint42_radial" cx="0" cy="0" r="1" gradientUnits="userSpaceOnUse" gradientTransform="translate(31.7599 125.211) scale(49.3064)">
<stop stop-color="#ECF7FF"/>
<stop offset="1" stop-color="#C2E0FF"/>
</radialGradient>
<radialGradient id="paint43_radial" cx="0" cy="0" r="1" gradientUnits="userSpaceOnUse" gradientTransform="translate(31.7598 125.211) scale(49.3065)">
<stop stop-color="#ECF7FF"/>
<stop offset="1" stop-color="#C2E0FF"/>
</radialGradient>
<radialGradient id="paint44_radial" cx="0" cy="0" r="1" gradientUnits="userSpaceOnUse" gradientTransform="translate(31.7599 125.211) scale(49.3065)">
<stop stop-color="#ECF7FF"/>
<stop offset="1" stop-color="#C2E0FF"/>
</radialGradient>
<radialGradient id="paint45_radial" cx="0" cy="0" r="1" gradientUnits="userSpaceOnUse" gradientTransform="translate(31.7598 125.211) scale(49.3063)">
<stop stop-color="#ECF7FF"/>
<stop offset="1" stop-color="#C2E0FF"/>
</radialGradient>
<radialGradient id="paint46_radial" cx="0" cy="0" r="1" gradientUnits="userSpaceOnUse" gradientTransform="translate(31.7593 125.211) scale(49.3068)">
<stop stop-color="#ECF7FF"/>
<stop offset="1" stop-color="#C2E0FF"/>
</radialGradient>
<radialGradient id="paint47_radial" cx="0" cy="0" r="1" gradientUnits="userSpaceOnUse" gradientTransform="translate(31.7593 125.21) scale(49.3069)">
<stop stop-color="#ECF7FF"/>
<stop offset="1" stop-color="#C2E0FF"/>
</radialGradient>
<radialGradient id="paint48_radial" cx="0" cy="0" r="1" gradientUnits="userSpaceOnUse" gradientTransform="translate(31.7593 125.211) scale(49.3062)">
<stop stop-color="#ECF7FF"/>
<stop offset="1" stop-color="#C2E0FF"/>
</radialGradient>
<radialGradient id="paint49_radial" cx="0" cy="0" r="1" gradientUnits="userSpaceOnUse" gradientTransform="translate(31.7593 125.21) scale(49.3068)">
<stop stop-color="#ECF7FF"/>
<stop offset="1" stop-color="#C2E0FF"/>
</radialGradient>
<linearGradient id="paint50_linear" x1="60.3932" y1="163.568" x2="7.27546" y2="94.5981" gradientUnits="userSpaceOnUse">
<stop stop-color="white" stop-opacity="0"/>
<stop offset="1" stop-color="white"/>
</linearGradient>
<linearGradient id="paint51_linear" x1="64.542" y1="160.374" x2="11.4232" y2="91.4026" gradientUnits="userSpaceOnUse">
<stop stop-color="white" stop-opacity="0"/>
<stop offset="1" stop-color="white"/>
</linearGradient>
<linearGradient id="paint52_linear" x1="74.1625" y1="152.964" x2="21.0439" y2="83.993" gradientUnits="userSpaceOnUse">
<stop stop-color="white" stop-opacity="0"/>
<stop offset="1" stop-color="white"/>
</linearGradient>
<linearGradient id="paint53_linear" x1="46.6305" y1="174.168" x2="-6.48828" y2="105.197" gradientUnits="userSpaceOnUse">
<stop stop-color="white" stop-opacity="0"/>
<stop offset="1" stop-color="white"/>
</linearGradient>
<linearGradient id="paint54_linear" x1="56.2511" y1="166.758" x2="3.13245" y2="97.7872" gradientUnits="userSpaceOnUse">
<stop stop-color="white" stop-opacity="0"/>
<stop offset="1" stop-color="white"/>
</linearGradient>
<linearGradient id="paint55_linear" x1="75.7293" y1="151.757" x2="22.6105" y2="82.7858" gradientUnits="userSpaceOnUse">
<stop stop-color="white" stop-opacity="0"/>
<stop offset="1" stop-color="white"/>
</linearGradient>
<linearGradient id="paint56_linear" x1="68.3197" y1="157.463" x2="15.2002" y2="88.4915" gradientUnits="userSpaceOnUse">
<stop stop-color="white" stop-opacity="0"/>
<stop offset="1" stop-color="white"/>
</linearGradient>
<linearGradient id="paint57_linear" x1="52.472" y1="169.667" x2="-0.644445" y2="100.699" gradientUnits="userSpaceOnUse">
<stop stop-color="white" stop-opacity="0"/>
<stop offset="1" stop-color="white"/>
</linearGradient>
<linearGradient id="paint58_linear" x1="45.0629" y1="175.374" x2="-8.05414" y2="106.405" gradientUnits="userSpaceOnUse">
<stop stop-color="white" stop-opacity="0"/>
<stop offset="1" stop-color="white"/>
</linearGradient>
<linearGradient id="paint59_linear" x1="100.366" y1="141.15" x2="127.775" y2="168.559" gradientUnits="userSpaceOnUse">
<stop stop-color="#00C6F6"/>
<stop offset="0.8567" stop-color="#0B9CFD"/>
<stop offset="1" stop-color="#0D94FE"/>
</linearGradient>
<linearGradient id="paint60_linear" x1="111.127" y1="130.388" x2="138.536" y2="157.798" gradientUnits="userSpaceOnUse">
<stop stop-color="#00C6F6"/>
<stop offset="0.8567" stop-color="#0B9CFD"/>
<stop offset="1" stop-color="#0D94FE"/>
</linearGradient>
<linearGradient id="paint61_linear" x1="100.366" y1="141.15" x2="127.775" y2="168.559" gradientUnits="userSpaceOnUse">
<stop stop-color="#00C6F6"/>
<stop offset="0.8567" stop-color="#0B9CFD"/>
<stop offset="1" stop-color="#0D94FE"/>
</linearGradient>
<linearGradient id="paint62_linear" x1="111.127" y1="130.389" x2="138.536" y2="157.798" gradientUnits="userSpaceOnUse">
<stop stop-color="#00C6F6"/>
<stop offset="0.8567" stop-color="#0B9CFD"/>
<stop offset="1" stop-color="#0D94FE"/>
</linearGradient>
<linearGradient id="paint63_linear" x1="98.1368" y1="143.377" x2="125.547" y2="170.788" gradientUnits="userSpaceOnUse">
<stop stop-color="#00C6F6"/>
<stop offset="0.8567" stop-color="#0B9CFD"/>
<stop offset="1" stop-color="#0D94FE"/>
</linearGradient>
<linearGradient id="paint64_linear" x1="113.355" y1="128.159" x2="140.765" y2="155.569" gradientUnits="userSpaceOnUse">
<stop stop-color="#00C6F6"/>
<stop offset="0.8567" stop-color="#0B9CFD"/>
<stop offset="1" stop-color="#0D94FE"/>
</linearGradient>
<linearGradient id="paint65_linear" x1="105.747" y1="135.769" x2="133.156" y2="163.178" gradientUnits="userSpaceOnUse">
<stop stop-color="#00C6F6"/>
<stop offset="0.8567" stop-color="#0B9CFD"/>
<stop offset="1" stop-color="#0D94FE"/>
</linearGradient>
<linearGradient id="paint66_linear" x1="105.746" y1="135.769" x2="133.156" y2="163.178" gradientUnits="userSpaceOnUse">
<stop stop-color="#00C6F6"/>
<stop offset="0.8567" stop-color="#0B9CFD"/>
<stop offset="1" stop-color="#0D94FE"/>
</linearGradient>
<linearGradient id="paint67_linear" x1="127.483" y1="161.445" x2="121.883" y2="155.845" gradientUnits="userSpaceOnUse">
<stop stop-color="#0D94FE" stop-opacity="0"/>
<stop offset="0.5142" stop-color="#0681CD" stop-opacity="0.513725"/>
<stop offset="1" stop-color="#0070A2"/>
</linearGradient>
<linearGradient id="paint68_linear" x1="127.3" y1="166.699" x2="122.058" y2="161.458" gradientUnits="userSpaceOnUse">
<stop stop-color="#0D94FE" stop-opacity="0"/>
<stop offset="0.5142" stop-color="#0681CD" stop-opacity="0.513725"/>
<stop offset="1" stop-color="#0070A2"/>
</linearGradient>
<linearGradient id="paint69_linear" x1="131.409" y1="157.49" x2="125.825" y2="151.906" gradientUnits="userSpaceOnUse">
<stop stop-color="#0D94FE" stop-opacity="0"/>
<stop offset="0.5142" stop-color="#0681CD" stop-opacity="0.513725"/>
<stop offset="1" stop-color="#0070A2"/>
</linearGradient>
<linearGradient id="paint70_linear" x1="136.647" y1="157.383" x2="131.287" y2="152.023" gradientUnits="userSpaceOnUse">
<stop stop-color="#0D94FE" stop-opacity="0"/>
<stop offset="0.5142" stop-color="#0681CD" stop-opacity="0.513725"/>
<stop offset="1" stop-color="#0070A2"/>
</linearGradient>
<linearGradient id="paint71_linear" x1="135.008" y1="165.03" x2="123.287" y2="153.309" gradientUnits="userSpaceOnUse">
<stop stop-color="#0D94FE" stop-opacity="0"/>
<stop offset="0.5142" stop-color="#0681CD" stop-opacity="0.513725"/>
<stop offset="1" stop-color="#0070A2"/>
</linearGradient>
<linearGradient id="paint72_linear" x1="128.293" y1="143.081" x2="123.31" y2="138.098" gradientUnits="userSpaceOnUse">
<stop stop-color="#0D94FE" stop-opacity="0"/>
<stop offset="0.5142" stop-color="#0681CD" stop-opacity="0.513725"/>
<stop offset="1" stop-color="#0070A2"/>
</linearGradient>
<linearGradient id="paint73_linear" x1="138.871" y1="144.519" x2="129.883" y2="142.733" gradientUnits="userSpaceOnUse">
<stop stop-color="#0D94FE" stop-opacity="0"/>
<stop offset="0.5142" stop-color="#0681CD" stop-opacity="0.513725"/>
<stop offset="1" stop-color="#0070A2"/>
</linearGradient>
<linearGradient id="paint74_linear" x1="119.414" y1="132.348" x2="148.77" y2="161.704" gradientUnits="userSpaceOnUse">
<stop stop-color="#00C6F6"/>
<stop offset="0.8567" stop-color="#0B9CFD"/>
<stop offset="1" stop-color="#0D94FE"/>
</linearGradient>
<linearGradient id="paint75_linear" x1="102.325" y1="149.437" x2="131.681" y2="178.792" gradientUnits="userSpaceOnUse">
<stop stop-color="#00C6F6"/>
<stop offset="0.8567" stop-color="#0B9CFD"/>
<stop offset="1" stop-color="#0D94FE"/>
</linearGradient>
<linearGradient id="paint76_linear" x1="119.414" y1="132.347" x2="148.77" y2="161.703" gradientUnits="userSpaceOnUse">
<stop stop-color="#00C6F6"/>
<stop offset="0.8567" stop-color="#0B9CFD"/>
<stop offset="1" stop-color="#0D94FE"/>
</linearGradient>
<linearGradient id="paint77_linear" x1="102.325" y1="149.436" x2="131.681" y2="178.792" gradientUnits="userSpaceOnUse">
<stop stop-color="#00C6F6"/>
<stop offset="0.8567" stop-color="#0B9CFD"/>
<stop offset="1" stop-color="#0D94FE"/>
</linearGradient>
<linearGradient id="paint78_linear" x1="121.603" y1="130.158" x2="150.959" y2="159.514" gradientUnits="userSpaceOnUse">
<stop stop-color="#00C6F6"/>
<stop offset="0.8567" stop-color="#0B9CFD"/>
<stop offset="1" stop-color="#0D94FE"/>
</linearGradient>
<linearGradient id="paint79_linear" x1="100.136" y1="151.626" x2="129.492" y2="180.981" gradientUnits="userSpaceOnUse">
<stop stop-color="#00C6F6"/>
<stop offset="0.8567" stop-color="#0B9CFD"/>
<stop offset="1" stop-color="#0D94FE"/>
</linearGradient>
<linearGradient id="paint80_linear" x1="110.869" y1="140.892" x2="140.225" y2="170.248" gradientUnits="userSpaceOnUse">
<stop stop-color="#00C6F6"/>
<stop offset="0.8567" stop-color="#0B9CFD"/>
<stop offset="1" stop-color="#0D94FE"/>
</linearGradient>
<linearGradient id="paint81_linear" x1="110.87" y1="140.892" x2="140.225" y2="170.248" gradientUnits="userSpaceOnUse">
<stop stop-color="#00C6F6"/>
<stop offset="0.8567" stop-color="#0B9CFD"/>
<stop offset="1" stop-color="#0D94FE"/>
</linearGradient>
<linearGradient id="paint82_linear" x1="131.801" y1="155.372" x2="119.941" y2="140.834" gradientUnits="userSpaceOnUse">
<stop stop-color="#0D94FE" stop-opacity="0"/>
<stop offset="0.5142" stop-color="#0681CD" stop-opacity="0.513725"/>
<stop offset="1" stop-color="#0070A2"/>
</linearGradient>
<linearGradient id="paint83_linear" x1="123.085" y1="162.764" x2="111.059" y2="148.022" gradientUnits="userSpaceOnUse">
<stop stop-color="#0D94FE" stop-opacity="0"/>
<stop offset="0.5142" stop-color="#0681CD" stop-opacity="0.513725"/>
<stop offset="1" stop-color="#0070A2"/>
</linearGradient>
<linearGradient id="paint84_linear" x1="132.73" y1="154.996" x2="120.638" y2="140.174" gradientUnits="userSpaceOnUse">
<stop stop-color="#0D94FE" stop-opacity="0"/>
<stop offset="0.5142" stop-color="#0681CD" stop-opacity="0.513725"/>
<stop offset="1" stop-color="#0070A2"/>
</linearGradient>
<linearGradient id="paint85_linear" x1="127.386" y1="159.355" x2="115.295" y2="144.533" gradientUnits="userSpaceOnUse">
<stop stop-color="#0D94FE" stop-opacity="0"/>
<stop offset="0.5142" stop-color="#0681CD" stop-opacity="0.513725"/>
<stop offset="1" stop-color="#0070A2"/>
</linearGradient>
<radialGradient id="paint86_radial" cx="0" cy="0" r="1" gradientUnits="userSpaceOnUse" gradientTransform="translate(123.635 153.658) scale(4.84229)">
<stop stop-color="#ECF7FF"/>
<stop offset="1" stop-color="#C2E0FF"/>
</radialGradient>
<linearGradient id="paint87_linear" x1="120.396" y1="150.418" x2="135.948" y2="165.971" gradientUnits="userSpaceOnUse">
<stop stop-color="#00C6F6"/>
<stop offset="0.8567" stop-color="#0B9CFD"/>
<stop offset="1" stop-color="#0D94FE"/>
</linearGradient>
<radialGradient id="paint88_radial" cx="0" cy="0" r="1" gradientUnits="userSpaceOnUse" gradientTransform="translate(116.163 143.23) scale(30.3052)">
<stop stop-color="#ECF7FF"/>
<stop offset="1" stop-color="#C2E0FF"/>
</radialGradient>
<radialGradient id="paint89_radial" cx="0" cy="0" r="1" gradientUnits="userSpaceOnUse" gradientTransform="translate(116.163 143.23) scale(30.3053)">
<stop stop-color="#ECF7FF"/>
<stop offset="1" stop-color="#C2E0FF"/>
</radialGradient>
<radialGradient id="paint90_radial" cx="0" cy="0" r="1" gradientUnits="userSpaceOnUse" gradientTransform="translate(116.163 143.231) scale(30.3053)">
<stop stop-color="#ECF7FF"/>
<stop offset="1" stop-color="#C2E0FF"/>
</radialGradient>
<radialGradient id="paint91_radial" cx="0" cy="0" r="1" gradientUnits="userSpaceOnUse" gradientTransform="translate(116.163 143.231) scale(30.3052)">
<stop stop-color="#ECF7FF"/>
<stop offset="1" stop-color="#C2E0FF"/>
</radialGradient>
<radialGradient id="paint92_radial" cx="0" cy="0" r="1" gradientUnits="userSpaceOnUse" gradientTransform="translate(116.16 143.231) scale(30.3094)">
<stop stop-color="#ECF7FF"/>
<stop offset="1" stop-color="#C2E0FF"/>
</radialGradient>
<radialGradient id="paint93_radial" cx="0" cy="0" r="1" gradientUnits="userSpaceOnUse" gradientTransform="translate(116.16 143.23) scale(30.309)">
<stop stop-color="#ECF7FF"/>
<stop offset="1" stop-color="#C2E0FF"/>
</radialGradient>
<radialGradient id="paint94_radial" cx="0" cy="0" r="1" gradientUnits="userSpaceOnUse" gradientTransform="translate(116.162 143.231) scale(30.3053)">
<stop stop-color="#ECF7FF"/>
<stop offset="1" stop-color="#C2E0FF"/>
</radialGradient>
<radialGradient id="paint95_radial" cx="0" cy="0" r="1" gradientUnits="userSpaceOnUse" gradientTransform="translate(116.162 143.23) scale(30.3076)">
<stop stop-color="#ECF7FF"/>
<stop offset="1" stop-color="#C2E0FF"/>
</radialGradient>
<linearGradient id="paint96_linear" x1="133.762" y1="166.807" x2="101.113" y2="124.414" gradientUnits="userSpaceOnUse">
<stop stop-color="white" stop-opacity="0"/>
<stop offset="1" stop-color="white"/>
</linearGradient>
<linearGradient id="paint97_linear" x1="136.312" y1="164.844" x2="103.662" y2="122.45" gradientUnits="userSpaceOnUse">
<stop stop-color="white" stop-opacity="0"/>
<stop offset="1" stop-color="white"/>
</linearGradient>
<linearGradient id="paint98_linear" x1="142.225" y1="160.288" x2="109.576" y2="117.896" gradientUnits="userSpaceOnUse">
<stop stop-color="white" stop-opacity="0"/>
<stop offset="1" stop-color="white"/>
</linearGradient>
<linearGradient id="paint99_linear" x1="125.303" y1="173.322" x2="92.6536" y2="130.93" gradientUnits="userSpaceOnUse">
<stop stop-color="white" stop-opacity="0"/>
<stop offset="1" stop-color="white"/>
</linearGradient>
<linearGradient id="paint100_linear" x1="131.216" y1="168.767" x2="98.5684" y2="126.377" gradientUnits="userSpaceOnUse">
<stop stop-color="white" stop-opacity="0"/>
<stop offset="1" stop-color="white"/>
</linearGradient>
<linearGradient id="paint101_linear" x1="143.189" y1="159.547" x2="110.539" y2="117.153" gradientUnits="userSpaceOnUse">
<stop stop-color="white" stop-opacity="0"/>
<stop offset="1" stop-color="white"/>
</linearGradient>
<linearGradient id="paint102_linear" x1="138.635" y1="163.055" x2="105.983" y2="120.659" gradientUnits="userSpaceOnUse">
<stop stop-color="white" stop-opacity="0"/>
<stop offset="1" stop-color="white"/>
</linearGradient>
<linearGradient id="paint103_linear" x1="128.894" y1="170.556" x2="96.2447" y2="128.163" gradientUnits="userSpaceOnUse">
<stop stop-color="white" stop-opacity="0"/>
<stop offset="1" stop-color="white"/>
</linearGradient>
<linearGradient id="paint104_linear" x1="124.34" y1="174.064" x2="91.6897" y2="131.67" gradientUnits="userSpaceOnUse">
<stop stop-color="white" stop-opacity="0"/>
<stop offset="1" stop-color="white"/>
</linearGradient>
</defs>
</svg>
