<svg width="174" height="174" viewBox="0 0 174 174" fill="none" xmlns="http://www.w3.org/2000/svg">
<path d="M103.5 2.97087C106.131 13.4862 119.295 17.0134 126.833 9.22214C128.617 7.37822 131.682 9.14647 130.977 11.6157C127.998 22.038 137.635 31.6744 148.056 28.6955H148.057C150.525 27.9906 152.294 31.0545 150.449 32.84C142.659 40.3763 146.187 53.5399 156.701 56.1724C159.191 56.795 159.191 60.3341 156.701 60.9568C146.187 63.5892 142.659 76.7515 150.449 84.2892C152.294 86.0733 150.525 89.1386 148.057 88.4337H148.056C137.635 85.4547 127.998 95.0911 130.977 105.513C131.682 107.981 128.617 109.751 126.833 107.906C119.295 100.116 106.131 103.643 103.5 114.157V114.158C102.876 116.647 99.3389 116.647 98.7149 114.158V114.157C96.0834 103.643 82.9198 100.116 75.3835 107.906C73.598 109.751 70.5328 107.981 71.2377 105.513C74.2166 95.0911 64.5802 85.4547 54.1579 88.4337C51.69 89.1386 49.9204 86.0733 51.7657 84.2892C59.5555 76.7515 56.0297 63.5892 45.5131 60.9568C43.024 60.3341 43.024 56.795 45.5131 56.1724C56.0297 53.5399 59.5555 40.3763 51.7657 32.84C49.9204 31.0545 51.69 27.9906 54.1579 28.6955C64.5802 31.6744 74.2166 22.038 71.2377 11.6157C70.5328 9.14647 73.598 7.37822 75.3835 9.22214C82.9198 17.0134 96.0834 13.4862 98.7149 2.97087C99.3389 0.480454 102.876 0.480454 103.5 2.97087Z" fill="white"/>
<path d="M103.5 2.97087C106.131 13.4862 119.295 17.0134 126.833 9.22214C128.617 7.37822 131.682 9.14647 130.977 11.6157C127.998 22.038 137.635 31.6744 148.056 28.6955H148.057C150.525 27.9906 152.294 31.0545 150.449 32.84C142.659 40.3763 146.187 53.5399 156.701 56.1724C159.191 56.795 159.191 60.3341 156.701 60.9568C146.187 63.5892 142.659 76.7515 150.449 84.2892C152.294 86.0733 150.525 89.1386 148.057 88.4337H148.056C137.635 85.4547 127.998 95.0911 130.977 105.513C131.682 107.981 128.617 109.751 126.833 107.906C119.295 100.116 106.131 103.643 103.5 114.157V114.158C102.876 116.647 99.3389 116.647 98.7149 114.158V114.157C96.0834 103.643 82.9198 100.116 75.3835 107.906C73.598 109.751 70.5328 107.981 71.2377 105.513C74.2166 95.0911 64.5802 85.4547 54.1579 88.4337C51.69 89.1386 49.9204 86.0733 51.7657 84.2892C59.5555 76.7515 56.0297 63.5892 45.5131 60.9568C43.024 60.3341 43.024 56.795 45.5131 56.1724C56.0297 53.5399 59.5555 40.3763 51.7657 32.84C49.9204 31.0545 51.69 27.9906 54.1579 28.6955C64.5802 31.6744 74.2166 22.038 71.2377 11.6157C70.5328 9.14647 73.598 7.37822 75.3835 9.22214C82.9198 17.0134 96.0834 13.4862 98.7149 2.97087C99.3389 0.480454 102.876 0.480454 103.5 2.97087Z" fill="url(#paint0_radial)"/>
<path d="M147.967 58.5646C147.967 84.4445 126.987 105.423 101.107 105.423C75.2282 105.423 54.2481 84.4445 54.2481 58.5646C54.2481 32.6847 75.2282 11.706 101.107 11.706C126.987 11.706 147.967 32.6847 147.967 58.5646Z" fill="url(#paint1_radial)"/>
<path d="M139.874 58.5645C139.874 79.9746 122.518 97.3307 101.107 97.3307C79.6966 97.3307 62.3407 79.9746 62.3407 58.5645C62.3407 37.1543 79.6966 19.7971 101.107 19.7971C122.518 19.7971 139.874 37.1543 139.874 58.5645Z" fill="url(#paint2_radial)"/>
<path d="M136.192 58.5646C136.192 77.941 120.483 93.6481 101.107 93.6481C81.7317 93.6481 66.0232 77.941 66.0232 58.5646C66.0232 39.1882 81.7317 23.481 101.107 23.481C120.483 23.481 136.192 39.1882 136.192 58.5646Z" fill="url(#paint3_linear)"/>
<path d="M15.6761 167.99C13.6976 167.054 12.8527 164.693 13.7876 162.715L18.9387 151.824C19.8737 149.845 22.2358 149.001 24.2144 149.936C26.1929 150.872 27.0378 153.234 26.1028 155.212L20.953 166.102C20.0168 168.08 17.6546 168.926 15.6761 167.99V167.99Z" fill="url(#paint4_radial)"/>
<path d="M25.9758 146.21C23.9985 145.275 23.1523 142.912 24.0885 140.934L28.4255 131.762C29.3605 129.785 31.7226 128.939 33.7012 129.875C35.6797 130.81 36.5259 133.174 35.5896 135.151L31.2527 144.322C30.3177 146.3 27.9543 147.145 25.9758 146.21V146.21Z" fill="url(#paint5_radial)"/>
<path d="M35.0566 127.009C33.0781 126.074 32.2331 123.712 33.1681 121.733L44.9591 96.8006C45.8953 94.8221 48.2574 93.9772 50.236 94.9122C52.2145 95.8484 53.0594 98.2105 52.1244 100.189L40.3335 125.122C39.3973 127.1 37.0351 127.945 35.0566 127.009Z" fill="url(#paint6_radial)"/>
<path d="M34.5905 167.99C32.6119 167.055 31.767 164.693 32.702 162.715L42.9351 141.077C43.87 139.099 46.2322 138.253 48.2119 139.189C50.1892 140.124 51.0354 142.486 50.0992 144.465L39.8674 166.102C38.9311 168.08 36.569 168.926 34.5905 167.99V167.99Z" fill="url(#paint7_radial)"/>
<path d="M49.227 137.04C47.2497 136.105 46.4035 133.743 47.3397 131.764L53.7095 118.294C54.6445 116.316 57.0066 115.471 58.9864 116.406C60.9637 117.342 61.8099 119.704 60.8736 121.683L54.5039 135.152C53.5676 137.13 51.2055 137.976 49.227 137.04Z" fill="url(#paint8_radial)"/>
<path d="M60.0694 114.114C58.0921 113.178 57.2459 110.816 58.1821 108.837L63.8735 96.8006C64.8097 94.8221 67.1719 93.9772 69.1504 94.9122C71.1289 95.8484 71.9738 98.2105 71.0389 100.189L65.3463 112.225C64.4101 114.204 62.0479 115.049 60.0694 114.114V114.114Z" fill="url(#paint9_radial)"/>
<path d="M53.5048 167.99C51.5263 167.055 50.6813 164.693 51.6163 162.715L64.5594 135.346C65.4956 133.367 67.8578 132.522 69.8363 133.457C71.8148 134.394 72.6598 136.756 71.7248 138.734L58.7817 166.103C57.8455 168.08 55.4833 168.926 53.5048 167.99V167.99Z" fill="url(#paint10_radial)"/>
<path d="M70.5812 131.881C68.6027 130.946 67.7578 128.583 68.6927 126.606L82.7879 96.8006C83.7241 94.8221 86.0863 93.9772 88.0648 94.9122C90.0421 95.8471 90.8883 98.2105 89.952 100.189L75.8581 129.993C74.9219 131.971 72.5598 132.817 70.5812 131.881V131.881Z" fill="url(#paint11_radial)"/>
<path d="M72.4192 167.99C70.4407 167.054 69.5957 164.693 70.5307 162.714L73.5133 156.409C74.4483 154.43 76.8104 153.585 78.789 154.522C80.7675 155.457 81.6124 157.819 80.6774 159.797L77.6961 166.102C76.7599 168.08 74.3977 168.926 72.4192 167.99Z" fill="url(#paint12_radial)"/>
<path d="M79.6031 152.802C77.6245 151.866 76.7783 149.504 77.7146 147.525L86.8622 128.18C87.7984 126.202 90.1605 125.357 92.1391 126.293C94.1176 127.228 94.9625 129.59 94.0275 131.569L84.8787 150.914C83.9425 152.892 81.5803 153.737 79.6031 152.802V152.802Z" fill="url(#paint13_radial)"/>
<path d="M92.884 124.717C90.9055 123.781 90.0606 121.419 90.9956 119.44L101.702 96.8006C102.639 94.8221 105.001 93.9772 106.979 94.9122C108.958 95.8484 109.803 98.2105 108.868 100.189L98.1609 122.829C97.2247 124.807 94.8626 125.652 92.884 124.717V124.717Z" fill="url(#paint14_radial)"/>
<path d="M91.3335 167.99C89.355 167.055 88.5101 164.693 89.4451 162.715L101.914 136.349C102.849 134.37 105.212 133.525 107.19 134.46C109.169 135.395 110.014 137.758 109.079 139.737L96.6104 166.102C95.6742 168.08 93.3121 168.926 91.3335 167.99V167.99Z" fill="url(#paint15_radial)"/>
<path d="M108.14 132.455C106.161 131.519 105.315 129.156 106.251 127.178L120.617 96.8006C121.553 94.8221 123.915 93.9772 125.894 94.9122C127.872 95.8484 128.717 98.2105 127.781 100.189L113.416 130.566C112.479 132.545 110.117 133.39 108.14 132.455V132.455Z" fill="url(#paint16_radial)"/>
<path d="M72.9574 84.643C72.3534 86.7572 74.9789 88.2736 76.5078 86.692C82.9644 80.0186 94.2409 83.0402 96.4954 92.0483H96.4967C97.0293 94.1813 100.062 94.1813 100.596 92.0483C102.851 83.0402 114.127 80.0186 120.584 86.692C123.459 88.9591 134.76 86.3537 134.76 86.3537L105.125 56.7175C102.581 54.0206 98.9768 52.335 94.9765 52.335C92.143 52.335 89.51 53.1822 87.3093 54.6334C87.2742 54.5983 83.9231 51.2472 83.7276 51.0567C78.8877 46.0639 72.1115 42.9596 64.6085 42.9596C59.7334 42.9596 55.1654 44.2705 51.2353 46.5564C59.9979 48.9926 62.8715 60.0786 56.2758 66.46C54.6955 67.989 56.2119 70.6145 58.3261 70.0104C67.254 67.4589 75.509 75.7138 72.9574 84.643V84.643Z" fill="url(#paint17_linear)"/>
<path d="M115.705 73.2338C115.549 73.2338 115.393 73.2352 115.237 73.2396C115.54 71.9935 115.705 70.6929 115.705 69.3542C115.705 60.3179 108.381 52.9937 99.3443 52.9937C95.7894 52.9937 92.5035 54.1296 89.8201 56.0547C84.2329 47.5887 74.6368 42 63.7342 42C46.4847 42 32.5019 55.9842 32.5019 73.2338C32.5019 73.3396 32.5049 73.4439 32.5063 73.5497C21.5479 75.3734 13.1935 84.8946 13.1935 96.3703C13.1935 109.149 23.5524 119.508 36.3301 119.508H115.705C128.484 119.508 138.843 109.149 138.843 96.3703C138.843 83.5926 128.484 73.2338 115.705 73.2338V73.2338Z" fill="url(#paint18_radial)"/>
<path d="M138.843 96.3703C138.843 109.149 128.482 119.508 115.705 119.508C102.926 119.508 92.5667 109.149 92.5667 96.3703C92.5667 83.5926 102.926 73.2337 115.705 73.2337C128.482 73.2337 138.843 83.5926 138.843 96.3703V96.3703Z" fill="url(#paint19_linear)"/>
<path d="M115.705 69.3541C115.705 78.3889 108.38 85.7146 99.3442 85.7146C90.308 85.7146 82.9838 78.3889 82.9838 69.3541C82.9838 60.3179 90.308 52.9937 99.3442 52.9937C108.38 52.9937 115.705 60.3179 115.705 69.3541V69.3541Z" fill="url(#paint20_linear)"/>
<path d="M94.9665 73.2338C94.9665 90.4818 80.9837 104.466 63.7342 104.466C46.4846 104.466 32.5019 90.4818 32.5019 73.2338C32.5019 55.9842 46.4846 42 63.7342 42C80.9837 42 94.9665 55.9842 94.9665 73.2338V73.2338Z" fill="url(#paint21_linear)"/>
<path d="M59.4681 96.3703C59.4681 109.149 49.1093 119.508 36.3301 119.508C23.5524 119.508 13.1935 109.149 13.1935 96.3703C13.1935 83.5926 23.5524 73.2337 36.3301 73.2337C49.1093 73.2337 59.4681 83.5926 59.4681 96.3703V96.3703Z" fill="url(#paint22_linear)"/>
<path d="M13.4066 99.521C14.9438 110.809 24.6208 119.507 36.3301 119.507H115.705C127.414 119.507 137.091 110.809 138.628 99.521H13.4066Z" fill="url(#paint23_linear)"/>
<path d="M105.419 119.507L104.213 118.3C102.499 116.45 100.05 115.289 97.3281 115.289C97.2957 115.289 97.2649 115.292 97.2325 115.292C97.2134 115.275 97.1958 115.255 97.1767 115.238L90.984 109.045C88.2918 106.225 84.496 104.466 80.2887 104.466C72.118 104.466 65.4962 111.089 65.4962 119.258C65.4962 119.3 65.4977 119.339 65.4991 119.38C65.3228 119.416 65.1494 119.46 64.9774 119.508H105.419V119.507Z" fill="url(#paint24_linear)"/>
<path d="M65.4977 119.38C65.4977 119.339 65.4947 119.3 65.4947 119.258C65.4947 111.089 72.118 104.466 80.2887 104.466C87.2249 104.466 93.0429 109.241 94.6432 115.682C95.4941 115.427 96.3949 115.289 97.3281 115.289C102.508 115.289 106.71 119.489 106.71 124.671C106.71 129.851 102.508 134.052 97.3281 134.052C94.3317 134.052 69.0995 134.052 66.9834 134.052C62.8907 134.052 59.5739 130.734 59.5739 126.641C59.5739 123.057 62.1177 120.068 65.4977 119.38V119.38Z" fill="url(#paint25_radial)"/>
<defs>
<radialGradient id="paint0_radial" cx="0" cy="0" r="1" gradientUnits="userSpaceOnUse" gradientTransform="translate(101.538 58.5643) scale(74.4367)">
<stop stop-color="#FFD459"/>
<stop offset="0.2794" stop-color="#FFD55B" stop-opacity="0.721569"/>
<stop offset="0.4354" stop-color="#FFD763" stop-opacity="0.564706"/>
<stop offset="0.5609" stop-color="#FFDA71" stop-opacity="0.439216"/>
<stop offset="0.6702" stop-color="#FFDF85" stop-opacity="0.329412"/>
<stop offset="0.7691" stop-color="#FFE69E" stop-opacity="0.231373"/>
<stop offset="0.8603" stop-color="#FFEEBE" stop-opacity="0.141176"/>
<stop offset="0.944" stop-color="#FFF8E2" stop-opacity="0.054902"/>
<stop offset="1" stop-color="white" stop-opacity="0"/>
</radialGradient>
<radialGradient id="paint1_radial" cx="0" cy="0" r="1" gradientUnits="userSpaceOnUse" gradientTransform="translate(101.108 58.7845) scale(50.1431)">
<stop stop-color="#FFB400"/>
<stop offset="0.3726" stop-color="#FFB502" stop-opacity="0.627451"/>
<stop offset="0.5069" stop-color="#FFB709" stop-opacity="0.494118"/>
<stop offset="0.6026" stop-color="#FFBA14" stop-opacity="0.396078"/>
<stop offset="0.68" stop-color="#FFBF25" stop-opacity="0.321569"/>
<stop offset="0.7463" stop-color="#FFC53B" stop-opacity="0.254902"/>
<stop offset="0.805" stop-color="#FFCD57" stop-opacity="0.196078"/>
<stop offset="0.8581" stop-color="#FFD777" stop-opacity="0.141176"/>
<stop offset="0.9069" stop-color="#FFE29D" stop-opacity="0.094118"/>
<stop offset="0.9523" stop-color="#FFEFC8" stop-opacity="0.047059"/>
<stop offset="0.9926" stop-color="#FFFCF6" stop-opacity="0.01"/>
<stop offset="1" stop-color="white" stop-opacity="0"/>
</radialGradient>
<radialGradient id="paint2_radial" cx="0" cy="0" r="1" gradientUnits="userSpaceOnUse" gradientTransform="translate(90.791 43.1772) scale(52.2902)">
<stop stop-color="#FFD459"/>
<stop offset="0.2296" stop-color="#FFD355"/>
<stop offset="0.4362" stop-color="#FFCF4A"/>
<stop offset="0.634" stop-color="#FFC838"/>
<stop offset="0.825" stop-color="#FFBF1F"/>
<stop offset="1" stop-color="#FFB400"/>
</radialGradient>
<linearGradient id="paint3_linear" x1="105.094" y1="62.7632" x2="54.1377" y2="9.09642" gradientUnits="userSpaceOnUse">
<stop stop-color="white" stop-opacity="0"/>
<stop offset="0.9286" stop-color="white" stop-opacity="0.929412"/>
<stop offset="1" stop-color="white"/>
</linearGradient>
<radialGradient id="paint4_radial" cx="0" cy="0" r="1" gradientUnits="userSpaceOnUse" gradientTransform="translate(41.7182 173.117) rotate(25.3095) scale(73.9781 51.5582)">
<stop stop-color="#00C6F6"/>
<stop offset="0.5169" stop-color="#00C4F6"/>
<stop offset="0.7031" stop-color="#02BDF7"/>
<stop offset="0.8359" stop-color="#05B2F9"/>
<stop offset="0.9424" stop-color="#0AA1FC"/>
<stop offset="1" stop-color="#0D94FE"/>
</radialGradient>
<radialGradient id="paint5_radial" cx="0" cy="0" r="1" gradientUnits="userSpaceOnUse" gradientTransform="translate(41.7182 173.117) rotate(25.3095) scale(73.9785 51.5585)">
<stop stop-color="#00C6F6"/>
<stop offset="0.5169" stop-color="#00C4F6"/>
<stop offset="0.7031" stop-color="#02BDF7"/>
<stop offset="0.8359" stop-color="#05B2F9"/>
<stop offset="0.9424" stop-color="#0AA1FC"/>
<stop offset="1" stop-color="#0D94FE"/>
</radialGradient>
<radialGradient id="paint6_radial" cx="0" cy="0" r="1" gradientUnits="userSpaceOnUse" gradientTransform="translate(41.7192 173.117) rotate(25.3095) scale(73.9794 51.5591)">
<stop stop-color="#00C6F6"/>
<stop offset="0.5169" stop-color="#00C4F6"/>
<stop offset="0.7031" stop-color="#02BDF7"/>
<stop offset="0.8359" stop-color="#05B2F9"/>
<stop offset="0.9424" stop-color="#0AA1FC"/>
<stop offset="1" stop-color="#0D94FE"/>
</radialGradient>
<radialGradient id="paint7_radial" cx="0" cy="0" r="1" gradientUnits="userSpaceOnUse" gradientTransform="translate(41.718 164.172) rotate(25.3095) scale(73.9802 51.5596)">
<stop stop-color="#00C6F6"/>
<stop offset="0.5169" stop-color="#00C4F6"/>
<stop offset="0.7031" stop-color="#02BDF7"/>
<stop offset="0.8359" stop-color="#05B2F9"/>
<stop offset="0.9424" stop-color="#0AA1FC"/>
<stop offset="1" stop-color="#0D94FE"/>
</radialGradient>
<radialGradient id="paint8_radial" cx="0" cy="0" r="1" gradientUnits="userSpaceOnUse" gradientTransform="translate(41.7179 164.173) rotate(25.3095) scale(73.9799 51.5595)">
<stop stop-color="#00C6F6"/>
<stop offset="0.5169" stop-color="#00C4F6"/>
<stop offset="0.7031" stop-color="#02BDF7"/>
<stop offset="0.8359" stop-color="#05B2F9"/>
<stop offset="0.9424" stop-color="#0AA1FC"/>
<stop offset="1" stop-color="#0D94FE"/>
</radialGradient>
<radialGradient id="paint9_radial" cx="0" cy="0" r="1" gradientUnits="userSpaceOnUse" gradientTransform="translate(41.7183 164.172) rotate(25.3095) scale(73.9793 51.559)">
<stop stop-color="#00C6F6"/>
<stop offset="0.5169" stop-color="#00C4F6"/>
<stop offset="0.7031" stop-color="#02BDF7"/>
<stop offset="0.8359" stop-color="#05B2F9"/>
<stop offset="0.9424" stop-color="#0AA1FC"/>
<stop offset="1" stop-color="#0D94FE"/>
</radialGradient>
<radialGradient id="paint10_radial" cx="0" cy="0" r="1" gradientUnits="userSpaceOnUse" gradientTransform="translate(41.717 155.227) rotate(25.3095) scale(73.9791 51.5588)">
<stop stop-color="#00C6F6"/>
<stop offset="0.5169" stop-color="#00C4F6"/>
<stop offset="0.7031" stop-color="#02BDF7"/>
<stop offset="0.8359" stop-color="#05B2F9"/>
<stop offset="0.9424" stop-color="#0AA1FC"/>
<stop offset="1" stop-color="#0D94FE"/>
</radialGradient>
<radialGradient id="paint11_radial" cx="0" cy="0" r="1" gradientUnits="userSpaceOnUse" gradientTransform="translate(41.717 155.227) rotate(25.3095) scale(73.9799 51.5594)">
<stop stop-color="#00C6F6"/>
<stop offset="0.5169" stop-color="#00C4F6"/>
<stop offset="0.7031" stop-color="#02BDF7"/>
<stop offset="0.8359" stop-color="#05B2F9"/>
<stop offset="0.9424" stop-color="#0AA1FC"/>
<stop offset="1" stop-color="#0D94FE"/>
</radialGradient>
<radialGradient id="paint12_radial" cx="0" cy="0" r="1" gradientUnits="userSpaceOnUse" gradientTransform="translate(41.7172 146.282) rotate(25.3095) scale(73.9768 51.5573)">
<stop stop-color="#00C6F6"/>
<stop offset="0.5169" stop-color="#00C4F6"/>
<stop offset="0.7031" stop-color="#02BDF7"/>
<stop offset="0.8359" stop-color="#05B2F9"/>
<stop offset="0.9424" stop-color="#0AA1FC"/>
<stop offset="1" stop-color="#0D94FE"/>
</radialGradient>
<radialGradient id="paint13_radial" cx="0" cy="0" r="1" gradientUnits="userSpaceOnUse" gradientTransform="translate(41.7164 146.282) rotate(25.3095) scale(73.9791 51.5588)">
<stop stop-color="#00C6F6"/>
<stop offset="0.5169" stop-color="#00C4F6"/>
<stop offset="0.7031" stop-color="#02BDF7"/>
<stop offset="0.8359" stop-color="#05B2F9"/>
<stop offset="0.9424" stop-color="#0AA1FC"/>
<stop offset="1" stop-color="#0D94FE"/>
</radialGradient>
<radialGradient id="paint14_radial" cx="0" cy="0" r="1" gradientUnits="userSpaceOnUse" gradientTransform="translate(41.7162 146.282) rotate(25.3095) scale(73.9799 51.5594)">
<stop stop-color="#00C6F6"/>
<stop offset="0.5169" stop-color="#00C4F6"/>
<stop offset="0.7031" stop-color="#02BDF7"/>
<stop offset="0.8359" stop-color="#05B2F9"/>
<stop offset="0.9424" stop-color="#0AA1FC"/>
<stop offset="1" stop-color="#0D94FE"/>
</radialGradient>
<radialGradient id="paint15_radial" cx="0" cy="0" r="1" gradientUnits="userSpaceOnUse" gradientTransform="translate(41.7153 137.337) rotate(25.3095) scale(73.979 51.5588)">
<stop stop-color="#00C6F6"/>
<stop offset="0.5169" stop-color="#00C4F6"/>
<stop offset="0.7031" stop-color="#02BDF7"/>
<stop offset="0.8359" stop-color="#05B2F9"/>
<stop offset="0.9424" stop-color="#0AA1FC"/>
<stop offset="1" stop-color="#0D94FE"/>
</radialGradient>
<radialGradient id="paint16_radial" cx="0" cy="0" r="1" gradientUnits="userSpaceOnUse" gradientTransform="translate(41.7166 137.338) rotate(25.3095) scale(73.9785 51.5585)">
<stop stop-color="#00C6F6"/>
<stop offset="0.5169" stop-color="#00C4F6"/>
<stop offset="0.7031" stop-color="#02BDF7"/>
<stop offset="0.8359" stop-color="#05B2F9"/>
<stop offset="0.9424" stop-color="#0AA1FC"/>
<stop offset="1" stop-color="#0D94FE"/>
</radialGradient>
<linearGradient id="paint17_linear" x1="137.912" y1="120.318" x2="27.122" y2="9.52767" gradientUnits="userSpaceOnUse">
<stop stop-color="#E58200" stop-opacity="0"/>
<stop offset="0.0396" stop-color="#E27F04" stop-opacity="0.039216"/>
<stop offset="0.4671" stop-color="#C15D2F" stop-opacity="0.466667"/>
<stop offset="0.8016" stop-color="#AD4949" stop-opacity="0.8"/>
<stop offset="1" stop-color="#A64153"/>
</linearGradient>
<radialGradient id="paint18_radial" cx="0" cy="0" r="1" gradientUnits="userSpaceOnUse" gradientTransform="translate(54.7441 33.504) scale(95.3379)">
<stop stop-color="#CFCED3"/>
<stop offset="0.8111" stop-color="#A5ABBD"/>
<stop offset="1" stop-color="#9AA2B7"/>
</radialGradient>
<linearGradient id="paint19_linear" x1="115.445" y1="97.1536" x2="129.187" y2="55.694" gradientUnits="userSpaceOnUse">
<stop offset="0.0018" stop-color="#9AA2B7" stop-opacity="0"/>
<stop offset="0.3682" stop-color="#848A9C" stop-opacity="0.368627"/>
<stop offset="1" stop-color="#606572"/>
</linearGradient>
<linearGradient id="paint20_linear" x1="99.7242" y1="68.7904" x2="117.393" y2="42.5942" gradientUnits="userSpaceOnUse">
<stop offset="0.0018" stop-color="#9AA2B7" stop-opacity="0"/>
<stop offset="0.3682" stop-color="#848A9C" stop-opacity="0.368627"/>
<stop offset="1" stop-color="#606572"/>
</linearGradient>
<linearGradient id="paint21_linear" x1="63.734" y1="58.9278" x2="63.734" y2="24.9367" gradientUnits="userSpaceOnUse">
<stop offset="0.0018" stop-color="#9AA2B7" stop-opacity="0"/>
<stop offset="0.3682" stop-color="#848A9C" stop-opacity="0.368627"/>
<stop offset="1" stop-color="#606572"/>
</linearGradient>
<linearGradient id="paint22_linear" x1="36.7388" y1="96.7565" x2="8.84784" y2="70.3973" gradientUnits="userSpaceOnUse">
<stop offset="0.0018" stop-color="#9AA2B7" stop-opacity="0"/>
<stop offset="0.3682" stop-color="#848A9C" stop-opacity="0.368627"/>
<stop offset="1" stop-color="#606572"/>
</linearGradient>
<linearGradient id="paint23_linear" x1="76.0175" y1="102.739" x2="76.0175" y2="134.953" gradientUnits="userSpaceOnUse">
<stop offset="0.0018" stop-color="#9AA2B7" stop-opacity="0"/>
<stop offset="0.3682" stop-color="#848A9C" stop-opacity="0.368627"/>
<stop offset="1" stop-color="#606572"/>
</linearGradient>
<linearGradient id="paint24_linear" x1="99.914" y1="134.218" x2="66.1967" y2="100.501" gradientUnits="userSpaceOnUse">
<stop offset="0.0018" stop-color="#9AA2B7" stop-opacity="0"/>
<stop offset="0.3682" stop-color="#848A9C" stop-opacity="0.368627"/>
<stop offset="1" stop-color="#606572"/>
</linearGradient>
<radialGradient id="paint25_radial" cx="0" cy="0" r="1" gradientUnits="userSpaceOnUse" gradientTransform="translate(73.5043 103.029) scale(40.2152)">
<stop stop-color="#CFCED3"/>
<stop offset="0.8111" stop-color="#A5ABBD"/>
<stop offset="1" stop-color="#9AA2B7"/>
</radialGradient>
</defs>
</svg>
